<svg id="Calque_1" data-name="Calque 1" xmlns="http://www.w3.org/2000/svg" viewBox="0 0 74.45 77.69"><defs><style>.cls-1{fill:#fff;}</style></defs><path d="M53.71,10.63c1.21,1.46,2.44,2.91,3.65,4.38,1.46,1.79,3,3.55,4.35,5.41,1.54,2.07,2.95,4.24,4.43,6.36.52.74,1,1.7,1.7,2.06a2.44,2.44,0,0,0,2.24-.4,19.9,19.9,0,0,0,4.47-5.22c.58-1.12,2-1.8,2.57-2.93.71-1.49,2.06-2.22,3.06-3.34,1.68-1.91,3.52-3.68,5.34-5.46.28-.27.83-.28,1.25-.4.1.43.37.92.26,1.29-1.48,5.21-3,10.4-4.52,15.6-.6,2.06-1.16,4.13-1.75,6.19a5.7,5.7,0,0,1-3,3.94c.5.4.77.78,1.12.87a8,8,0,0,0,2.36.35c4.7-.23,9.4-.49,14.1-.83,2.73-.19,5.44-.56,8.16-.81a2.14,2.14,0,0,1,1.15.19c.7.36.64,1.09,0,1.54a12.24,12.24,0,0,0-1.31,1.19,11.53,11.53,0,0,1-1.65,1.56c-2.23,1.37-4.56,2.59-6.78,4-3.22,2-6.38,4.18-9.57,6.28a5.71,5.71,0,0,1-.93.53c-.4.18-1.16.26-1.18.45a2.63,2.63,0,0,0,.28,1.82,41.87,41.87,0,0,0,3.12,3.27,7.76,7.76,0,0,0,.79.73c.4.32.83.61,1.28.93,1.8,2.06,3.59,4.24,5.53,6.27,1.54,1.6,3.32,3,4.87,4.55a9.48,9.48,0,0,1,1.4,2.47c.06.11-.18.52-.31.54-.33,0-.8,0-1-.16-1.25-1.42-2.93-1.69-4.66-2a51.78,51.78,0,0,1-5.73-1.6c-3.23-1.07-6.43-2.26-9.66-3.34a7.62,7.62,0,0,0-3-.54,2.57,2.57,0,0,0-1.75,1.34c-1,2.38-1.89,4.86-2.86,7.28-.12.3-.51.48-.54.8-.29.77-.57,1.54-.87,2.31-.58,1.5-1.11,3-1.79,4.5s-1.48,2.7-2.19,4.07a16.75,16.75,0,0,0-.65,1.7c-1,0-1.52-.33-1.6-1.45-.09-1.27-.49-2.5-.61-3.77-.25-2.65-.43-5.31-.59-8A9.2,9.2,0,0,1,62.88,73a9.34,9.34,0,0,0-1.45-6.57c-.2-.34-.38-.69-.71-1.27a7,7,0,0,0-1.6,1,11,11,0,0,1-5.28,2.94,3.86,3.86,0,0,0-.94.45c-2,1.22-3.9,2.5-5.91,3.65s-4.34,2.25-6.48,3.43a11.2,11.2,0,0,0-1.3,1.2,3.89,3.89,0,0,1-.88.4c0-.39-.23-.84-.09-1.16a24.87,24.87,0,0,1,1.24-2.18c1.18-2.15,2.33-4.33,3.54-6.47,1.3-2.29,2.67-4.52,3.95-6.81.89-1.6,1.68-3.25,2.53-4.86.57-1.09,1.09-2.21,1.75-3.24a1.41,1.41,0,0,0-.19-1.94A13.36,13.36,0,0,0,48.9,50.1c-1.39-.85-2.8-1.69-4.21-2.5-1.57-.91-3.12-1.86-4.73-2.67a46.32,46.32,0,0,1-8.5-5.68c-.39-.33-.51-1-.76-1.5a4.76,4.76,0,0,1,1.23-.54,36.13,36.13,0,0,1,5.45-.7c2.54,0,5.09.33,7.64.44,2.35.09,4.69,1,7.07,0,.46-.19,1.1.05,1.66.08a1.94,1.94,0,0,0,2.33-2,34.81,34.81,0,0,0,0-5.5c-.48-3.94-1.16-7.85-1.76-11.78-.3-2-.62-4-.92-6a8.52,8.52,0,0,1,0-1.13ZM54.79,62l-.31.26c.22.31.44.88.66.88a2.08,2.08,0,0,0,1.48-.48c.28-.33.16-1,.22-1.52L56.31,61l-.85,1.46Zm8.75-17.28.49.18c.17-.68,1.58-.21,1.13-1.35-.09-.23-1.08-.41-1.19-.27A3.79,3.79,0,0,0,63.54,44.73Z" transform="translate(-30.7 -10.63)"/><path class="cls-1" d="M54.79,62l.67.44L56.31,61l.53.16c-.06.52.06,1.19-.22,1.52a2.08,2.08,0,0,1-1.48.48c-.22,0-.44-.57-.66-.88Z" transform="translate(-30.7 -10.63)"/><path class="cls-1" d="M63.54,44.73A3.79,3.79,0,0,1,64,43.29c.11-.14,1.1,0,1.19.27.45,1.14-1,.67-1.13,1.35Z" transform="translate(-30.7 -10.63)"/></svg>