<svg id="Calque_1" data-name="Calque 1" xmlns="http://www.w3.org/2000/svg" viewBox="0 0 165 125.97"><path d="M113.29,130.93c-.44-.78.32-.6.7-.9-.08.4-.63.52-.31.9Z" transform="translate(-7.35 -4.96)"/><path d="M59.6,88.09c-.2.22-.34.38-.74.27s-1-.42-.94.46c-.45-.1-.5.62-1.08.46-.32-.09-.65.41-1,.67a.56.56,0,0,0-1-.13c-.08.08-.12.29-.24.25a7.69,7.69,0,0,0-1.73,0c-.64-.09-1.28-.15-1.92-.2-.08,0-.18.05-.23,0-.21-.29-.38-.58-.7-.07-.05.08-.42-.07-.42-.25s-.17-.54.2-.65a.79.79,0,0,1,.84.07,1.51,1.51,0,0,0-.45-1c-.2-.2-1,.31-1,.64,0,.58-.25.56-.66.44-.71-.2-1.51-.12-2-.88-.12-.18-.6-.25-.91-.35A4,4,0,0,1,44,86.35c-.23-.26-.78-.23-.72-.76l.75.2c.4-1-.75-.88-1-1.41-.09.34-.26.66.18.83.18.07.08.26.11.4-.79,0-1.24-.6-1.74-1.08a5.26,5.26,0,0,1-.49-.65c-.08-.11-.19-.24-.31-.18-.68.33-.9-.28-1.25-.6-.15-.14-.23-.35-.51-.2a.29.29,0,0,1-.45-.21c0-.17-.17-.21-.32-.26A8,8,0,0,1,36,80.93c-.14-.1-.11-.2,0-.29s0-.22,0-.2c-.66.21-1-.39-1.22-.71-.41-.49-1-.84-1.11-1.57-.3.14,0,.37-.25.51a4,4,0,0,1-.66-.5,5,5,0,0,0-2-1.52c-.16-.06-.39-.12-.4-.28-.05-.63-.57-.58-1-.71-.19-.06-.38,0-.53-.26s-.15-.85-.75-.91c-.24,0-.1-.37-.11-.57a3.38,3.38,0,0,1,.23-1.26c-.18.1-.29.13-.31.19-.08.25-.22.46-.47.43s-.15-.34-.26-.45c-.58-.61-.68-1.55-1.43-2a2.64,2.64,0,0,1-.83-1.07s0-.14-.08-.17c-.9-.59-1-1.73-1.74-2.44a1.71,1.71,0,0,1-.48-1c0-.13,0-.52-.46-.43-.2,0-.26-.46-.17-.71s.29-.07.48,0a6.11,6.11,0,0,1,2,1.06,2.45,2.45,0,0,1,.53.59c.43.53,1.08.84,1.48,1.42s.91.5,1.38.63a2.33,2.33,0,0,1,1.12.64,4.93,4.93,0,0,0,1.68,1.13c.72.32,1.14,1,1.83,1.43a6.06,6.06,0,0,0,1.89.93c.13,0,.15.13.2.22.25.46.25.46.8,0-.32.43-.23.59.12.7a1.34,1.34,0,0,1,.89.67c0,.08.2.18.25.16.59-.26,1.11.07,1.66.15.14,0,.42,0,.36-.11-.16-.28.46-.32.12-.68-.19-.21-.67-.67,0-1,0,0,.1-.14.08-.15-.79-.86.22-1.7,0-2.55,0,0,0-.12.1-.15.63-.42.62-1.09.64-1.71,0-.39.31-.61.48-.87s.56-.09.69.28c.06.17.18.26.33.2s.11-.21.09-.34a1,1,0,0,1,.49-1.25c.12-.07.25-.33.2-.43-.31-.69.2-.54.55-.56.08,0,.23,0,.23-.06,0-.84.78-.59,1.18-.86a.91.91,0,0,1,1.05-.13c.17.1.46,0,.69,0s.28,0,.28-.2-.24-.08-.28-.14c-.17-.27-.72.22-.67-.3s0-1.09.69-1.26a.48.48,0,0,0,.39-.37,19,19,0,0,1,1.3-3.51c.47-1.34,1.35-2.56,1.34-4,0-.49.48-.46.59-.82a9.52,9.52,0,0,1,1.38-2.87c.21-.3.72-.78.8-.74.59.28.73-.37,1.11-.46a1.13,1.13,0,0,1,.32,0c.58.06,1-.07,1.21-.7,0-.12.19-.21.27-.3.29,0,0,.36.24.45a.55.55,0,0,0,.1-.08c-.18-.45.1-.68.39-.95s.35-.65.82-.27c.1.08.41-.15.63-.2s.82-.25.53.45c0,.1,0,.16.09.18s.14-.06.17-.15a1.42,1.42,0,0,1,1.33-1c.38-.05.83,0,1.16-.29a.28.28,0,0,1,.4.07c.3.67.36.19.55-.08.34-.49.83-.42,1.28.21.18.24.36.23.6.31q.94.33,1.89.72c.06,0,.1.15.1.22s.08.31.25.28-.11-.28.13-.4a1,1,0,0,0,1.09.27c.24-.09.52.06.32.37s.21.76-.4.9c-.21,0,.18.15.21.3s0,.07-.06.07c-.68.16-1-.09-1.15-.82,0-.24-.06-.35-.33-.29s-.33.13-.21.38,0,.23-.26.33c-.41.21-.79-.06-1.16.12s-.37-.15-.48-.32-.36-.26-.35-.07c0,.57-.37.35-.62.44a1.73,1.73,0,0,1-1.55.11c-.11-.06-.36,0-.48-.14a.32.32,0,0,1,.13-.44c.17-.12.33-.39.6-.24s.21.28.36.15,0-.28-.13-.41.19-.31,0-.51c-.2.37-.61.41-.9.62s-.8.2-.85.68c-.45-.28-.79-.55-1.37-.3-.29.13-.78,0-1,.27a1,1,0,0,1-1,.47c-.26,0-.46.27-.55.55-.25.81-.32.85-1.21.68-.11.18.21.32,0,.55s-.1.62-.44.14a.3.3,0,0,0-.4-.09.45.45,0,0,0-.2.44c0,.25.25.33.31.53-.22.27-.36-.12-.48-.08-.43.86-.37,1.86-1.09,2.56a.42.42,0,0,0-.11.21c.37.31-.27.78.18,1.1.08.06.13.45-.25.24a.13.13,0,0,0-.21.05c-.08.13.08.36-.18.41s-.11-.25-.2-.25-.14.31-.35.39.06.11.08.18.2.32.26.5.36.51-.21.37c-.09,0-.42.1-.12.41s0,.5-.38.58a2,2,0,0,0-.51.31c.45.11.85.24.26.63-.06,0-.07.19-.08.3a2.67,2.67,0,0,1-1.1,2c-.26.21-.31.91-.95.58a2.39,2.39,0,0,0-.41.6c-.17.35-.34.29-.55,0-.15.23.15.28.13.49-.24,0-.65-.07-.63.41,0,0-.13.08-.15.06-.76-.77-.73.19-.94.47s-.23.57-.65.49c-.13,0-.27,0-.24.19s0,.27.27.12.09.13.08.2a.35.35,0,0,1-.44.33c-.09,0-.25-.16-.25-.15-.16.21-.44-.09-.55.1s.13.28.22.42a.75.75,0,0,1,.13.73A5.76,5.76,0,0,0,43,69.24a2.58,2.58,0,0,0-.07,1c0,.28,0,.51.38.23.15-.12.2,0,.18.18a2.27,2.27,0,0,0-.05.63c.05.28,0,.63.5.65s.47.34.72.49.38.69.77.19a.13.13,0,0,1,.21,0c0,.07.06.2,0,.23-.69.58.29.42.21.72.27-.22-.2-.38,0-.51s.29.17.38.31.42.17.62.29.93-.14.89.58c0,0,.16.14.26.16a1.85,1.85,0,0,1,1,.64.76.76,0,0,0,.82.31c.36-.08.79,0,.66.6,0,.16.27.27.28.23.15-.4.68-.1.85-.5a.53.53,0,0,1,.68-.2c.62.25,1.12-.1,1.72-.18-.17-.32-.46.1-.57-.21,0-.1,0-.11.07-.14a.46.46,0,0,1,.58.09c.37.41.68-.07.76-.16.38-.44.79-.24,1.14-.1.17.07.22.09.32,0a1.47,1.47,0,0,0,.33-1.24c-.28,0-.1.28-.29.29-.15-.5,0-.67.55-.67s.76-.22,1,.35c.1.27.42,0,.63.07a10.33,10.33,0,0,0,1.84.36l.6,0c1.07,0,2.09-.29,3.15-.37.43,0,1.15.22,1.52-.42,0-.06.33,0,.48,0,.86.32,1.72.66,2.57,1,.31.13.63.22.93.37,1.46.71,2.64,1.88,4.13,2.5.87.36,1.7,1.06,2.79.8a2.07,2.07,0,0,1,.9.11c.64.18,1.24-.19,1.87,0,.23.07.61-.25.87-.4a4,4,0,0,0,1.57-1.24,3.59,3.59,0,0,0,.53-2.24,8.13,8.13,0,0,1,.26-1.43c.11-.73.19-1.47.29-2.2,0-.17,0-.39.24-.38s.19.28.2.42c0,.51,0,.51.45.77a2.37,2.37,0,0,0-.3-1.09,10.74,10.74,0,0,1-.53-1.9,2.7,2.7,0,0,0-.57-1c-.33-.37-.13-.77-.1-1.16s.27,0,.38-.16c-.3-.17-.43-.59-.66-.74-.6-.37-.42-1.2-1-1.52-.32-.16-.17-.53-.17-.8,0-.75-.72-1-1-1.62a16.94,16.94,0,0,0-1.36-2.12c-.25-.39-.31-.92-.83-1.12a.07.07,0,0,1,0-.05c-.22-.83-.28-.75-1-1.3-.26-.21-.85-.58-.59-1.23.08-.18-.21-.2-.37-.23s-.56.25-.54,0c0-.4-.39-.73-.06-1.18s.08-.79.43-1.1c.09-.08-.12-.2-.18-.15s-.8,0-.47.65c.17.32,0,.74-.18,1.17-.41-.55-.82-1.05-1.56-.71-.13-.34-.51-.44-.68-.68a1,1,0,0,0-1.22-.35c.22-.26.07-.53.24-.79s-.06-.39-.3-.46a3.62,3.62,0,0,1-.82-.29c-.32-.19-1-.31-.27-.88.26-.21-.05-.39-.33-.6a.89.89,0,0,1-.45,1c-.34.19-.73,0-1.1,0s-.09-.27-.13-.41.1-.26.24-.19.29.09.29-.13.07-.27-.19-.38a2.35,2.35,0,0,0-1.67-.13c0-.38.39-.56.24-.9,0,0,.13-.14.2-.22.31.39,1-.15,1.23.54.11.34.32-.15.55-.05.08.14-.27.25-.09.39s.19-.1.28-.14a6.35,6.35,0,0,1,2.33-.32c.19,0,.11.15.14.26.1.3-.2.43-.3.67.61,0,.61,0,.5-.53a.31.31,0,0,1,0-.23.22.22,0,0,1,.29,0c1,.83,2.3,1.38,3,2.54.4.71,1.08,1.18,1.4,1.93.12.28.59.31.66.55.22.72,1.16,1,1.13,1.82a.17.17,0,0,0,.17.16c.56,0,.82.41,1,.79s.8.73.85,1.32c1,.38,1.15,1.46,1.8,2.13s.83,1.38,1.35,2,.51,1.43.92,2.09a1,1,0,0,1,.19,1c-.06.11.08.38.19.51a1.64,1.64,0,0,1,.47,1.83c-.07.17.16.13.23.23.31.45.18,1,.55,1.47-.48.47.28.54.29.9a2.36,2.36,0,0,0,.31,1.34c.15.23,0,.74-.16,1.07a1.2,1.2,0,0,0-.11.8c.16.57-.34,1-.33,1.49a2.13,2.13,0,0,1-.62,1.89,1.62,1.62,0,0,0-.4,1.14,1.73,1.73,0,0,1-.52,1.14c-.48.47-.41,1.13-.79,1.62a2.71,2.71,0,0,0-.31,1.27c-.1.55.1.6.52.62a9,9,0,0,0,2,.15.57.57,0,0,0,.34-1,1,1,0,0,1-.3-1.3.5.5,0,0,0,0-.43c-.16-.36-.26-.69.29-.8.21,0,.15-.31.25-.39s-.08-.66.44-.48c0,0,.09-.21,0-.31s-.35.11-.28-.18.23-.15.37-.19c.42-.12.77-.29.57-.84a1.13,1.13,0,0,1,0-.18c.63,0,.8-.9,1.46-.81a1.39,1.39,0,0,0,1-.34c.18-.12.18-.12.23.13.14.58.74.33,1.06.33a2.91,2.91,0,0,0,1.56-.58c.18-.12.27-.27.48,0s.54.1.86,0c-.85-.39-1.81-.65-1.88-1.83.32.06.62-.28,1-.17.12,0,.2-.07.2-.19s-.1-.14-.22-.16a2.17,2.17,0,0,1-1.36-.78c-.21-.37-.06-.59.23-.8a.63.63,0,0,0,.1-1,.63.63,0,0,1-.14-1c.2-.27.34-.56.88-.36,1,.36,1.94-.2,2.51-1.33.35-.7.59-1.39,1.4-1.69a1.23,1.23,0,0,0,.72-.76c.14-.4.73-.41.76-.9l.66.27c-.18.41.29.79,0,1.23s.28.83.27,1.3c0,.25.11.44-.27.33-.16-.05-.18,0-.17.16.07,1-.2,2,.24,2.93a.26.26,0,0,0,.4.15c.65-.34,1.19,0,1.8.17s1.38.91,2.26.68c.14,0,.22,0,.24.13a.64.64,0,0,0,.83.48.77.77,0,0,1,.92.41c.39.62,1.21.53,1.67,1a.17.17,0,0,0,.27-.06c.07-.14,0-.35-.12-.37-.53-.07-.89-.58-1.61-.41l.62-.57a.91.91,0,0,1-.79-.82c0-.28-.66-.47-.26-.94.32,0,.25.45.55.48.12,0,.26.11.36,0s0-.23,0-.35-.09-.24-.27-.13c-.38.23-.4-.19-.51-.34a.33.33,0,0,1,.16-.52c.3-.11.31-.25.11-.52a.78.78,0,0,1,0-.71.61.61,0,0,0-.75-.82c-.49.11-.79,0-.64-.57.11-.4-.12-.33-.33-.29a1.33,1.33,0,0,1-1.7-1c0-.18-.07-.36.15-.42.64-.18.2-.37,0-.5a11.84,11.84,0,0,0-1.88-1.1c-.43-.17-.88-.13-1-.74,0-.12-.25-.21-.39-.3-.45-.3-1-.5-.63-1.29a1.19,1.19,0,0,0-.41-1.18c-.25-.21-1-.41-.21-.89-.43-.41.24-.67.15-1.05,0-.11,0-.29.28-.32a7,7,0,0,1,2,.26c.46.08,1.15.14,1.44.74a.28.28,0,0,0,.19.13c.8,0,.94.55,1,1.14a1,1,0,0,0,.65.84c0-.29-.09-.46.39-.43a4.7,4.7,0,0,1,2,.82c.24.13.32.24,0,.35s-.26.25-.07.42c.47.42.92.91,1.66.75.13,0,.32-.09.39.09s0,.25-.19.37.08.28.2.28a.85.85,0,0,0,.54-.14c.34-.26.5.12.75.16.43.07.37.32.29.61,0,.13,0,.22.18.28.59.27.58.28.8.94a.14.14,0,0,0,.08.07c.77.2,1.26.83,1.94,1.26-.06-.34.19-.65-.08-1-.1-.13,0-.26.24-.2s.42.37.46.68c.06.54.36.72.87.64.12-.2-.27-.25-.11-.44s.25,0,.37.07.18,0,.24-.12a.42.42,0,0,0,0-.47,1.75,1.75,0,0,0-.8-.79c-.16-.06-.32-.22-.2-.38s.25,0,.37.11a7.5,7.5,0,0,0,1.79.84c.27.08.48.79.33,1.15-.05.11-.28.21,0,.35s.21-.09.29-.19a1.76,1.76,0,0,1,2.12-.25c.39.34,1,.2,1.34.64,0,0,.11-.06.12-.11s.1-.16-.08-.23c-.62-.27-.58-.72-.26-1.21h0c.13.18.28.08.37,0s0-.13-.1-.17-.24-.2-.09-.34a.27.27,0,0,1,.4.05c.18.41.71.47.83,1s.69.48,1,.68c0,.29-.45.09-.29.38s.28.08.43-.06.34,0,.42.15c.66,1,1.7,1.76,2.34,2.81.26.43.73.66,1,1.07a9.54,9.54,0,0,1,1.67,2.63.92.92,0,0,0,.2.25,33.9,33.9,0,0,0,2.43,2.51c.46.4,1,.76,1.42,1.17,0,0,.05,0,.05,0,.35,1,1.43,1.14,2.07,1.8.43.44,1.09.44,1.53.9s.92.65,1.14,1.28a2.82,2.82,0,0,0,.7.84c.2.2.41.34.45.65A.28.28,0,0,0,138,84c.13,0,.28,0,.3.17.06.73.6.89,1.18,1a.71.71,0,0,1,.53.5,2.59,2.59,0,0,0,1,1.18c.45.3.89.61,1.32.94.21.16.4.12.58.18.57.19.76.85,1.34,1a.34.34,0,0,1,.08.51c-.54.51.14.35.29.49a.74.74,0,0,0,0-.3c-.07-.18-.18-.36,0-.51s.31.06.47.1c.94.23,1.3,1.12,2,1.68.11.1.2.21.36.22.35,0,.64.09.17.44-.19.14,0,.18.1.26s.43.12.65.17c.57.12.82.65,1.25.95.21.15.44.19.65.32a6,6,0,0,1,1.91,2.14c.15.27.25.63.78.56s.78,1,.55,1.44a1.78,1.78,0,0,1,1.71.82c.09.11.19.2.31.17a2.28,2.28,0,0,1,2.23.74,46.49,46.49,0,0,1,3.74,3.42c.94,1,1.77,2.15,2.67,3.21a4.94,4.94,0,0,1,.75,1.59.39.39,0,0,1-.07.42c-.14.12-.22-.06-.32-.12s-.47-.12-.56.07.14.23.32.29c.36.11.26.36.05.51-.44.32-.21.45.09.71s.81.28,1.21.62c-.36.09-.69-.07-.93.26.24.18.63.34.35.76,0,0,0,.1,0,.1.79,0,.61.88,1.11,1.12a.08.08,0,0,1,0,.14c-.46.48.05.71.32.81a.65.65,0,0,1,.45.49c0,.09.18.14.1.27s-.24.06-.34,0c-.56-.29-1.31-.08-1.76-.78-.24-.37-1,0-1.25-.21s-.62-.74-1-.66-.82-.33-1.29-.07c-.22.12-.3,0-.2-.67a1.18,1.18,0,0,1-1.51-.22.91.91,0,0,0-1-.36c-.83.32-1.06-.26-1.39-.74a.64.64,0,0,0-.1-.13c-.68.41-1.18-.28-1.79-.36a16.16,16.16,0,0,1-1.86-.5c-.65-.18-1.23-.54-1.9-.71a1.66,1.66,0,0,0-.61-.14,1,1,0,0,1-1.17-.56.84.84,0,0,0-.77-.57c-.31,0-.26-.28-.37-.43-.17.09-.08.57-.45.3-.16-.12-.39-.26-.5-.12s0,.43.2.6a2.83,2.83,0,0,1-.4-.17c-.19-.12-.2,0-.22.14s0,.35.07.29c.27-.12.52.28.76,0-.53.55.24.8.35,1.32a1.84,1.84,0,0,0-1.49-.25c-.18.06-.36-.13-.47-.26a.92.92,0,0,0-1-.41c-.43.11-.36-.45-.74-.57s-.95-.5-1.55-.33c-.22.06-.43-.17-.62-.26-.56-.28-1.25-.15-1.76-.59-.13-.11-.45-.11-.33-.34a.46.46,0,0,1,.58-.24.43.43,0,0,0,.52-.06,6,6,0,0,1-1.06-.76,6.88,6.88,0,0,0-1.22-.58c-.12,0-.41-.06-.2-.18s0-.65.41-.4a7.93,7.93,0,0,1,1.58,1,1,1,0,0,0,.54.32c.12,0,.25.14.34,0s0-.24-.15-.29c-.34-.11-.3-.42-.39-.65.2-.24.27.36.43,0a.37.37,0,0,0-.18-.5c-.29-.14-.61-.22-1-.37a1.07,1.07,0,0,1,.09,1.07c-.26-.92-1.17-.84-1.71-1.33-.26.24,0,.47,0,.75-.22,0-.62-.29-.6.12s.13.77.56.79c.27,0,.4-.07.25.26,0,0,.15.12.21.1.77-.23.67.46.85.86-.57-.53-1.54-.32-2-1.11-.08.09.06.32-.15.34a.48.48,0,0,1-.48-.24.83.83,0,0,0-.92-.53s-.06,0-.06,0c-.25-.7-1-.25-1.41-.61-.11-.1-.24-.16-.24-.34s-.09-.3-.32-.24a1,1,0,0,1-.91-.34,1.08,1.08,0,0,0-.61-.25,1.51,1.51,0,0,1-.94-.43c-.43-.48-.46-.46.16-.64a.21.21,0,0,0,.18-.22c0-.16-.1-.22-.25-.22a.33.33,0,0,0-.28.11c-.57.7-1.12.54-1.8.09-.35-.23-.86-.23-1.16-.61,0,0-.14,0-.16,0-.4.64-.71.26-1.07-.06a1,1,0,0,0-1-.13,6,6,0,0,1-2.54,0c-.53,0-.64-.47-1-.63a5.64,5.64,0,0,0-1.92-.41l.26-.14c.14,0,.37.09.42-.16s-.07-.18-.16-.24-.34-.19-.5,0-.41.14-.26.43c0,0,0,.1,0,.15-.72-.27-1.39.53-2.12.08a.48.48,0,0,0-.6.07c-.21.14-.72.24-.77-.35,0-.19-.14-.35-.34-.26A3.24,3.24,0,0,1,115,99a9.31,9.31,0,0,1-2.08-.83A1.78,1.78,0,0,0,112,98c-.67,0-1-.65-1.64-.7-.15,0-.39-.26-.39.15,0,0-.08.09-.12.13-.34-.36-.7,0-1.05,0-.09,0-.17-.06-.17-.15s0-.21.18-.21.24.13.34,0c-.44-.24-.65-.23-.75.15s-.26.36-.39.13c-.29-.55-.77-.51-1.26-.57a4.5,4.5,0,0,1-2.37-1,.56.56,0,0,0-.47-.13,4,4,0,0,1-2.44-.37,3.06,3.06,0,0,0-2.41-.33c-.14.05-.22,0-.21.21a.22.22,0,0,1-.27.21c-.21,0-.12-.16-.07-.29s-.1-.25-.2-.23a1.56,1.56,0,0,1-1.73-.51c-.52.3-.77-.42-1.24-.33,0,0-.12,0-.17-.07a7.31,7.31,0,0,0-1.4-.56,11.56,11.56,0,0,1-1.89-.74,2.94,2.94,0,0,0-.8-.38.3.3,0,0,1-.22-.29c0-.2.22-.11.27-.17.39-.51.93-.21,1.39-.29a.22.22,0,0,1,.28.17c.09.31.31.25.51.19.39-.12.74-.38,1.18-.19.08,0,.21-.06.2-.19s-.09-.19-.12-.19c-.39,0-.59-.34-1-.38a2.25,2.25,0,0,1-1.48-.43,1.58,1.58,0,0,0-1-.45s-.13-.11-.14-.18-.07-.3-.2-.28c-.51.07-.75-.15-1-.62s-.87-.39-1.18-.8c-.16-.21-.39-.13-.57,0-.37.25-.51-.31-.83-.21.32-.55-.24-.67-.49-.87a11.88,11.88,0,0,1-1.29-.89c-.38-.45-.78.15-1-.27a3.92,3.92,0,0,0-.93-.83c-.09-.07-.22-.19-.36,0s-.27.26-.21.49.12.15.3.14c.35,0,.46.4.73.57a.75.75,0,0,0,.43.15c.8,0,1.17.51.91,1.29-.08.23-.29.42-.12.71.06.09-.06.21-.19.14a9.7,9.7,0,0,0-2.21-.35.27.27,0,0,1-.25-.3,1.08,1.08,0,0,0-.62-1,.58.58,0,0,1-.29-.31c-.11-.55-.43-.33-.69-.2a1.36,1.36,0,0,1-1.62,0c-.27-.22-.56,0-.67,0-.87.18-1.76-.09-2.61.12-.27.07-.39-.1-.57-.17-.44-.17-.86-.4-1.23.14-.11.16-.31.15-.26-.08.11-.53-.11-.29-.35-.2a2.64,2.64,0,0,1-2,.06.81.81,0,0,0-.63.07,4.29,4.29,0,0,1-1.66.18A2.18,2.18,0,0,1,67.69,86a.64.64,0,0,0-.81,0c-.53.34-1.21.2-1.75.52-.1.06-.19,0-.23-.16s0-.25.09-.27c.51-.1.81-.52,1.32-.74-.34-.19-.57-.62-.86,0-.12.25-.33-.06-.51,0s.07.41-.1.58c-.32-.06-.27-.38-.4-.57-.53.57-.91.5-1.14-.19,0-.14,0-.42-.26-.31s-.08.28,0,.39.28.34.13.56,0,.15.12.17l.65.13c-.84.53-1.78-.1-2.61.36a1,1,0,0,0,.75.45c.44,0,.61.25.48.69-.14.09-.17-.38-.37-.08s-.3.36-.45.16.35-.15.28-.46c-.29,0-.53-.29-.91-.14s-.66-.09-.56-.52a.69.69,0,0,0-.11-.59c-.17.18.06.61-.44.54-.18,0-.16.28,0,.39s.25.2.16.36-.26.11-.4.06-.35-.17-.44.06.15.18.27.26.12.28,0,.43Zm40,5.42c-.06-.55-.57-.29-.84-.45-.08,0-.17.08-.14.21.1.45.49.08.7.25.06,0,.2,0,.3,0-.21.61.52.41.59.79a.54.54,0,0,0,.1-.73c0-.1-.15-.12-.19,0C100,93.85,99.79,93.46,99.62,93.51Zm46.87,6c0,.08,0,.22,0,.22a4.23,4.23,0,0,0,1.72.34,4.58,4.58,0,0,0-1.76-.55c0-.14-.09-.34.09-.38s.39-.17.35-.36c-.12-.5-.53.28-.71-.13,0-.08-.16,0-.21,0C145.83,98.9,146.16,99.45,146.49,99.52ZM109.73,76a.54.54,0,0,1,0-.11c-.06-.18.19-.55-.24-.49-.19,0-.54.05-.54.32s.38.21.6.27a.7.7,0,0,0,.25,0c-.15.5-.1.4.31.63s.67,0,.87.39c.17-.59-.29-.88-.55-1.21s-.2.35-.46.27Zm-8.88-.5c.47-.09.65.43,1.12.61-.17-.3-.3-.49-.4-.69-.2-.4-.56-.37-.82,0-.33-.15-.46-.57-.85-.65-.17.16.2.29,0,.47-.24-.09-.58-.35-.6.24,0,.17-.4.36-.48.19-.25-.52-.47-.29-.78-.1a3.48,3.48,0,0,1-.89.31c-.15,0-.42-.18-.38.19s.23.3.45.16.36,0,.51.11.08.26,0,.38a.28.28,0,0,0,0,.44c.15.12.28.27.51.17a1.36,1.36,0,0,1,.54-.17c.46,0,.62-.12.46-.6-.09-.26-.14-.62.39-.6s.53.35.8.52.3.26.45.1-.05-.29-.16-.4l-.4-.34C100.49,75.7,100.88,75.9,100.85,75.48Zm10,4.58c0,.17.28.34.17.37-.45.12,0,.55-.27.7a.22.22,0,0,0,.32.21c.06-.51.7-.47.86-.89a.46.46,0,0,0,0-.36c-.09-.19-.2,0-.31,0-.27,0-.54,0-.81,0,.1-.6-.63-.85-.56-1.5,1-.08,1.49,1.29,2.54.91a2.21,2.21,0,0,0-.65-.42c-.43-.2-1-.28-1.22-.69a5.42,5.42,0,0,0-1.34-1.28c-.19-.17-.15-.58-.51-.54s-.38.08-.23-.25c.06-.13-.12-.21-.23-.26a3.08,3.08,0,0,0-2.47.16c-.19.08-.4.21-.21.49s.27.16.44,0a.35.35,0,0,1,.42,0c.21.15,0,.23-.09.34-.25.64-.67.24-1,.16-.13,0-.27-.24-.37-.07a.34.34,0,0,0,.17.48,15.22,15.22,0,0,0,2.33.71,3,3,0,0,1,1.78.71A3,3,0,0,0,110.86,80.06Zm-5-.64c-.32-.63-.71-.53-1.12-.21-.12.09-.23.22-.36,0s-.33-.36-.24-.55c.17-.37.17.14.33.1a.8.8,0,0,0,.4-.17c.07-.07.1-.16,0-.23s-.27,0-.41,0c-.36,0-.86.24-1-.09s-.67-.63-.91-1.06a.66.66,0,0,1-.4.79c-.27.1-.63.22-.79-.26,0-.14-.32-.14-.51-.18-.48-.12-.89.26-1.37.15-.29-.07-.71-.33-.7.32,0,.1-.12.08-.2,0-.35-.16-.43,0-.57.32a5.29,5.29,0,0,0-.27.76c-.58-.22-.43.4-.66.59-.06,0,0,.28-.16.24a.31.31,0,0,1-.2-.22c0-.63-.38-.8-.93-.75-.21,0-.48,0-.55.19s.37,0,.39.23c-.13.16-.29.13-.43.16-.44.11-.94.74-.83,1.13s0,.48-.3.55a.18.18,0,0,0-.16.22c0,.5-.48.59-.69.91s-.63-.07-.9.06a4.26,4.26,0,0,1-2.18.11c-.71,0-1.1.1-1,.88a1,1,0,0,1-.16.07c-.16-.55-.64-.7-1.12-.91-.65-.28-.93.2-1.4.49a3.32,3.32,0,0,1,.7.16c.52.25,1.39-.06,1.49.9,0,.11.21.15.25,0,.2-.52.37-.19.55,0a.67.67,0,0,0,.45.2c.32,0,.76,0,.94.2.52.58,1.37.53,1.87,1.09a1.17,1.17,0,0,0,.38.21c.72.33,1.11.16,1.35-.58.18-.55.5-.69,1.14-.5-.11.23-.53.13-.56.58.33-.15.63-.41.89,0,.06.09.17,0,.22,0,.29-.3.5-.16.84,0s.13.36.29.51a20.5,20.5,0,0,0,1.56,1.38c.32.26.47.74,1,.83.08-.29-.35-.18-.27-.45a.94.94,0,0,1,.84.31c.34.38.35.48.8.61,0,0,0,0,.06,0,.52-.07.86.29,1.28.5a8.43,8.43,0,0,0,2,.48.31.31,0,0,0,.35-.08s0-.17.19-.07c.53.26,1.1.42,1.64.64s.76.59,1.2.47,1,.12,1.45.13.53.13.4.58a.68.68,0,0,1,.72-.29,23.79,23.79,0,0,0,3.16-.12,13.08,13.08,0,0,1,1.68-.28c.62.07.65-.42.79-.68s-.17-.54-.5-.56c0-.27.37-.31.21-.57s-.26.1-.42.07-.23,0-.25-.14c-.07-.51-.57-.7-.81-1.08-.08-.12-.3-.23-.18-.35.32-.32,0-.38-.16-.53s-.22-.21-.32-.32-.26-.33-.06-.5a.38.38,0,0,1,.52,0c.63.49,1,1.26,1.7,1.66,0,0,0,.12,0,.17a.36.36,0,0,0,.32.56c.44-.06.48.34.73.49s.08.32.16.46a1.72,1.72,0,0,0,2.21.44.76.76,0,0,1,.46-.08c.57,0,1.18.26,1.72-.24a.43.43,0,0,1,.67.24c.06.13,0,.35.29.36.14-.37-.38-.62-.2-1,.34-.64-.18-1-.55-1-.62-.1-.61-.53-.78-.92s.14-.85-.6-1.06a6.52,6.52,0,0,1-1.49-1c-.48-.33-1-.64-1-1.34,0-.1,0-.17-.1-.17-.37,0-.59-.32-.93-.39s-.4-.26-.56,0,0,.46.15.64a.85.85,0,0,0,.43.25c.24.08.42.14.21.43s.12.22.17.34.43.14.36.47a1.9,1.9,0,0,1-1.3-.51c-.43-.42-1.33-.15-1.6-.94a.27.27,0,0,0-.16,0c-.27.26-.48,0-.66-.1-.53-.37-1-.79-1.52-1.17-.27.11.12.56-.11.41-.43-.27-1-.15-1.33-.63a.43.43,0,0,0-.48-.22c-.43.06-.59-.25-.85-.54a.77.77,0,0,1,.24,0c.18,0,.31.35.55.11.06-.06.14-.15.07-.21a.72.72,0,0,0-.54-.11s-.1,0-.14,0c-.07-.25.34-.33.16-.58a.3.3,0,0,0-.38-.15,1.05,1.05,0,0,1-1.49-.46s-.1,0-.14,0c-.21.26,0,.5,0,.79-.23-.16-.54-.23-.46-.46.19-.57-.62-.52-.54-1a.78.78,0,0,0-.31,0c-.14.09-.06.22,0,.34s.26.21,0,.35a.3.3,0,0,1-.45,0c-.08-.1-.17-.25-.29-.21-.55.18-.41-.24-.5-.46C105.48,79.27,105.63,79.52,105.89,79.42Zm32,7.74c-.19-.25-.27-.4-.38-.51a.19.19,0,0,0-.32,0c-.31.49-.25.45-.63,0-.55-.68-.79-1.62-1.84-1.92a2.4,2.4,0,0,1-1.06-.63,5.38,5.38,0,0,0-1.08-.9c-.21-.15-.21-.14-.05-.3a.23.23,0,0,0,0-.38c-.16-.1-.29-.05-.29.16s-.15.2-.31.21c-.67.07-.92-.55-1.32-.87s-.49-.66-1-.68c-.31,0-.61-.28-.47-.53.26-.46-.07-.36-.29-.42s-.5,0-.6-.26a1.68,1.68,0,0,0-.88-.86c-.39-.2-1-.39-.89-1.1a.2.2,0,0,0-.07-.16c-.11-.09-.15,0-.22.09a.39.39,0,0,1-.59,0,5.79,5.79,0,0,0-1.72-1.45,7.22,7.22,0,0,1-2-2,20.17,20.17,0,0,1-1.3-1.92c-.09-.17-.33-.26-.39-.48-.19-.66-.89-1-1.16-1.54-.16-.34-.24-.69-.66-.8a1.23,1.23,0,0,1-.83-.51c-.06-.11-.24-.24-.38-.11s-.21.27,0,.43a.14.14,0,0,1,0,.26c-.11.07-.19,0-.29,0-1.1-.69-2.45-.92-3.45-1.81a.57.57,0,0,0-.34-.16c-.79,0-1.3-.66-1.89-1a5.6,5.6,0,0,0-2.27-.7c-.14,0-.33.1-.42,0-.44-.64-.68,0-1,.19l.77.16c0,.47-.55.47-.69.79-.25.56-.53.38-.83.07-.08-.09-.13-.26-.27-.15s0,.22,0,.33c.26.52.7.9,1,1.39.6,1,1.12,2.07,1.68,3.1a1.44,1.44,0,0,1,.21.71l-.23-.06c-.18-.09-.4-.17-.47.08s.22.21.36.27.48.14.62.4a10.77,10.77,0,0,0,.95,1.19,2.82,2.82,0,0,0,1.28,1.13c.21.07.45,0,.65.18.54.55.91,1.25,1.84,1.38s1.74.91,2.66,1.27c.09,0,.23.11.25.19.08.37.38.48.67.61.14.06.32.13.27.3s-.28.11-.43.08a1.81,1.81,0,0,0-1.39.09.42.42,0,0,0,.56.28,2.53,2.53,0,0,1,2.37.42c.25.2.53-.09.77.07.16-.41.41-.11.65-.11.47,0,.62.44,1,.57s.81-.05,1.16.25a1,1,0,0,0,.91.3,1.46,1.46,0,0,1,1,.33,3.39,3.39,0,0,0,1.57.89c.16,0,.24.12.19.26s-.19.1-.29,0-.23-.18-.34-.1a4.3,4.3,0,0,1-2.44.49c-.45,0-.3.44-.29.64s.21.25.39,0a5.89,5.89,0,0,1,1.43.78.18.18,0,0,1,0,.11c-.17.16-.15.31,0,.4s.24-.08.26-.24.18-.21.34-.17a9.9,9.9,0,0,1,2.31.69c.17.09.41.43.58.13s-.14-.49-.26-.72c0-.07-.19-.08-.28-.14a.73.73,0,0,1-.36-.66c0-.39.15-.85-.28-1.17a1.11,1.11,0,0,1,.81-.05c.45.19.95.87,1.11-.24,0,0,0,0,.06,0a3.25,3.25,0,0,0,1.33-.39c.09,0,.25.06.29.2s-.07.16-.18.2c-.78.31-.74.31-.51,1.2.07.29.39.79-.24,1-.08,0-.11.09-.05.12.3.14.11.39.16.58.09.35.51.85.64.76.52-.35,1.16.37,1.51-.33.2.22-.17.43.16.6s.36,0,.54-.11.38-.22.37.17.16.69.77.77c-.27,0-.17-.43-.49-.4a.15.15,0,0,1-.11-.2c0-.15.15-.08.25-.08.44,0,.75.43,1.19.42.16-.26-.41-.17-.17-.42s.3-.06.45.07.23,0,.28.11c.31.43,1.09-.14,1.28.62,0,.14.39.16.42-.19S137.47,87.06,137.93,87.16Zm-81.6-8.25v.17a.68.68,0,0,0,.22.09c.19,0,.4.09.41.23s-.24.17-.39.18c-.77,0-1.43.78-2.28.33A.37.37,0,0,0,54,80a.72.72,0,0,1-.69.34c-.12,0-.39.06-.32.29s.23,0,.34,0a.83.83,0,0,1,.35.1,1.13,1.13,0,0,0,1.28.13c.25-.14,1.06-.45.77.53,0,.13.06.19.18.19a2.78,2.78,0,0,0,1.8-.19c.37-.28,1,.18,1.13-.44.05,0,.12.06.14.1.15.28.35.12.55.09.57-.09,1-.64,1.6-.57a2,2,0,0,0,.88-.06,3.2,3.2,0,0,1,1.75-.25c.51.11.95-.18,1.48-.15.69,0,1.38.13,2.07.15.32,0,.61,0,.69.4,0,.18.09.09.2.07a4.09,4.09,0,0,1,2.27.24c.08,0,.12.17.24.06s.26-.15.23-.34a.55.55,0,0,0-.62-.51c-.43.11-.68-.37-1.09-.21-.12,0-.15-.18-.2-.29s.09-.16.16-.22c.24-.17.57-.14.78-.35-.15-.29-.41-.18-.63-.2a7,7,0,0,1-1.9-.18,8.52,8.52,0,0,0-3-.18c-.6,0-1.2.14-1.79.12a5.67,5.67,0,0,0-2.38.37c-.7.28-1.59.53-2.12.06S56.94,78.93,56.33,78.91Zm77,22.66c.38-.2.2-.45.08-.69s-.53-.62.1-.83c.08,0,.07-.08,0-.13s-.12-.2-.26-.13-.29.18-.43.27-.59.26-.68,0a.84.84,0,0,0-.93-.47c-1.15.14-1.49-.88-2.16-1.4-.09-.07-.12-.22-.28-.19s-.08.13-.08.23c0,.27-.19.07-.3.1.12-.33-.81-.17-.31-.67-.21-.11-.24-.6-.62-.32-.63.46-1-.08-1.28-.42a2.28,2.28,0,0,0-1.77-.73,4.71,4.71,0,0,1-1.87-.06c-.11,0-.22-.17-.34-.09s0,.22,0,.34c.17.8,0,1-.86.89-.35,0-.59-.47-.83-.33-.5.3-.93-.1-1.46.09.42-.52.29-.82-.36-1.11-.17-.07-.3-.08-.37.08s.06.22.18.27c.48.2.37.48.07.72-.14.11-.22.13,0,.22s.17.21.22.36c.13.4.33.78.84.68.29,0,.27.25.46.32.05-.27-.1-.53.12-.79.27.33.41.73.75,1,.13.09.25.18.4.08s.1-.11.09-.14-.16-.15-.3-.16-.33-.09-.22-.32.11-.23.33-.15c.39.14.85.07,1.19.38.11.1.22.07.21-.06,0-.28.18-.22.35-.3a5.6,5.6,0,0,1,2.15-.26c.48,0,.73,0,.82.49.05.28.12.26.41.25.54,0,1.16-.26,1.7.24a2.13,2.13,0,0,0-1.26,1.13.35.35,0,0,0,.1.4c.09.06.21.13.29.11s0-.25,0-.38,0-.33,0-.44a1.58,1.58,0,0,1,2.22-.15c.09.09.06.22.25.3.78.32,1.61.44,2.41.68A1.39,1.39,0,0,1,133.29,101.57ZM118.77,81.71c-.49.06-1,0-1,.69,0,.13-.46.13-.09.38.2.13.38.15.47-.06.17-.37.47-.29.69-.17a5.89,5.89,0,0,0,1.2.36c.33.12.17.93.82.56,0,0,.06.08,0,.11-.19.63.21.24.39.22s.39-.18.56.08.28.26.41,0,.15-.47,0-.51c-.55-.13-.7-.62-1-1a.58.58,0,0,0-.75-.16.62.62,0,0,1-.7,0A8.63,8.63,0,0,0,118.77,81.71Zm-88-7c-.22-.14-.23-.06-.26,0s-.13.18-.1.22a5.81,5.81,0,0,0,.66,1.24c.33.34,1.1.07,1.32.83.06.19.74.14.83.64,0,0,0,0,.06,0a3.06,3.06,0,0,1,1.32.76c.27.22.33,0,.35-.09s.32-.35,0-.46a4.57,4.57,0,0,1-2.08-1.73.94.94,0,0,0-.65-.39c-.49-.09-1-.22-1.23-.85A.45.45,0,0,0,30.81,74.72Zm49.82,9.2c.15.21-.1.59.31.66a10.49,10.49,0,0,0,1.24.15.89.89,0,0,0,.87-.93c0-.58-.5-.23-.78-.28a.33.33,0,0,1-.1-.06s0-.11,0-.12c.42-.29.17-.67,0-1s-.4,0-.6,0a1.49,1.49,0,0,1-.89,0c.14.17-.14.48.26.54s.32.49.28.76C81.18,84.21,80.88,83.74,80.63,83.92Zm27-20.09a.6.6,0,0,0-.67-.2,2.2,2.2,0,0,1-1.69-.17c-.46-.34-.41,0-.51.26,0,.13.29.42-.14.4s-.41.32-.31.59c.24.67.92.87,1.39,1.28-.41-.47-.35-.67.37-1.09-.13-.17-.53-.11-.42-.45s.38-.25.6-.26A2.16,2.16,0,0,0,107.6,63.83Zm-29.72,22c.12-1,.45-.4.69-.43.62-.08,1.18.8,1.82.1a.21.21,0,0,1,.12,0c.43.34,1,.18,1.5.49.07-.54-.05-.83-.6-.59-.38.17-.52,0-.67-.31-.25-.47-.54-.48-.85,0,0,.06,0,.18-.09.19s-.06,0-.08-.07a1,1,0,0,0-1.14-.4c-.52.1-1-.25-1.55-.12-.19,0-.43,0-.38.31a.3.3,0,0,0,.46.19C77.56,84.92,77.7,85.21,77.88,85.86Zm35.43-6c0,.34,0,.55,0,.76-.09.72.1.89.84.72a.35.35,0,0,1,.48.27c.13.32.25.7.69.29.09-.08.19,0,.29,0a.32.32,0,0,0,.48-.16c.07-.24-.15-.32-.37-.42A7.09,7.09,0,0,1,113.31,79.9Zm-57,7.69c.16-.25.1-.58.45-.39s.7.42.95-.13c0,0,.13-.06.16,0,.57.46.59-.11.77-.37a5.1,5.1,0,0,1-1,0c-.16,0-.42-.08-.37-.32.11-.51-.3-.52-.58-.72-.19.54.21,1.24-.55,1.52A3.29,3.29,0,0,0,56.33,87.59Zm83.16,2a3.74,3.74,0,0,0,.94.76c.32.24.75.36.9.8-.31.17-.43-.41-.81-.06.51.14.76.61,1.27.7.14,0,.29.3.41,0a.4.4,0,0,0-.2-.49,1,1,0,0,1-.51-.45,1.44,1.44,0,0,0-1.13-.87c-.19,0-.44-.1-.12-.34.1-.08.19-.19.08-.32s-.2,0-.29,0S139.69,89.46,139.49,89.54Zm23.74,17.29c-.45-.24-1-.19-1.25-.74-.27-.71-.47-.77-1.18-.28.3.34.72.54,1,.94s.64.37,1,.47C162.88,107.25,163.06,107,163.23,106.83ZM52.61,86.43c-.4-.16-.76.11-1.07-.08s-.58.05-.88.16-.44,0-.4.42c0,.22,0,.42.17.58a.1.1,0,0,0,.16,0c.21-.25-.25-.31-.14-.59C51.12,86.71,52,87.45,52.61,86.43Zm68.87,6.62c0-.52-.31-.92-.7-.86-.58.09-.42.46-.3.83a1.58,1.58,0,0,1,0,.43c0,.09-.09.19.08.24A.86.86,0,0,0,121.48,93.05Zm-27-17c.62-.18.62-.18.79.37s.19.65,1,.36c-.11-.17-.4-.16-.41-.42s.5.11.4-.32-.32-.17-.44-.15-.25,0-.37-.11C95.12,75.43,94.85,75.5,94.5,76.09Zm-2.69,2.16c.06.2.13.43.2.64a.4.4,0,0,0,.43.29c.29,0,.22-.15.24-.32s.2-.07.31,0c.31.09.42-.17.53-.34a.33.33,0,0,0-.18-.48.41.41,0,0,0-.52.23c-.23.4-.43.31-.59,0a.26.26,0,0,0-.3-.18C91.77,78,91.8,78.13,91.81,78.25Zm14.57-11.64c.23,0,.26-.4.55-.18a.13.13,0,0,0,.19-.15c-.17-.55.25-.66.6-.81.53-.24.59-.64.14-1.13C107.74,65.33,106.43,65.54,106.38,66.61ZM55,82.23a1.28,1.28,0,0,1-.86.17c-.17,0-.37-.05-.33.21s-.3.49.07.66a1.15,1.15,0,0,0,.92.11c.27-.11.1-.41.13-.63S54.92,82.45,55,82.23Zm22.78-.94c0-.05-.07-.11-.11-.15-.45-.55-1.26-.25-1.74-.74-.06-.06-.23,0-.22.15s.11.43.16.43C76.49,81,77,81.77,77.73,81.29Zm60.52,15.63c.33-.28.65-.06,1,0s.48.26.54-.07.05-.68-.43-.7S138.29,96.15,138.25,96.92ZM87.89,85.76a.47.47,0,0,0-.64.19c-.13.18.11.25.21.32s.59.19.62,0c.1-.47.76-.52.7-1.06,0-.15.32-.34,0-.45s-.28.17-.36.36S88.3,85.85,87.89,85.76ZM60.18,84.22c-.06-.2-.13-.39-.19-.58s-.35-.17-.53-.21a.22.22,0,0,0-.29.17c0,.17,0,.4.22.47s.17.16.26.24c.34.31.74.11,1,0s-.07-.35-.1-.54C60.37,83.83,60.43,84.12,60.18,84.22ZM71.94,80.4c.15.36.49.48.3.74s-.12.37.06.58.52.08.77.13.22-.22.24-.39,0-.29-.08-.27C72.62,81.32,72.48,80.68,71.94,80.4Zm70,8.95a1.23,1.23,0,0,0-.31-1.43c-.19-.16-.33-.25-.54.08s-.1.56-.29.77-.39-.06-.27.21.23.28.43,0,.32.11.47-.07c0,0,0-.13-.09-.16a.27.27,0,0,1-.13-.42c.05-.1.1-.23.22-.19a.5.5,0,0,1,.34.35C141.77,88.79,141.83,89,141.9,89.35ZM121.37,70.64c-.07.34-.1.66.36.59.22,0,.6,0,.48-.43-.07-.29.06-.72-.38-.72C121.68,70.08,121.09,70.14,121.37,70.64Zm1.81,2.2a1.53,1.53,0,0,1-.45.33c-.38.12-.28.27,0,.39a2.51,2.51,0,0,1,1,.68c.1.12.23.07.34,0s.11-.19,0-.28-.12-.69-.58-.28c0,0-.43-.22-.19-.51S123.41,72.88,123.18,72.84ZM68.66,77.38c.29,0,.36.31.59.37s.31.08.42,0a.52.52,0,0,0,.12-.35c0-.19-.21-.17-.35-.18a1.06,1.06,0,0,1-.76-.25c-.19-.2-.29,0-.39.1a.39.39,0,0,0-.06.42C68.39,77.7,68.52,77.33,68.66,77.38Zm-13,11.42c.27-.29-.22-.39-.15-.66a.55.55,0,0,0-.37-.75c-.4-.14-.48.18-.72.27.17.27.56-.08.59.27A1.19,1.19,0,0,0,55.66,88.8Zm8.7-6.53a2.77,2.77,0,0,1,.72,1.26,1.21,1.21,0,0,0,.23-1.22C65.14,82,64.72,82.16,64.36,82.27Zm58.75,3.18c0,.52,1,.52.44,1.22.32-.16.72.07.82-.3a.53.53,0,0,0-.41-.61C123.65,85.75,123.45,85.53,123.11,85.45Zm-57.24-9.3c-.31.42-.27.78.21,1,.19.09.56,0,.51-.18A1.1,1.1,0,0,0,65.87,76.15ZM129.41,84c0-.2-.11-.19-.21-.18-.41.06-.48.47-.7.72.16.12,0,.41.24.46a.38.38,0,0,0,.38-.19C129.28,84.53,129.16,84.17,129.41,84Zm-63.52-.77c.09.45.46.63.75.88.11.1.23.13.33,0a.2.2,0,0,0-.06-.36c-.36-.17-.41-.47-.38-.91A.77.77,0,0,1,65.89,83.21ZM55.46,84.83a.68.68,0,0,0,.27-.35c.1-.22.3-.43.08-.7s-.48.3-.72,0c-.22.28.15.38.18.58A.65.65,0,0,0,55.46,84.83Zm52.45-5.19a.31.31,0,0,1,.29-.22c.25,0,.53-.14.41-.41s-.32,0-.46.13-.23,0-.34,0-.2,0-.23.12c-.09.3.39.86.7.8.13,0,.34,0,.31-.25s-.2-.07-.31-.08S108,79.76,107.91,79.64Zm26.2,17.26c.38-.48.51-1.19,1.29-1.3a.49.49,0,0,0-.58-.19C134.08,95.63,134.45,96.44,134.11,96.9Zm3.25-12.09c-.24-.31-.35-.73-.7-1-.09-.07-.19-.22-.32-.09a.27.27,0,0,0,0,.35c.23.3.47.6.72.88S137.29,85,137.36,84.81Zm-83.1,3c-.29.24-.09.58-.21.76-.29.45.07.56.31.71s.39,0,.25-.18C54.27,88.74,54.46,88.27,54.26,87.81Zm-8.2-9.56a1.55,1.55,0,0,0-.33-1c-.13.3-.69,0-.63.31S45.66,78.06,46.06,78.25Zm27-.41c.08.41.3.45.49.55a9,9,0,0,1,.86.48c.07,0-.2.31.12.28A.23.23,0,0,0,74.7,79a.28.28,0,0,0-.22-.34A4.9,4.9,0,0,1,73,77.84Zm30.64-16.12a1,1,0,0,0,1.38.08C104.59,61.4,104.15,61.55,103.65,61.72Zm38.42,30.67a1.86,1.86,0,0,0,1.87.87Zm-6,7.55c0-.26-.21-.3-.38-.33s-.48.09-.45.3a.68.68,0,0,0,.43.46C135.9,100.42,136,100.13,136.05,99.94ZM103,77.27a3.57,3.57,0,0,1,1,.23c.11,0,.26.06.32-.09s0-.22-.08-.21C103.91,77.25,103.48,76.53,103,77.27Zm36.71,9.15,0,0a.46.46,0,0,0-.68,0c-.16.15-.6.15-.44.47a.34.34,0,0,0,.6-.11c.06-.13.23,0,.35-.07A.26.26,0,0,0,139.75,86.42Zm-79-10.19c-.29,0-.32.19-.33.38s-.09.41.23.39.55,0,.57-.28S60.93,76.34,60.73,76.23ZM36.22,78.68c-.21.42.21.77,0,1.14-.06.11.11.17.21.13s.43-.11.49-.24-.2-.25-.31-.37A4.8,4.8,0,0,1,36.22,78.68Zm86,6.75c-.18-.17-.48.07-.55-.24,0-.16-.08-.4-.29-.3s0,.34-.07.52,0,.32.27.32A.75.75,0,0,0,122.26,85.43Zm2.46,9.75c-.14,0-.29-.1-.34.07s.12.2.23.25l.86.37c.11,0,.2.07.27-.05s.1-.2,0-.2C125.31,95.63,125.12,95.14,124.72,95.18Zm-73.18-11c.34,0,.48.36.74.32s.38.14.41-.1-.21-.05-.31-.11a.39.39,0,0,1-.21-.29c0-.13,0-.35-.19-.3S51.81,84.11,51.54,84.21ZM47.2,82.4c.46.2.61.66.89,1,.09.12.19.17.31.06s-.06-.16-.07-.24C48.22,82.6,47.74,82.47,47.2,82.4Zm22.23,3.13c0-.17.16-.49,0-.53a2.14,2.14,0,0,0-1,.13c-.11,0,0,.22.17.24A7.88,7.88,0,0,0,69.43,85.53ZM149,103.88c.13,0,.3.16.27-.07s-.42-.43-.65-.61-.2.06-.21.19C148.34,103.86,148.65,103.89,149,103.88ZM108.72,75.24c-.07-.17,0-.44-.21-.37s-.67,0-.74.41c0,.09.07.35.16.25S108.53,75.48,108.72,75.24ZM57.09,84.05c.26,0,.3-.23.34-.4s-.12-.34-.34-.32-.41,0-.38.3A.51.51,0,0,0,57.09,84.05Zm46.46-9.54a1.84,1.84,0,0,0-.66-.49.18.18,0,0,0-.25.18.5.5,0,0,0,.53.49C103.31,74.71,103.49,74.8,103.55,74.51Zm43.87,29.38c-.25.6,0,1,.53,1A1.4,1.4,0,0,0,147.42,103.89ZM33.61,74.45c.31,0,.72.07.77-.17s-.4-.45-.65-.68C34,73.92,33.7,74.15,33.61,74.45ZM152.9,108.1c-.46-.26-.75-.17-.85.39A.65.65,0,0,0,152.9,108.1ZM112.46,93.8l.48.27a.39.39,0,0,0,.5-.12.26.26,0,0,0,0-.34c-.13-.15-.3-.08-.46,0S112.7,93.72,112.46,93.8ZM117.38,90c-.44.69-.44.69.63.85C117.91,90.5,117.1,90.72,117.38,90ZM54.55,78.37c-.34,0-.31.34-.37.54s.17.31.28.45.16,0,.22,0,0-.28-.11-.4S54.59,78.57,54.55,78.37Zm6.61-28.72c0-.53.21-.65.53-.71.12,0,.3-.11.19-.31s-.33-.26-.41-.12C61.31,48.81,60.84,49,61.16,49.65Zm51.48,32.22c0-.55-.36-.66-.68-.79a.25.25,0,0,0-.33.19c0,.2.12.18.24.18C112.17,81.46,112.34,81.71,112.64,81.87Zm46.78,19.34c-.09.26.08.46,0,.7s.17.23.33.21.34-.19.24-.27S159.83,101.26,159.42,101.21ZM116.2,91.55c-1,0-1,0-1,.84A2.68,2.68,0,0,1,116.2,91.55Zm7.46-9.22a2.68,2.68,0,0,1,.18.2.66.66,0,0,0,.64.3c.06,0,.17-.12.16-.15-.08-.25-.36-.24-.53-.37A.3.3,0,0,0,123.66,82.33ZM114.3,93.69c.13,0,.39,0,.35-.22s-.27-.26-.45-.26-.39.11-.37.27S114.12,93.65,114.3,93.69Zm49.43,14c-.17.37-.57.72-.23,1.26C163.87,108.52,163.66,108.07,163.73,107.66Zm-7-8.72c.52.1.15,1.14,1,.94C157.36,99.56,157.34,99,156.73,98.94ZM58.1,75.16c-.07-.24-.27-.21-.42-.18s-.49,0-.48.36c0,.17.18.19.28.13S58,75.46,58.1,75.16Zm70.41,2.66c-.19,0-.2.09-.21.22a.42.42,0,0,0,.33.46.27.27,0,0,0,.35-.24C128.94,78,128.71,77.92,128.51,77.82ZM95.06,91.62c-.19.42.09.71.07,1s.21.2.32.06.34-.11.18-.18C95.24,92.36,95.27,92,95.06,91.62Zm-53-8.42c-.19,0-.35,0-.35.23s.19.33.39.31.34,0,.33-.23S42.23,83.22,42.06,83.2ZM149.91,93.87a1.09,1.09,0,0,0-.52-.75.2.2,0,0,0-.28,0c-.09.09-.09.2,0,.25S149.54,93.85,149.91,93.87ZM95.19,73.27a1,1,0,0,0,.83-.14c.09-.08-.08-.3-.2-.33C95.47,72.71,95.32,73,95.19,73.27Zm24.52,10.9a.21.21,0,0,0,.26.12c.17,0,.44-.07.42-.29a.36.36,0,0,0-.4-.32C119.8,83.71,119.7,83.83,119.71,84.17ZM106.14,69.43c0,.17.07.26.18.21s.58.27.73-.17c.06-.18,0-.28-.2-.29A1.06,1.06,0,0,0,106.14,69.43ZM53.5,83.58c-.29.43-.18.78-.25,1.1,0,.14.09.24.23.24s.14-.14.13-.24C53.59,84.35,53.55,84,53.5,83.58ZM53.19,50.5c-.46.06-.58.31-.55.58s.24.34.36.28C53.34,51.17,53,50.82,53.19,50.5ZM119.3,69.75c.23.06.23.25.32.36s.39,0,.59,0,.14-.11.09-.2-.29-.16-.44-.2A2.08,2.08,0,0,0,119.3,69.75Zm11.44,25.4c.09.28.16.58.55.56.14,0,.2-.1.11-.21S131.16,94.9,130.74,95.15Zm-6.4,3.9c.15,0,.46.1.42-.2s-.41,0-.6-.16-.2.14-.2.18C124,99.17,124.2,99,124.34,99.05Zm31.54.34c-.11.12-.34.19-.28.37a.51.51,0,0,0,.46.37c.24,0,.13-.21.12-.33A.39.39,0,0,0,155.88,99.39ZM82.64,79a3.29,3.29,0,0,0-.38-.53c-.36-.39-.38,0-.31.21A.47.47,0,0,0,82.64,79Zm1.09-2.76c.17-.35-.19-.28-.33-.35s-.23.07-.19.19.11.48.38.5S83.76,76.41,83.73,76.26Zm46.13,19.52c.36.15.52.46.85.35,0,0,.09-.25.06-.28A.77.77,0,0,0,129.86,95.78Zm-54.38-16a.47.47,0,0,0-.38-.38c-.17-.06-.22,0-.23.2s0,.4.26.39S75.43,79.93,75.48,79.75Zm23,14.45a.42.42,0,0,0-.45-.43c-.12,0-.35,0-.28.15a1.61,1.61,0,0,0,.55.48C98.36,94.46,98.41,94.31,98.43,94.2Zm16.29-10.53c.31.07.4.5.77.38.14,0,.05-.19,0-.29S115.05,83.29,114.72,83.67Zm-35.85-.19.84.52c.17.11.23,0,.26-.14s0-.33-.14-.27C79.5,83.72,79.25,83.39,78.87,83.48ZM70.63,85.4c0,.28.23.37.39.47s.22-.1.23-.21c0-.27-.2-.35-.4-.41S70.65,85.29,70.63,85.4Zm57.84,6c-.16.12-.08.2-.09.28a2.13,2.13,0,0,1,0,.25c0,.27.27.45.37.24S128.73,91.65,128.47,91.43Zm10-1.92a1.21,1.21,0,0,0-.76-.63c-.08,0-.12.11-.09.19a.82.82,0,0,0,.73.51Zm-32.14-11c0-.18-.13-.24-.29-.26s-.4,0-.42.26.18.25.35.28S106.27,78.73,106.34,78.56Zm-41.83-4c0,.28.3.26.46.34a.24.24,0,0,0,.37-.21c0-.62-.49.12-.61-.24C64.7,74.42,64.55,74.46,64.51,74.61Zm-1.83,8.2-1,.14a.18.18,0,0,0-.17.22c0,.1.14.17.17.13C61.9,83,62.34,83.2,62.68,82.81Z" transform="translate(-7.35 -4.96)"/><path d="M27.81,26.76c.17.12.2.24,0,.41a2.75,2.75,0,0,0-.55,1.26c-.42,0-.29-.45-.56-.68a15.76,15.76,0,0,0-.88,1.67,2.75,2.75,0,0,1-.55.74c-.32.4-.59,0-.82-.19s-.2-.33-.39-.13,0,.3.17.37c.43.22.33.61.3,1a2.52,2.52,0,0,1-1.08,1.67c-.2.16-.51.34-.77.52s-.43.74-.8,1-.15.26.26.55a1.87,1.87,0,0,1-.47.37c-.33.25-.74.43-.78.94,0,.28-.3.39-.5.55s-.44.22-.42.5.09.32-.13.34a.5.5,0,0,1-.49-.19,3.1,3.1,0,0,1-.68-2,13.55,13.55,0,0,1,.5-2.72c0-.17.14-.46.4-.43.49.06.3-.33.56-.59-.43.06-.28.49-.61.46-.47-1.26.44-2.11,1-3,.18-.31.27-.88.89-.73.13,0,.13-.09.13-.17a3.9,3.9,0,0,1,1-2.1c.11-.15.14-.35.25-.5s.17-.43.41-.41.38.07.4-.23-.15-.37-.41-.32c.8-.67.95-1.67,1.49-2.61,0,.41-.11.72.17,1,.2-1,1.08-1.62,1.46-2.51.05-.12.32-.21.49-.21s0,.22.13.33a.53.53,0,0,0,.26-.67c.45.2.57-.45,1-.38A.58.58,0,0,0,29,19.3a.34.34,0,0,1,.4-.13c.28.12,0,.22,0,.33s0,.13.08.13l.19,0c-.2-.59.54-.65.61-1.09.27.3.55.23.52-.14s.27-.45.51-.56.58-.07.8-.31.31,0,.28-.26A.31.31,0,0,0,32.1,17c-.22-.07-.24.09-.29.23s-.08.18-.15.2a1.77,1.77,0,0,0-1.44,1.11c-.26-.13-.54-.36-.7.11a.22.22,0,0,1-.14.11,2.46,2.46,0,0,0-1.06.35c-.26.12-.73.14-.85.24-.44.33-1,.36-1.41.68s-.71.52-1.08.76c-.13.09-.28.23-.46.13s-.07-.15-.07-.15a2.87,2.87,0,0,1,.39-.2c.11,0,.26,0,.32-.21-.35,0-.68,0-.85.3a3.22,3.22,0,0,1-1,1.1c-.31.22-.46.63-1,.51a.35.35,0,0,0-.31.19c-.35,1-1.28,1.5-1.73,2.39-.12.23-.22.57-.6.28a.15.15,0,0,0-.16,0c-.4.33-.39.33-.83.17.27.36.09.75.35,1.27,0-.62,0-1.08.72-1-.7,1.31-1.4,2.59-2,3.9-.13.26-.4.37-.5.63s-.15.14-.07.37c.16.42-.15.54-.59.27a.77.77,0,0,1-.18,1,3,3,0,0,0-.84,1.65c-.11.34-.17.68-.59.81-.13,0-.35.2-.21.39.36.51.1,1-.07,1.45-.44,1.19-.69,2.42-1.05,3.63-.23.76-.41,1.55-.66,2.3a18.63,18.63,0,0,0-.76,2.72,27.37,27.37,0,0,1-.48,3,6,6,0,0,1-.34.92,14.2,14.2,0,0,0-.3,1.42A3.56,3.56,0,0,0,11,51.45c0,.23,0,.47-.23.6a.24.24,0,0,0-.12.37c.3.45.16.93.16,1.42,0,1.19-.31,2.41.24,3.56.17.36-.09.66,0,1,.17,1.08.31,2.16.52,3.23.05.25-.06.45-.05.68a1.28,1.28,0,0,0,.31.86c-.54.26,0,.55,0,.82,0,1.41.87,2.62.8,4,.34.1.32-.25.58-.41-.18.65-.06.88.58.68.12,0,.54.39.86.56a5.76,5.76,0,0,1,1.85,1.76c.19.25.66.28.54.8,0,.14.47.43.57.44.77.12.91.53.75,1.19,0,0,0,.08.05.12.2-.4.2-.4.54-.1s.76,1,1.25,1.48a11.2,11.2,0,0,0,1.51,1.13c.54.35.86.89,1.4,1.22.28.17.57.43.85.64.9.67,1.83,1.29,2.68,2,.07.06.09.17.18.34l-1.1-.34c-.22-.07-.44-.15-.65,0,0,0,0,.11,0,.11.23.13.47.34.71.33s.47-.32.52,0-.45.25-.67.42a.42.42,0,0,1-.49-.15c-.1-.14-.28-.06-.32.13s.08.19.21.12.2,0,.23.14c.23.77.55,0,.81,0,0-.5.36-.31.65-.27s.6.34.45-.31c-.07-.31.32-.27.5-.12.55.45,1.24.63,1.79,1a5.88,5.88,0,0,1,1.57,1.21c.31.43.84.21,1.12.63a5,5,0,0,0,1.76,1.46c.47.28-.31.34-.05.6,0,0,0,0,.05,0,.75-.46,1.25-.15,1.62.54,0,.06.1.15.12.14.43-.17.71.36,1,.3.73-.14,1,.52,1.46.73.09,0,.22.2.11.31s-.19.25,0,.17c.69-.28,1.16.26,1.58.51A6.82,6.82,0,0,1,42,90.21a.92.92,0,0,0,.55.34c.64.2,1.06.87,1.81.82.56,0,.82.51,1.06.8.42.51.9.38,1.32.36a2.06,2.06,0,0,1,2,1.35c.08.28.39.26.59.24s.41,0,.44.31c0,.08-.14.21,0,.25a.24.24,0,0,0,.31-.15c.27-.74.64-.21.91,0,.1.07,0,.23.29.12s.79-.25.9.39c.05.3.76.18,1-.18a2.23,2.23,0,0,0,.19-.51c.2.11.2.28.18.46s0,.29.13.38c.3-.17,0-.39.07-.56.39-.07.78-.21,1.14.16s.69,0,1,0-.11-.28,0-.47c.33.13.33.72.87.64-.24-.56.09-.6.5-.49s.59.23.89.34.37.26.57,0c.1-.15.25,0,.37.1s.39.13.45,0c.17-.4.37-.45.71-.2,0,0,.29,0,.28-.19a.74.74,0,0,0-.3-.66c-.28-.16-.48-.31-.13-.61.16-.13.25-.22.33.07,0,.11.21.17.33.25,0-.26.46-.15.42-.47s.05-.38.34-.39c.67,0,1.35-.07,2-.11a1,1,0,0,0,.25,0c.37-.11.73.41.75.34.16-.55.54-.14.76-.23.48-.21,1.06-.11,1.43-.68s.69-.45,1,.28a.72.72,0,0,1,.51-.68,3.15,3.15,0,0,1,1.46-.36c.25,0,.39.44.25.68-.22.39.1.42.27.47s.3-.18.27-.37c-.09-.62.32-.63.74-.61.23,0,.49.18.33-.31-.07-.22.13-.52.49-.6s.64-.13,1-.23.65.18.62.73a1.29,1.29,0,0,1,1.38-.73s.08.05.1,0c.92-.57,1.66.27,2.51.33.39,0,.31.65.73.68.18-.23-.2-.56,0-.64s.53-.14.81-.24.15.2.11.35.09.27.2.37.15,0,.21-.07a.23.23,0,0,0,.1-.32c0-.15-.39-.29-.11-.46s.3.2.44.33a1.68,1.68,0,0,1,.18.23c.19-.33.6-.44.71-.83,0,0,.1-.13.14-.12,1.17.21,2.31-.59,3.46-.2a12.91,12.91,0,0,1,2.9.84c.53.32,1.19.45,1.61,1a.26.26,0,0,0,.23.06c.61-.14,1,.12,1.14.75a2.41,2.41,0,0,1-1.8-.2c-.22-.11-.44-.22-.54.14s-.24.14-.4.11a1.62,1.62,0,0,0-1.6.3,1.53,1.53,0,0,1-.94.32,20,20,0,0,0-3,.45c-.1,0-.29,0-.31,0-.26-.52-.91-.29-1.25-.71a1.6,1.6,0,0,0-2.19-.34c-.13.07-.18,0-.26-.07A1.58,1.58,0,0,0,77.31,92a3.48,3.48,0,0,0-1.16,0c-.13,0-.29,0-.42.1-.49.37-.86.37-1-.57-.33,1-1.07.92-1.63,1.07a15.61,15.61,0,0,1-1.54.34c-.08,0-.2.11-.23.08-.68-.51-.72.33-1.1.48,0-.28,0-.58-.48-.46-.16,0-.17-.07-.17-.18a2.26,2.26,0,0,0,0-.26c0-.22-.11-.5-.35-.45s.16.31-.06.5a1,1,0,0,0-1,.08c.21.28.33.78.86.3.09-.08.2,0,.26.09s0,.22,0,.22c-.46,0-.57.52-1,.68s-.55-.35-.82.06c-.06.09-.35.21-.53.36-.53.42-.54-.26-.85-.47-.1.67-.89.31-1.14.8,0,0-.12,0-.17,0-.24-.13-.49-1-.69,0,0,0-.13,0-.17,0-.23-.14-.44-.29-.58.11,0,.08-.16,0-.21,0-.19-.31-.31,0-.45,0-.43.28-.83.66-1.38.25-.1-.08-.17,0-.22.14a.7.7,0,0,1-1.07.29c-.57-.61-1.14-.21-1.67-.12a9,9,0,0,0-2.06.8c-.3.13-.58.22-.82-.17s-.29,0-.37.14-.2.66-.65.35c-.12-.08-.21,0-.25.11-.18.44-.5.28-.8.2.64-.53-.16-1-.08-1.49-.32.53,0,1,.09,1.51a3.31,3.31,0,0,1-1.34-.33,1.26,1.26,0,0,0-1.08-.07A.92.92,0,0,1,50,96.45a.33.33,0,0,0-.49,0c-.11.39-.4.22-.57.18-.43-.08-.85-.44-1.22.13-.06.09-.27,0-.42-.07s-.66-.48-.54.25c0,.09-.06.09-.12.09s-.17-.06-.21-.18c-.1-.31-.17-.09-.38-.14s-.74.29-1,0-1-.55-1.24-1.13c-.06-.14-.2-.19-.29,0-.33.58-.51.46-.75-.09,0-.11-.32-.57-.77-.34-.14.07-.45-.16-.66-.3s-.12-.2-.23-.17a2.69,2.69,0,0,1-2-.48c-.45-.21-.82.18-1.23.26s-.58.08-.72,0c-.42-.37-1-.2-1.45-.72a2.39,2.39,0,0,0-1.48-.77c-.22,0-.4-.1-.41-.38a.62.62,0,0,0-.9-.53c-.42.21-.57-.24-.76-.19-.52.14-.46-.15-.54-.48s-.92-.44-1.35-.09c-.2.16-.4.33-.62.19a4.83,4.83,0,0,0-1.74-.46c-.25-.06-.29-.25-.31-.43a1.36,1.36,0,0,0-1.19-1.32c-.26-.05-.31-.09-.22-.36s.18-.68-.4-.57a.38.38,0,0,1-.4-.27c-.08-.42-.1-.85-.72-.77-.08,0-.07-.13-.08-.21a1,1,0,0,0-.49-.83.57.57,0,0,1-.28-.69c.08-.27.34-.24.54-.21a.46.46,0,0,1,.42.59c-.19.52.24.35.34.3.7-.37,1,.15,1.24.59a1.54,1.54,0,0,0,.83.7,5.77,5.77,0,0,1,1.61,1c.27.27.78.22,1.09.51.55.53,1.4.57,1.91,1.15.25.28.35.7.9.45.15-.07.31.24.37.45a.85.85,0,0,0,1.08.64c.58-.08,1.15.31,1.75.21,1.72-.3,3.12.66,4.64,1.15.36.11.79,0,1,.42.06.11.27-.07.39-.14s.15-.29.11-.46-.49-.38-.3-.74c0,0-.1-.09-.15-.08s-.16.12-.15.24-.05.25-.21.25-.18-.11-.17-.22-.29-.27-.31-.56-.57-.31-.67-.11c-.33.67-.57-.12-.84,0-.1-.77-.85-.63-1.3-.87a7,7,0,0,0-1-.51c-.19-.06-.26-.11-.13-.29s.05-.25-.06-.27c-.83-.18-1.05-1.11-1.8-1.44-.3-.13-.54-.61-.9-.9s-.62-.26-.92,0c-.16-.13,0-.21,0-.29a3.75,3.75,0,0,0-1.9-.88.79.79,0,0,1-.86-.46c-.14-.28-.39-.21-.61-.12A1.32,1.32,0,0,1,28,85.25c-.19-.23-.6-.08-.73-.45s-.62-.8-.74-1.34c-.07-.29-.26-.77-.79-.78-.37,0-.48-.42-.76-.6a12.61,12.61,0,0,0-2.1-1.16,3.43,3.43,0,0,0-1.24-.34c-.39,0-.21-.38-.33-.57s-.18-.28-.31-.21-.09.24,0,.4c.21.66.69,1.19.91,1.84.06.17.21.2.34.26s.31.11.22.31-.05.36-.28.38-.53-.07-.59.32.23.5.49.64c0,0,0,.07.07.15-.88,0-1.42-.68-2.1-1,0,0-.05-.09-.08-.09-.6-.09-.84-.43-.9-1,0-.4-.44-.38-.78-.33a1,1,0,0,0-.89-1.33c-.39,0-.92-1-.7-1.37.12-.21.14-.31-.08-.36-.46-.12,0-.57-.25-.71s-.56.2-.75-.13c-.42-.72-1.32-1.1-1.4-2.11,0-.2-.26-.9-.85-1-.07,0-.18-.25-.17-.37,0-.3.33-.19.56-.31-.3-.11-.45-.41-.8-.35,0,0-.14-.07-.14-.09.21-.83-.44-1.12-.93-1.5-.25-.19-.12-.23.06-.33a.31.31,0,0,0,.19-.37c-.06-.14-.21-.09-.34-.06-.35.08-.24-.16-.24-.34a1.35,1.35,0,0,0-.31-.74,6.76,6.76,0,0,1-.72-1.68,1.39,1.39,0,0,0-.47-.7A.91.91,0,0,1,9.59,67c0-.17-.13-.27-.24-.4-.31-.39-.71-.77-.44-1.37a1.07,1.07,0,0,0-.25-1,1.57,1.57,0,0,1-.28-1.19c0-.48,0-1,0-1.45,0-.32.05-.57.4-.68A1.83,1.83,0,0,1,8,59.07a2,2,0,0,0-.44-1.81c-.07-.07-.21-.11-.13-.23.54-.82,0-1.62,0-2.43,0-.16-.22-.42.24-.36s.39-.35.48-.62c-.26-.17-.38.33-.55.13s0-.46,0-.7c.06-.69,0-1.39,0-2.08,0-.51,0-1,.6-1.37.18-.1.57-.33.24-.75-.15-.19.13-.36.3-.49a1,1,0,0,0,.07-1.61c-.32-.32-.11-.74,0-1,.22-.61.57-1.16.24-1.85-.18-.37.26-.66.21-1.07,0-.16.1-.48.1-.71s0-.41.32-.36.33,0,.2-.32c-.21-.44-.19-.45.23-.72a.18.18,0,0,0,.07-.27c-.33-.36,0-.58.12-.88a8.4,8.4,0,0,0,.56-1.48c.08-.76.3-1.51.43-2.28,0-.17.27-.31.43-.49,0-.18-.23-.16-.35-.27s-.19-.33,0-.43c.54-.29.56-.77.54-1.28,0-.29.34-.4.34-.63s.62-.62.21-1.06c0,0,0,0,0-.06.82,0,.39-.74.61-1.09s.63-.77.58-1.26.68-.69.62-1.28c0-.2.36-.62.52,0a.24.24,0,0,0,.36.15c.17-.14,0-.18-.14-.24.4-.31-.41-.85.25-1.2a1.38,1.38,0,0,0,.22-1.3c-.12-.31.15-.69.32-1,.09-.16.4-.23.21-.51,0,0,0,0,0-.06.8.38.28-1.09,1.05-.76,0,0,.09-.08.1-.13A9.39,9.39,0,0,1,18,21.47c.2-.39.38-.63.79-.66A2.19,2.19,0,0,0,20.06,20c.33-.3.29-.52-.09-.72s-.49-.14-.17-.63a7.68,7.68,0,0,1,2.59-2.45,16.8,16.8,0,0,1,1.76-.77,4.31,4.31,0,0,1,.93-.34c.3-.06.54-.45.88-.06a3.85,3.85,0,0,1,.5-.57c.23-.24.35-.55.72-.21,0,0,.1,0,.11,0,.56-.78,1.7-.25,2.29-1a1,1,0,0,1,.76-.22c.72.07,1.34-.33,2.07-.29.4,0,.82-.34,1.23-.55.23-.12.28-.09.44.15s.25.29.42.21.28-.42.31-.63-.18-.14-.3,0-.16.07-.21,0,.07-.15.15-.22c.39-.33.8,0,1.36-.06a.59.59,0,0,1-.43-.58c0-.28.21-.43.38-.29s.35.34.5.14-.21-.32-.29-.53c.56-.17.92-.85,1.66-.57-.25-.61.33-.74.6-1a2.68,2.68,0,0,1,1-.56,1.37,1.37,0,0,0,.91-.61c.09-.17.24-.16.39-.14s.12.06.18.07c.34,0,.12-.71.61-.44.27.15.39.34.74,0a2.05,2.05,0,0,1,1.28-.39c1,0,1.81-.46,2.75-.54.39,0,0-.27,0-.43a.87.87,0,0,1,.64.17c.16.08.3.14.35,0,.12-.46.39-.45.71-.24a.34.34,0,0,0,.41,0A3.74,3.74,0,0,1,51,5.35a15.16,15.16,0,0,0,2,.11.27.27,0,0,0,.3-.18c0-.16.23-.41.3-.29s.54.06.44.42.14.25.26.24c.49,0,1,.22,1.47,0,.05,0,.17,0,.17,0,.29.7.58-.08.93,0-.4.54.07.52.35.51.48,0,.92.26,1.4.15.07.57.83-.1.89.49.91-.56,1.55.78,2.45.35.16-.08.25.12.37.2A20.49,20.49,0,0,0,67,9.48c.75.24,1.13.87,1.81,1.12.95.34,1.74,1.13,2.68,1.38.72.19,1,.81,1.72,1,.36.09-.15.34,0,.51.59-.16,1.5.43,1.93,1.28-.24,0-.42-.34-.62-.15s0,.38.1.61c-.39,0-.79-.32-1.07.21-.08.15-.46-.07-.66-.24s-.09-.25-.27-.22a2.33,2.33,0,0,1-1.18-.09.44.44,0,0,0-.58,0c-.08.06-.25.14-.27.11-.55-.64-.5.14-.8.36.18-.64-.23-.77-.65-1s-.5,0-.63.23-.35.49-.09.75c.07.07.19.3.35.13s-.06-.25-.35-.36a1,1,0,0,1,1,.37c.14.13.11.35-.15.34a.59.59,0,0,0-.57.18.16.16,0,0,1-.27,0c-.6-.89-1.65-.66-2.46-1,.22-.48.84.16,1.1-.42-.47,0-.88-.11-1.31.27-.26.23-.81-.07-1-.22-.35-.31-.58,0-.73.05s-.14.17-.29,0a2.53,2.53,0,0,0-2.11-.5c-.09,0-.26.15-.26,0,0-.69-.53-.39-.8-.34a2.12,2.12,0,0,1-1.13-.1,5.42,5.42,0,0,0-1.85-.34,17,17,0,0,1-1.77-.09c-1.23-.09-2.43.19-3.66.15.15-.43.49-.37.83-.36.17,0,.35,0,.45-.17a.18.18,0,0,0,0-.16.48.48,0,0,0-.49,0,.74.74,0,0,1-.68,0,1.66,1.66,0,0,0-1.38.34,4.17,4.17,0,0,1-1.26.51,14.16,14.16,0,0,1-2.26.19c-.31,0-.74.45-.89-.22-.28.24-.68.15-1,.34a1.17,1.17,0,0,1-.9.21c-.58-.12-1.18.14-1.76,0-.31-.09-.26.19-.24.29.09.52.07.87-.6.55-.13-.06-.26.06-.31.17a.21.21,0,0,0,.12.27c.17.09.19-.14.25-.15a.49.49,0,0,1,.59.17c.07.13.12.15.23.06.84-.74,1-.77,2.07-.34-.32.23-.73.33-1,.68-.07.1-.14.28-.26.25-.88-.21-1.27.9-2.12.77-.1,0-.07.11-.07.2,0,.28-.13.37-.4.35a.7.7,0,0,0-.35.06c-.1.78-.81.39-1.2.61s-.3-.39-.54-.52c-.19.18-.05.31,0,.46s.17.35-.21.41-.09.38-.06.6c-.27.09-.4-.22-.63-.21-.06.29.07.69-.42.76-.21,0-.22.24-.31.37s-.14.29-.3.3c-.85.09-1.32.85-2,1.2a2.47,2.47,0,0,0-.91.58c-.06.08-.13.11-.21.06a.17.17,0,0,1-.09-.21c0-.12.23-.28,0-.36s-.33,0-.39.27-.48.07-.09.37c.14.11.09.63-.23.56-.6-.12-.7.32-.9.64a1.12,1.12,0,0,1-.56.47c-.22.09-.32,0-.32-.21s.16-.43-.16-.41c-.08,0-.2.33-.19.51A1.15,1.15,0,0,1,30,25c-.58,0-.65.56-.77.85a1.62,1.62,0,0,1-1.43.89c0-.1.08-.26,0-.29-.85-.28-.26-.64-.05-.95s.05-.21-.05-.38c-.32-.55-.64-.2-1-.1-.11,0-.31.08-.17.21s-.2.36.18.34.49.24.37.47c-.23.45.06.46.35.53C27.56,26.63,27.74,26.57,27.81,26.76ZM15.87,74.14c-.41-.43,0-.53.11-.75s.6-.59,0-1c-.23-.14,0-.28.11-.41.17-.31.06-.68-.23-.59-.55.17-.38-.3-.55-.48l-.44.38.38.34c.23.2.54.25.15.73C14.81,73.17,15,73.7,15.87,74.14Zm44.3-62.31c.91.84,1-.32,1.49-.59.16-.09.08-.15,0-.23a1.41,1.41,0,0,0-1.34-.6c.44.75-.23.52-.49.56s-.3.07-.32.21.17.15.27.21a.62.62,0,0,0,.31,0c.24,0,.65,0,.62.24C60.72,12.13,60.34,11.47,60.17,11.83ZM33.92,19.14c-.17,0-.36.21-.51,0s.1-.31.17-.44.12-.21,0-.33a1.12,1.12,0,0,0-1-.15c-.29.09-.16.52-.18.81s.36.27.43.49a.51.51,0,0,0,.69.37A.65.65,0,0,0,33.92,19.14ZM18.75,76.81a1.76,1.76,0,0,0,.2,1.68s0,0,0,.06c.05.17.11.37.33.24a.35.35,0,0,0,.11-.54s-.11,0-.17-.08-.05-.07,0-.12c.43-.27.16-.51-.1-.61S18.91,77.07,18.75,76.81ZM55.26,10.3c.35.19.8,0,.83.46,0,.06.16,0,.22,0,.32-.37.62-.29.87,0,.24-.14,0-.4.29-.55.09.45.46.61.83.77-.09-.61-.72-1.14-1.08-.85s-.52,0-.74-.12-.15-.38-.29-.13S55.64,10.15,55.26,10.3Zm-.33-3c.25.57.86.62,1.15,1.05.09.14.27-.06.38-.12s.11-.27.07-.41-.17-.12-.26,0c-.28.21-.37,0-.35-.19.1-.69-.11-.71-.59-.33C55.25,7.28,55.09,7.25,54.93,7.26ZM17.4,27.91c0-.17-.24-.32-.41-.5s-.2-.05-.21,0a1.84,1.84,0,0,1-.42.89.24.24,0,0,0,.17.35C16.84,28.79,17.39,28.37,17.4,27.91Zm29.29-18c.57-.29.45-.64.12-.78s-.92-.25-1.37-.45c-.13-.06-.24,0-.27.2s0,.21.08.19c.4-.11.61.41,1,.25S47,9.32,46.69,9.87ZM23.15,29.43c-.11.21.06.28.08.39a2.12,2.12,0,0,1,0,.44c0,.76.08.82.77.57-.27-.1-.48-.29-.35-.57C24,29.69,23.55,29.59,23.15,29.43ZM51,6.31c-.41.64-1,.58-1.51.75-.17.06-.27.12-.28.27s.23.17.27.13c.35-.41.83-.16,1.22-.29S51,6.77,51,6.31ZM53.28,9.6a2.07,2.07,0,0,1-.75.3c-.11,0-.22.06-.23.18s0,.21.13.17c.46-.21.72,0,1,.36a.36.36,0,0,0,.49,0c0-.25-.26-.3-.36-.44A1.86,1.86,0,0,1,53.28,9.6Zm11.27.77c0-.26-.19-.38-.59-.62-.24-.15-.28,0-.33.11s-.38.22-.22.45.3.08.45,0,.49-.34.4.19c0,.09,0,.19.13.13S64.67,10.58,64.55,10.37ZM19.13,75.88c.22-.08.29-.14.36-.13.45,0,.46-.25.43-.56,0-.14.1-.37-.18-.38s-.29.34-.39.54A5.48,5.48,0,0,0,19.13,75.88Zm3.15,1.83c.18,0,.42.05.5-.18s.09-.38,0-.47c-.29-.34-.52.54-.88.08,0,0-.16.11-.16.22C21.76,77.75,22.06,77.68,22.28,77.71Zm21.4-64.78c.44.12.68-.41,1.1-.25.09,0,.11-.11.13-.18s-.08-.13-.14-.1c-.38.17-.17-.41-.46-.35s-.07.45-.28.62S43.72,12.71,43.68,12.93ZM26.15,82c.67-.13.73-.65,1-1.17C26.56,81.07,26.15,81.32,26.15,82Zm10.29,5.26c0-.16-.08-.23-.16-.19a5.29,5.29,0,0,0-.74.4c-.2.15-.19.32.08.42.11,0,.28.22.31.09A1.11,1.11,0,0,1,36.44,87.24ZM24.54,29.41c.15-.15.41-.16.38-.48,0-.13,0-.27-.12-.33s-.33.26-.6.17-.29.19-.36.37a.67.67,0,0,1,.65-.14C24.66,29.05,24.38,29.23,24.54,29.41ZM45.65,8c.35-.21.54-.15.73.1s.39,0,.54-.14a.27.27,0,0,0,0-.4c-.21-.19-.35,0-.44.16s-.24.08-.38,0S45.82,7.58,45.65,8Zm9.64,4.79c-.1-.37-.21-.73.1-1,.06-.06.11-.35-.21-.31s-.36.06-.3.29S54.92,12.5,55.29,12.79Zm-11.18-2.5c.1.27-.07.53.19.59s.53-.12.77-.25-.17-.2,0-.37-.1-.08-.18-.08-.11,0-.15.07C44.54,10.62,44.53,10.62,44.11,10.29Zm3.54-1.74c-.3.51.37.68.34,1.09.07,0,.2-.1.19-.13C48.13,9.14,48.22,8.69,47.65,8.55Zm20.8,2.93c.17.4.57.51.3.86a.23.23,0,0,0,.16.35.25.25,0,0,0,.29-.31A1.31,1.31,0,0,0,68.45,11.48ZM29.92,24.24c-.33.05-.7-.07-.89.32a.25.25,0,0,0,.07.34c.07,0,.22,0,.2-.07-.09-.46.12-.3.38-.23S29.91,24.43,29.92,24.24Zm-15.18,51a1.57,1.57,0,0,1,.72.23.33.33,0,0,0,.46-.19c.05-.11,0-.28-.14-.27S15.11,74.85,14.74,75.2ZM61.59,13.62c.16-.26.07-.49.08-.72s0-.26-.17-.29-.22,0-.29.07-.11.31,0,.35C61.48,13.13,61.36,13.44,61.59,13.62ZM27.25,18.81c-.32-.19.35-.57-.1-.66-.15,0-.37.25-.6.43Zm.52,63.13c0,.1,0,.23.14.2s.54-.08.6-.41-.13-.19-.28-.23C27.82,81.39,27.92,81.78,27.77,81.94Zm3.67-61.46c-.32-.06-.48.36-.76.08-.11-.11-.28-.17-.32.06a.25.25,0,0,0,.24.3A.69.69,0,0,0,31.44,20.48ZM63.31,92.94c-.16,0-.37-.08-.31.19s0,.37.24.38a.39.39,0,0,0,.42-.38C63.7,92.8,63.42,93,63.31,92.94ZM29.65,22.87c0-.21,0-.35-.28-.32a.26.26,0,0,0-.26.35c0,.15,0,.39.24.38S29.67,23.09,29.65,22.87Zm18.7,71.85c-.39.22-.67.43-1,.28-.11,0-.23.08-.23.23s.15.24.18.21C47.53,95.08,48.13,95.36,48.35,94.72ZM52.76,8.47a1.17,1.17,0,0,0,.16-.15c.1-.14.47-.15.24-.44-.11-.13-.1-.45-.34-.38s0,.36-.09.54S52.57,8.25,52.76,8.47ZM23,77.38c.1.39.17.69.46.84,0,0,.26-.18.24-.24C23.64,77.66,23.34,77.58,23,77.38ZM38.83,16.59c.51,0,.72,0,.74-.4s-.22-.46-.43-.64C39.4,15.94,39.46,16.26,38.83,16.59ZM54.47,9.78c0-.14,0-.27-.14-.23A.49.49,0,0,0,54,10c0,.19,0,.29.23.29C54.65,10.28,54.2,9.85,54.47,9.78ZM35.56,18.49A.43.43,0,0,0,35.5,18a1.35,1.35,0,0,0-.51-.19.48.48,0,0,0-.08.21c0,.26.18.21.34.26A1.74,1.74,0,0,1,35.56,18.49Zm7.3,74.7c0-.2-.08-.19-.22-.17s-.3.18-.31.39.06.24.22.23S42.83,93.4,42.86,93.19ZM38.08,88c-.13.4,0,.78-.48,1C38.43,88.89,38.49,88.73,38.08,88Z" transform="translate(-7.35 -4.96)"/><path d="M77.48,108.38a2.89,2.89,0,0,1-.45,1.55.2.2,0,0,0,0,.22c.21.61-.19.58-.57.51-.88-.15-1.2,0-1.44.8a.8.8,0,0,1-1,.58c-.27,0-.41,0-.51.23a1.25,1.25,0,0,1-1,.81,4.32,4.32,0,0,0-1.24.53,1,1,0,0,1-.89.06c-.41-.16-.34.44-.66.33s-.11-.58-.42-.72c-.16-.07-.73.43-.68.64s0,.38-.27.21c-.09,0-.2-.16-.28-.08-.45.47-.89-.09-1.31,0a5.87,5.87,0,0,1-1.37.35,2.56,2.56,0,0,1-1.31-.18l0,0c-.44.38-.79.11-1.16-.14-.15-.1-.22,0-.22.18a.19.19,0,0,1-.26.12c-.43-.27-1,.05-1.39-.27a.22.22,0,0,0-.29,0c-.46.51-.85,0-1.27,0-.67,0-1.17-.6-1.86-.52a1.51,1.51,0,0,1-1-.41,14.69,14.69,0,0,0-1.29-.72s-.06,0-.06,0c-.21-.62-.74-.66-1.27-.77-.19,0-.62-.21-.21-.59a.23.23,0,0,0-.06-.34.41.41,0,0,0-.53,0c-.48.4-.64-.13-.88-.32s0-.3.14-.36a.23.23,0,0,1,.34.17c.14.47.32.3.44,0s.47-.52,1-.55,1.27.28,1.89-.07a7.1,7.1,0,0,0-2.2-.18,9.21,9.21,0,0,0-1.17,0c-.29.08-.33-.32-.48-.51s-.16-.45-.4-.28,0,.29.13.42a1.67,1.67,0,0,1,.24.37c.05.13.24.29,0,.41s-.4.23-.54,0a1.23,1.23,0,0,0-1-.66,3,3,0,0,1-.87-.53c-.51-.34-1.11-.75-1.78-.43a.31.31,0,0,1-.48-.21c-.13-.42-.34-.39-.65-.23a.65.65,0,0,1-.31,0c-.15,0-.36.14-.41-.13s.18-.35.36-.46.48.14.43-.19-.35-.08-.53-.09l-.7,0c-.16,0-.36-.06-.35.23s.24.13.36.16.21,0,.29.12c-.21.23-.44.41-.75.2s-.28-.16-.4,0c0,.05-.09.08-.13.12-.06-.66-1.17.09-1.09-.82,0-.23-.23,0-.35-.05-.31-.06-.78.09-.73-.51,0-.23-.12-.2-.29-.18-.77.09-.77.08-.69-.69a.46.46,0,0,0-.05-.23s-.07,0-.11,0c0,.65-.06.54-.69.34s-1.12-.89-1.92-.73a.49.49,0,0,1-.56-.42c0-.28.26-.28.45-.33s.3,0,.27-.25-.07-.38-.32-.4a1.17,1.17,0,0,0-1,.27c-.19.21.09.32.22.43s.26.09.18.27a.28.28,0,0,1-.25.17c-.17,0-.16-.07-.19-.22s-.43-.13-.6-.3c-.2.31-.38,0-.43,0-.77.17-1-.83-1.77-.73-.22,0-.25-.19-.15-.31s0-.18-.11-.24a1.19,1.19,0,0,1-.85-.93c-.07-.31-.15-.77-.72-.5-.19.09-.31-.16-.45-.27A11.06,11.06,0,0,1,31,99.65c-.27.11-.07.38-.35.44-.17-.34-.3-.78-.83-.73a.11.11,0,0,1-.11-.17c0-.08.1-.14.2-.09l.05,0c.24,0,.63.23.68-.1s-.4-.19-.63-.23c-.38-.07-.77-.3-1.16,0a.19.19,0,0,1-.18,0c-.31-.52-1-.42-1.38-.74s-.6-.36-.35-.83c.12-.22-.36-.53-.56-.33-.37.36-.44,0-.54-.19s.1-.28.28-.37a1.66,1.66,0,0,0,.55-.4c.12-.13.16-.38.4-.34s.09.37.21.52,0-.45.38-.19a8.22,8.22,0,0,0,1.86.91c.66.2.93.81,1.42,1.06s1,.87,1.72,1a1.63,1.63,0,0,1,.57.25c.28.19.57.42.87,0,.08-.11.2-.06.27,0s0,.08-.07.12c-.32.29-.06.31.17.37a1.67,1.67,0,0,0,.67-.07c.51-.07.84.32,1.3.33.27,0,.37.1.31-.33-.11-.83-.73-1.33-1.07-2-.06-.11-.16-.21-.11-.34s.23-.49-.2-.63c-.16-.05-.07-.31,0-.44s.2-.4.49-.3.31.09.14.33.12.16.21.21c.15-.32.34,0,.51,0a2.52,2.52,0,0,1,1.84.85.61.61,0,0,0,.41.13,1.11,1.11,0,0,1,1,.64c.23.5,1,.31,1.1.92.78-1,1,.54,1.64.4s1.19.53,1.78.7a5.21,5.21,0,0,1,1.58.56c.65.45,1.44.55,2.09,1.06s1.51.51,2.21.91c0,0,.11,0,.11,0,.43-.85,1.09-.1,1.61-.15a7,7,0,0,0,2.49-.65c.41-.21.65-.21.92.15.07.09,0,.36.28.25a.44.44,0,0,0,.31-.37c0-.17,0-.36.23-.35s0,.24.12.37c.42.61-.22,1-.5,1.28s-.37.85-.94.72a.55.55,0,0,0-.13.28c0,.54.1,1.1-.36,1.54a.17.17,0,0,0,0,.12c.67.26.23.83.36,1.23.06.18.13.39.32.46,1.08.42,2,1.26,3.06,1.59s2.05.88,3.14,1.16c.56.14,1.22.28,1.5,1-.67.29-1.3,1-2.1.17-.11.64-.09.63.44.65.27,0,.56-.16.84.09s.2-.09.3-.21c.23-.28.47-.64.94-.28a.39.39,0,0,0,.56-.13c.24-.32.43-.31.44.13,0,.19.09.3.25.3.36,0,.09-.22.09-.35s.06-.19.23-.18a9.72,9.72,0,0,1,1.32,0,.7.7,0,0,0,.88-.64c.21.2,0,.41.17.56s.23.19.28,0c.34-1,1.22-.71,1.91-.88s1.12,0,1.47-.69.78-.08,1.19,0c0,.2-.3.22-.27.43,0,0,.08.06.11,0,.77-.24,1.46-.67,2.25-.9a6.69,6.69,0,0,1,1.26-.34c.49,0,.57-.51.58-.91,0-.18-.07-.35.17-.38s.58-.12.45-.55c0-.1.1-.12.17-.15.62-.21,1.23-.42,1.23-1.24,0,0,0-.09.07-.09,1.06-.19,1-1.34,1.61-1.9.17-.15-.22-.93-.44-1.09s-.87-.2-.49-.81c.07-.12,0-.22-.19-.27a.22.22,0,0,0-.27.09c-.09.12.1.41-.2.38a1.08,1.08,0,0,1-.78-.36c-.39-.54-.8-1-1.57-.79,0,0-.11,0-.12,0-.4-.94-1.23,0-1.79-.42a2.68,2.68,0,0,0-2.1-.13c-.06,0-.16,0-.18,0-.55-.59-1,.09-1.52.09-.34,0-.76.27-1-.2-.12-.24-.24-.08-.35,0-.44.26-.83.44-.92-.33,0-.13-.14-.39-.4-.29s-.23.38-.11.66c-.31-.16-.71.08-.91-.32l0,0c.5-.12.66-.3.68-.79,0-.11.88-.69,1-.62.31.26.58.07.87,0s.51-.29.73.06c.06.1.21.14.26,0,.17-.4.47-.24.75-.21a2.74,2.74,0,0,0,2-.55c.18-.13.34,0,.42.2.31.89.53,1,1.32.47.11-.07.21-.17.34-.09a4.11,4.11,0,0,0,2.32.33c.37,0,.71.36,1.15.17a.93.93,0,0,0,.36-.21c.45-.48.87-1,1.68-.65a.92.92,0,0,0,.48-.22c.16-.39.47-.5.81-.65s0-.35,0-.42c-.38-.39-.12-.76,0-1.16.14-.6.57-.64,1-.58a13.7,13.7,0,0,1,3.48.64.87.87,0,0,0,.42.12c.76-.08,1.23.45,1.75.83.17.12.37.31.53.31.72,0,1.13.64,1.78.77.13,0,.26.1.28.23,0,.4.2.58.65.58a1,1,0,0,0,.79-.32c.28-.27.57.08.62.32.12.54.42.47.78.33s.86.21,1-.42c0-.12.3.2.54.18a10,10,0,0,0,2.21-.4,2.14,2.14,0,0,1,1.63.39,3.73,3.73,0,0,1,.5.39c.75.71,1.74.64,2.66.82.52.1,1,.35,1.55.43s.08.61.42.64.46-.28.82-.06a.74.74,0,0,0,1-.2,1.44,1.44,0,0,1,1.48-.22c.12,0,.25.15.35.13.82-.17,1.42.41,2.13.59.32.08.7.55.89-.2.07-.27.73-.13.82.18,0,.14.06.21.24.19s.57.12.6-.44a1.13,1.13,0,0,0,1.39.69,14.44,14.44,0,0,1,2-.09c.25,0,.51-.06.59.31s.31.09.57.14c-.54.45-.27.8,0,1.14.43-.56.17-1.13-.08-1.66a10.89,10.89,0,0,1,4.08.83,3.88,3.88,0,0,1,1.63.79c.32-.08-.1-.31.14-.4a2.53,2.53,0,0,0,2.22,1.18c.2,0,.4.16.6.16s.53.42.59-.22c0-.24.48,0,.73,0s1,.05.28.63c-.09.07-.07.14,0,.22s.17,0,.23,0c.23-.32.43-.32.65,0,.09.13.29,0,.42.08.48.19,1,.15,1.41.69a2,2,0,0,0,1.49.7,1.86,1.86,0,0,1,1.17.4c.41.33,1,.14,1.38.42,1,.71,2.17.5,3.24.83.33.1.28.45.54.6s.28.32.5.34a1.85,1.85,0,0,1,1.22.72,2.56,2.56,0,0,0,1.76,1,1.58,1.58,0,0,1,1.22.9c.17.45,0,.82.61.28a2.38,2.38,0,0,1,.91.31,1,1,0,0,0,.72.11,1,1,0,0,1,1,.27c.28.37.87-.07,1.1.43,0,0,.15.07.15.1,0,.93,1,.67,1.35,1.11.17.19.12.38.2.56,0,0-.11.15-.17.15a.37.37,0,0,1-.38-.28c-.09-.26-.34-.28-.55-.35s-.71-.2-.59-.71c0-.1,0-.22-.18-.18a.16.16,0,0,0-.09.26c.1.16.06.33.1.49s0,.28-.21.22c-.51-.16-.49.21-.55.52.34.15.37-.32.67-.26s.79,0,1,.51a.76.76,0,0,0,.7.46c.66,0,1.24.47,2,.15.41-.17,1,.31,1.36.66s.34.35.66,0,.39,0,.59.07c.84.42,1.47,1.15,2.33,1.58.53.26.92-.11,1.36.14.27.16.66.07.94.32a.45.45,0,0,0,.28.08c.36-.55.84-.08,1.26-.16.63-.12.75.6,1.18.84a3.06,3.06,0,0,0,1.51.65c.49,0,.66.57,1.1.77L164,121c.58.24.84.8,1.28,1.18a1.33,1.33,0,0,1-1.23-.47.55.55,0,0,0-.88,0c-.25.44-.65.1-.95.32s-.56,0-.74-.43c-.09-.23-.6-.36-.94-.39a3.65,3.65,0,0,1-2.35-1c-.28-.28-.61-.09-.88-.23l-1.62-.84c.26-.18.33-.55.81-.21-.14-.43-.32-.47-.62-.41-.56.12-1.12.21-1.68.29-.41.06-.69-.07-.56-.56a.18.18,0,0,0-.11-.25c-.07,0-.18-.1-.22,0-.32.7-.86.34-1.3.24a2.1,2.1,0,0,1-.81-.45,3.55,3.55,0,0,0-1.11-.49,4.26,4.26,0,0,0-1.77-.09,4.56,4.56,0,0,1-1.45-.37,5.4,5.4,0,0,1-2.07-1c-.16-.14-.59-.07-.84,0a.83.83,0,0,1-1-.13.62.62,0,0,0-.53-.15.64.64,0,0,1-.71-.5c-.07-.59-.44-.6-.82-.5a1.12,1.12,0,0,1-1.49-.6c-.07-.16-.17-.45-.36-.07-.06.12-.11.08-.18,0a1.45,1.45,0,0,0-1.11-.33c-.2,0-.24-.11-.21-.21.17-.56-.2-.39-.43-.31a.84.84,0,0,1-.88-.12,1.32,1.32,0,0,0-1-.25,1.73,1.73,0,0,1-1.4-.82c-.15-.19-.21-.32-.51-.16a1,1,0,0,1-1.22-.2c-.19-.18-.45-.13-.62-.31s-.81-.07-.53-.68c0,0-.21-.29-.36-.32s-.16.21-.23.3a.45.45,0,0,1-.73-.07,1.79,1.79,0,0,0-1.52-.61,11.29,11.29,0,0,1-2.38-.44c-.68-.21-1.24-.74-2-.72-.2,0-.29-.14-.41-.26s-.34-.25-.38-.16c-.32.67-.64.18-.92,0a3,3,0,0,0-1.32-.41c-.5-.06-1-.5-1.6,0-.17.14-.47,0-.47-.33s-.12-.47-.29-.37c-.42.26-.62-.17-.93-.21-.13,0-.44-.49-.4.12,0,0-.09,0-.14.08-.17-.38-.69.06-.91-.43-.14-.32-1.87-.16-2.22.14,0,0-.07.1-.14.06s-.31-.38-.27-.46c.23-.47-.1-.31-.29-.29a3.31,3.31,0,0,1-1.29-.14c-.19,0-.45-.18-.4-.34.24-.89-.31-.32-.51-.28s-.25.07-.4,0c-.51-.42-.59-.41-1.08,0-.2-.12,0-.43-.25-.53a.6.6,0,0,1-.39-.76c.08-.36.45-.23.8-.37a4.52,4.52,0,0,0-1.81.11c-.51.21-.66.4-.17.87a1.52,1.52,0,0,1-.46,0c-.58-.29-1.35,0-1.8-.32s-1.34,0-1.69-.68a.27.27,0,0,0-.22-.11,2.78,2.78,0,0,1-1.83-.45,2.52,2.52,0,0,0-1.86-.09.5.5,0,0,1-.44-.19c-.13-.14-.33-.28-.38.08,0,.13-.09.16-.21.18-1.07.16-1.08.18-1.17,1.15,0,.09-.16.15-.1.27.46,0,.92,0,1.15.51h0a.53.53,0,0,0-.65.42c-.12.42.28.47.63.48-.52.64-.71.65-1.08,0,0,.48-.21.7-.68.46-.1,0-.53-.26-.25.23,0,.09-.09.22-.19.2-.63-.15-1.11.63-1.77.27,0,0-.1,0-.11,0-.54.89-1.61.36-2.32.85a.49.49,0,0,1-.8-.28c-.1-.3-.48,0-.6.08-.36.23.19.32.13.58l-1.05.45c0-.1,0-.15,0-.17.17-.24.67-.25.54-.68s-.48,0-.71-.13c-.58-.32-1,.34-1.51.32A5,5,0,0,1,87,108c-.21-.09-.53-.41-.71.11a.36.36,0,0,1-.44.19c-.48-.26-.86.06-1.27.16s-.83.28-1.24-.11a.45.45,0,0,0-.68,0c-.29.4-.52.29-.81,0a3.47,3.47,0,0,1-.55-.94,1,1,0,0,0,.06.75c.1.22.1.46-.2.54s-.6.27-.76-.18c0-.06-.07-.16,0-.17.62-.5-.13-.94-.08-1.45s-.23.16-.29.1c-.26-.21.09-.46-.19-.56-.12,0-.31,0-.34.1-.07.27-.41.43-.29.78.23.64.12.85-.53,1.09-.13,0-.22.11-.24.26s0,.34-.21.33-.32-.13-.33-.38-.18-.36-.41-.25c-.43.43-.57-.49-1-.19,0,.17.12.35.16.52s0,.27-.18.19-.24-.17-.29,0-.07.31,0,.42.3.2.4.09c.24-.27.87-.19.73-.81C77.32,108.58,77.43,108.48,77.48,108.38Zm18.42-2.64c-.5-.29-.62.22-.89.41a.19.19,0,0,0,0,.32c.37.31.29-.31.54-.27h.06c.46.06.29-.26.29-.48.11-.06.44.07.21-.25-.09-.13-.12-.22.06-.27s.49-.18.31-.4-.33.13-.5.21C95.56,105.2,95.76,105.48,95.9,105.74Zm-6.21-4.9c-.29-.13-.43-.13-.57-.06-.56.29-1,.83-1.68.85-.15,0-.09.14-.07.25a.19.19,0,0,1-.23.23c-.89-.17-1,.65-1.25,1.1s-.52.77-1.16.7a1.13,1.13,0,0,0-1.12.69c-.18.44.13.8.52,1,.11.07.15.34.36.14a1.7,1.7,0,0,1,1.32-.43c1,.15,1.82-.25,2.79-.13a34.74,34.74,0,0,0,4.3-.2c.54,0,1-.4,1.57-.16a.52.52,0,0,0,.68-.12,1.46,1.46,0,0,1,.63-.26c.34-.11.7-.06,1-.2.51-.21.44-.33.11-.67-.56-.58-1.5-.33-2-1,0,0,0,0-.06,0-.48.28-.87-.12-1.3-.16-.69-.07-1.29-.64-2-.35-.1,0-.27,0-.27-.16,0-.38-.21-.37-.46-.23a.61.61,0,0,1-.6,0,1.78,1.78,0,0,0-1.56.08.31.31,0,0,1-.48-.17,5.49,5.49,0,0,1,.78-.26C89.3,101.31,89.33,101,89.69,100.84ZM41.74,102c-.26.06-.19.25-.16.4.07.47.53.51.84.7.77.47,1.15.41,1.7-.1.09-.08.16-.16.12-.27s-.13-.09-.21,0c-.56.35-.34-.27-.52-.39s-.4.54-.81.11C42.49,102.16,42.07,102.12,41.74,102Zm78.92.87a.85.85,0,0,0-.68-.33c-.26,0-1.16.72-1.09.88a1.2,1.2,0,0,0,.82.6C120.05,104.1,120.69,103.34,120.66,102.86Zm-84.59-2.63c-.84.13-1,.32-1.2,1s.33,1,.55,1.47c.07.16.43.14.64,0a.19.19,0,0,0,.1-.26c-.1-.2-.09-.2.06-.33a.27.27,0,0,0,.06-.34c-.42.22-.61.2-.78-.08C35.18,101.14,35.33,100.71,36.07,100.23Zm6.52,5.06a1.21,1.21,0,0,0,.63.53c.35.19.62-.13.92-.2.1,0,.22-.31.19-.43-.09-.34-.43-.15-.65-.23l-.29-.11c-.13,0-.3,0-.28.14C43.17,105.43,42.84,105.27,42.59,105.29Zm74.63-1c-.67-.18-.35.43-.4.61s.08.71.36.71.64-.4.67-.65S117.85,104.13,117.22,104.31Zm-71.64,0c0-.45-.5-.59-.68-1-.1-.2-.33-.12-.5,0a.18.18,0,0,0,0,.31C44.74,104,45,104.46,45.58,104.36Zm75.29.11c.34,0,.61.21.92.19s.59.09.5-.15-.13-.7-.6-.69c-.1,0-.19,0-.18.13C121.59,104.47,121.24,104.43,120.87,104.47ZM98.45,99.31c-.06.38-.82.29-.55.8a.54.54,0,0,0,.76.22C99.23,99.9,98.48,99.68,98.45,99.31Zm-52.82,2.48c-.18-.08,0-.49-.36-.39s-.65,0-.61.39c0,.2.32.42.62.45S45.51,102,45.63,101.79Zm61.43.25c.58-.08.77-.43,1-.66a.24.24,0,0,0,0-.23c-.06-.12-.17,0-.27,0C107.38,101.19,107.41,101.67,107.06,102Zm24.64,5.25c.21.06.45.12.47-.14s-.22-.33-.45-.33-.61.24-.57.44C131.25,107.75,131.54,107.07,131.7,107.29Zm-20.39-4.37s-.11,0-.12,0a1.27,1.27,0,0,1-.73.67.56.56,0,0,0,0,.35c.09.14.25.06.31,0a2.89,2.89,0,0,1,.6-.7C111.51,103.13,111.45,103,111.31,102.92Zm20.82,5.82c-.95-.37-.69.47-1,.73C131.78,109.64,131.65,108.92,132.13,108.74Zm-92.33-6c-.08.29-.65,0-.52.46,0,.11,0,.52.35.4S39.94,103.07,39.8,102.7Zm86.73,5.09c-.11-.21-.22-.46-.49-.5-.08,0-.28.22-.26.31,0,.27.33.35.54.45S126.5,107.93,126.53,107.79ZM104,102.69c.06-.39.42-.14.52-.37-.33,0-.32-.47-.65-.49-.15,0-.29.06-.25.19A6.28,6.28,0,0,0,104,102.69Zm-21.21.71c-.25-.09,0-.56-.4-.63s-.19.18-.18.32a.62.62,0,0,0,.45.61C82.71,103.72,82.81,103.6,82.75,103.4Zm15.63-.82c-.19-.19-.38,0-.56,0s-.44-.59-.62-.08.41,0,.56.29S98.23,102.9,98.38,102.58Zm-56.2-1.37c-.27-.11-.29-.53-.64-.58-.08,0-.22.19-.18.2.33.09.2.59.56.62C42,101.45,42.19,101.46,42.18,101.21Zm84.18,7.2c.48.07.33.64.79.59.14,0,0-.21,0-.32C127.08,108.33,126.91,108.16,126.36,108.41ZM38.51,98.78a.56.56,0,0,0,.39-.4c0-.09,0-.31-.12-.29a.65.65,0,0,0-.53.44C38.22,98.64,38.37,98.74,38.51,98.78ZM142.44,113c-.1.09-.08.23-.06.37s0,.36.28.35.25-.13.18-.32S142.75,113.05,142.44,113Zm-89.71-9.92c.1.08.18,0,.25,0,.27,0,.36-.13.41-.35s.07-.2-.08-.25-.21.22-.36.28A.27.27,0,0,0,52.73,103.12Zm26.84-2.94c-.06.45.34.45.57.6.08,0,.23-.08.21-.17-.07-.31-.4-.25-.6-.37A.64.64,0,0,0,79.57,100.18Zm-4.75,10.41a.41.41,0,0,0,.3-.48c0-.16-.09-.34-.23-.31-.34.07-.15.41-.26.62S74.69,110.6,74.82,110.59ZM37.62,99.5c.2.15,0,.48.32.59.08-.18.34-.29.23-.53S37.86,99.45,37.62,99.5Z" transform="translate(-7.35 -4.96)"/><path d="M123.57,28.37c-.19,0-.21.12-.32.18a2.39,2.39,0,0,0-.49-1.14,11.54,11.54,0,0,1-.71-1.23c-.07-.18-.06-.25.11-.34a.86.86,0,0,0,.28-.36c.06-.13.06-.28-.16-.25-.06,0-.13.08-.18,0a3.22,3.22,0,0,1-.47-1.24c0-.09.06-.09.12-.11a1.44,1.44,0,0,1,1.5.41c.26.28.63.48.83.82s.52.59.73.94a2.36,2.36,0,0,0,.59.59,3.65,3.65,0,0,1,.6.76c.22.3.43.63.91.55.26,0,.5.51.37.87.46-.23.43.23.57.4.5.6.71,1.39,1.21,2,.11.13,0,.27.08.38a2.33,2.33,0,0,1,0,1.2c0,.13,0,.28-.16.34s-.23.16-.17.27a1.14,1.14,0,0,0,.34.26c.05,0,.13,0,.12-.07-.21-.43.25-.38.39-.56s.34-.11.24-.28-.22.11-.37.09.12-.18,0-.29-.14-.28.12-.29.12-.2.1-.26a6.83,6.83,0,0,1,0-1.11,1.54,1.54,0,0,1,.47-1.28c.07-.06.21-.09.17-.19-.15-.39-.07-.88-.44-1.18-.2-.16-.15-.39,0-.36.48.06.57-.41.59-.57a2.49,2.49,0,0,1,.44-1,10.61,10.61,0,0,0,.49-1.33,2,2,0,0,1,.44-.79c.27-.25.12-.65.15-1,0-.06-.05-.17,0-.19a12.33,12.33,0,0,0,.91-.86c.11-.09.11.06.16.11a1.88,1.88,0,0,1,.36,1.45,5,5,0,0,0,.05.87,2.56,2.56,0,0,1-.13,1.16c-.08.2-.19.36,0,.56s0,.32,0,.46a1.8,1.8,0,0,0,.11,1c.12.28,0,.57.06.85s-.18.12-.27.25a.63.63,0,0,1,.33.78c-.1.45.09.93-.14,1.37a.11.11,0,0,0,.05.14.1.1,0,0,0,.14,0c.2-.41.68-.36,1-.62.06-.05.18-.06.17.06s-.1.18.08.16a.12.12,0,0,0,.1-.18c-.08-.18-.11-.23.15-.19s.43-.25.46-.38c.11-.4.46-.36.71-.49s.71-.14.86-.57c.05-.13.26,0,.42-.08.41-.27.86-.49,1.29-.72s1-.49,1.46-.75c.21-.12.39-.27.65-.14,0,0,.09,0,.1,0,.66-.66,1.71-.69,2.3-1.58.07.28.06.42-.11.52-.34.19-.31.51-.28.82a.68.68,0,0,1,0,.35,3.34,3.34,0,0,1-1,1.44,16.54,16.54,0,0,0-1.73,1.4.65.65,0,0,1-.75.24c-.17-.07-.32.13-.42.3A2.32,2.32,0,0,0,139,31c.24-.06.26-.39.56-.38-.28.39-.74.6-.86,1.07,0,0-.09.06-.13.06-.26,0-.24,0-.35.29a2.59,2.59,0,0,1-.68.83A9.1,9.1,0,0,0,136.6,34a.38.38,0,0,1-.16.11c-.1-.12.06-.28-.09-.34s-.14.06-.2.11,0,.19,0,.3.19.21.14.37a.15.15,0,0,0,.07.13c.08,0,.13,0,.14-.1s.1-.16.23-.11a.93.93,0,0,0,.44,0c.16,0,.33,0,.31.23a.38.38,0,0,0,.26.41c.43.19.67.66,1.15.77a.38.38,0,0,1,.27.22c.18.61.74.68,1.21.85a.72.72,0,0,1,.33.21c.18.3.62.38.68.79,0,.06.11.17.16.17.48-.05.38.42.56.63s-.32.54-.52.49c-.44-.11-.93.08-1.34-.23a.3.3,0,0,0-.34,0c-.38.36-.65,0-.94-.14-.09,0-.19-.15-.29-.12-.35.11-.66-.08-1-.11s-.53.06-.52-.33c0,0-.07-.07-.09-.06-.55.26-1-.35-1.5-.16,0-.22.19-.21.19-.35s.26-.14.1-.28-.2,0-.26.12c-.16.23-.31.22-.54.07s-.37.17-.41-.26c0-.27-.36,0-.56.09.24-.09.35.06.51.19.57.48.64,1.23,1,1.81.14.22.07.51.32.69s-.2.31,0,.5c0,0,.13.23.22.34a.87.87,0,0,1,.29.71,4.7,4.7,0,0,0,.26,1.48,5.09,5.09,0,0,1,.16.67,4.11,4.11,0,0,0,1.22,2.32c.08.1.1.19.05.24s-.12.54-.48.63-.07.26,0,.4,0,.39-.24.36a1.77,1.77,0,0,1-.86-.39c-.69-.51-.78-1.39-1.36-2-.27-.26-.33-.74-.58-1a8.47,8.47,0,0,0-.58-.85.22.22,0,0,1-.09-.17c.07-.47-.25-.6-.59-.73a1.25,1.25,0,0,1-.57-.59c-.22-.37-.57-.6-.8-.95s-.56-1-.82-1.44a7.11,7.11,0,0,0-.41-.6c-.05-.08-.14-.13-.11-.24s.13-.18,0-.24a.21.21,0,0,0-.28.1c-.09.15-.25.2-.37.3.36.27.05.57,0,.82s-.45.62-.64,1-.19.7-.51.92a.21.21,0,0,0,0,.18c.53.47-.22.44-.28.68,0,.06-.16.07-.24,0a.49.49,0,0,0-.37-.18c-.06.13,0,.17.08.2s.28,0,.3.19-.12.41-.19.41c-.49,0-.55.46-.8.7a5.9,5.9,0,0,0-.85.88.23.23,0,0,1-.25.1c-.15,0-.12-.12-.1-.22s-.08-.16-.17-.17-.14.07-.15.15a.69.69,0,0,0,0,.2c.13.45-.2.7-.46.92s-.52.25-.65-.2c.27.51.1.85-.45.9-.22,0-.38-.22-.37-.5a13.52,13.52,0,0,0,.25-2.37,1.39,1.39,0,0,1,.17-.77,9.48,9.48,0,0,0,.79-2.71,16.42,16.42,0,0,1,.69-2.41,3.21,3.21,0,0,1,.49-.87c.13-.17,0-.25-.1-.23-.28,0-.49-.14-.82-.15.27-.15.12-.35.16-.56-.33.33-.74.14-1.1.27,0,.12.27.11.16.25a2.92,2.92,0,0,1-.41.37c-.1-.25-.38,0-.53-.19s-.21-.2-.2.06c0,.06,0,.07-.07,0s-.16-.12-.08-.23.13-.17,0-.24-.18,0-.25.07c-.27.22-.66.15-.92.39-.06,0-.21,0-.28-.1s.33-.06.4-.26c-.28,0-.56-.08-.83.21s-.21-.09-.23-.27a1,1,0,0,1-.9.09c-.2,0-.42-.07-.57.14s-.33.3-.45,0a.16.16,0,0,0-.16-.1c-.26,0-.56.28-.78-.1-.08.29-.32.09-.47.12a.57.57,0,0,1-.67-.22c-.12-.19.27-.28,0-.47-.06.16-.4.19-.17.5,0,.07-.15.17-.19.11-.23-.32-.59-.08-.87-.22-.11-.06-.28,0-.4-.17a.61.61,0,0,0-.41-.19c-.33,0-.32-.29-.17-.57.34-.66,1-.37,1.5-.59s1.08-.08,1.54-.4c0,0,.09-.06.11,0,.5.26.83-.2,1.24-.3.09,0,.18,0,.24.07a.1.1,0,0,0,.17,0,3.48,3.48,0,0,1,2.16-.79,3.82,3.82,0,0,0,.74-.18,3.31,3.31,0,0,1,.94-.06c.22,0,.37-.13.58-.11s.41,0,.54.22.1.14.2.09.06-.09,0-.18.06,0,.09,0c.3,0,.61-.09.92.07-.16-.25-.11-.66-.56-.59-.07,0-.12-.11-.14-.22a2.07,2.07,0,0,0-1-1.41.14.14,0,0,1-.08-.16c.07-.32-.16-.61-.09-.93,0-.07-.06-.16-.11-.13-.39.28-.37-.28-.62-.3,0,0-.06-.1,0-.16C123.58,28.81,123.53,28.58,123.57,28.37Zm6.16,7.53c-.3.14,0,.34,0,.51s.12,0,.19,0a.14.14,0,0,1,.17.06c.13.16.36.24.36.51,0,.1.05.16.18.17s.16-.06.14-.19,0-.17.15-.11.08.19.16,0,0-.19-.1-.21-.21-.06-.21-.2c.3,0,.22-.41.53-.4s.17-.23.16-.37-.12-.18-.28-.15a.65.65,0,0,0-.51.81c-.23-.33-.63-.29-.93-.46.2,0,.26-.16.16-.32s-.17-.43-.41-.52c0,0-.1,0-.14.07a.41.41,0,0,0-.17.35c0,.14.16.21.34.23,0-.07,0-.12,0-.14s-.19-.14-.09-.26a.19.19,0,0,1,.14,0c.13,0,.07.14.09.23A2.71,2.71,0,0,0,129.73,35.9ZM128,38.63a7.75,7.75,0,0,1,.41-.94c.08-.14.18-.36.35-.37.51,0,.39-.3.37-.65s-.36-.38-.39-.61c0-.48-.36-.2-.55-.21s0-.29-.1-.37-.14-.15-.17,0-.16.2-.32.14-.22.23-.39.28,0,.1,0,.13.23.17.39,0,.27,0,.42-.06.12,0,.14.11,0,.09-.1.13a1,1,0,0,0-.45.5.18.18,0,0,0,0,.22c.07.05.15.08.22,0s.11-.16.18-.08a.34.34,0,0,1,0,.26c0,.12-.12.11-.22.1a.52.52,0,0,0-.54.33c.34-.13.33-.13.39.22,0,0,.06.09.09.13s.08.16,0,.22C127.68,38.33,127.86,38.45,128,38.63Zm3.13-4.22c.29,0,.53.07.64.34,0,0,.1,0,.11,0,.27-.32.27,0,.36.14s-.1.29.08.3.15-.18.17-.31.15-.17.09-.32c-.24.18-.33,0-.35-.18s-.09-.25,0-.39-.12-.38-.09-.6-.2-.09-.28,0-.11.21-.08.35.07.29-.1.29-.26-.12-.22-.31.06-.15,0-.23c-.41.09-.38.23.17.91C131.46,34.36,131.3,34.24,131.12,34.41Zm-.61.29c-.08-.18-.15-.22-.31-.18a.93.93,0,0,0-.55.27c0,.06,0,.16.14.09s.28,0,.28.19c0,.36.35.27.54.37,0,0,.13,0,.09-.09C130.51,35.15,130.76,34.82,130.51,34.7Zm-.09,2.6c-.16,0-.23-.37-.47-.22s-.2.67,0,1c.05.07.1.09.17.06A1.64,1.64,0,0,0,130.42,37.3ZM127.78,40c-.19.47-.55.3-1,.22a1,1,0,0,1,.23.53c0,.19.21.35.36.16A1.51,1.51,0,0,0,127.78,40ZM130,33.58c.22-.17.41-.38.72-.18,0,0,.26-.11.21-.28s.08-.24,0-.37C130.55,33,130.11,33.08,130,33.58Zm3.91-.29a.15.15,0,0,1,.11.17c0,.1,0,.15.16.12s.17,0,.17-.15-.12-.07-.17-.11c-.21-.16-.39,0-.59,0s-.19,0-.21.09a.34.34,0,0,0,.07.34c.15.13.15-.1.24-.11S133.86,33.41,133.91,33.29Zm-6.8,6.5c.14-.09.39-.19.38-.25-.06-.33.08-.71-.24-1-.06,0-.08-.16-.17-.1a.14.14,0,0,0,0,.24.53.53,0,0,1,.16.7C127.2,39.52,127.06,39.6,127.11,39.79Zm14.12-11.64c-.23,0-.49-.11-.64.15s.09.2.18.22C141.07,28.61,141.07,28.29,141.23,28.15ZM128.39,39c-.15.11-.28.19-.45,0s-.21,0-.26.09.08.15.14.2C128.05,39.44,128.29,39.32,128.39,39ZM138.65,38a.38.38,0,0,0-.5-.07c-.07,0-.16.12-.06.18s.31.25.52.14S138.73,38.14,138.65,38Zm-13.1,6.48c-.07-.37-.41-.56-.53-.9,0-.06-.13,0-.17.1s0,.18.05.16.17.1.23.2A1.18,1.18,0,0,0,125.55,44.51Zm1.23-2.95c-.19-.13-.31-.05-.4.15s-.25.07-.14.23.17.06.26,0,.19,0,.11-.18,0-.13.08-.11S126.8,41.67,126.78,41.56Zm-4-5.49a1.19,1.19,0,0,0,0-.79c-.11-.05-.2-.05-.21.12s.14.4.06.62C122.64,36.08,122.74,36.11,122.81,36.07Zm9.56-12.63c.19,0,.3-.15.46-.2s.1-.19,0-.28-.18-.12-.23,0S132.28,23.2,132.37,23.44ZM132,31.85c0,.06-.23.08-.1.21s.34-.05.52-.07,0-.1,0-.15C132.24,31.61,132.11,31.74,132,31.85Zm.06,6.23c0-.25-.4-.61.17-.55a.27.27,0,0,0,0-.13c0-.06-.06-.08-.12-.07s-.32.05-.37.2S131.83,37.86,132,38.08Zm-2.45.54c.2.34.2.34.74,0C130,38.29,129.83,38.9,129.56,38.62ZM135,35.29c-.09-.08-.16-.13-.23,0a.61.61,0,0,0-.08.54c0,.08.13.06.16,0A.81.81,0,0,0,135,35.29Zm-7.58-3.35c-.1-.13.08-.38-.15-.39s-.31.17-.28.29S127.21,31.9,127.37,31.94Zm6.82,10.32c.05,0,.18-.12.08-.17s-.16-.27-.32-.15a.24.24,0,0,0-.07.33C134,42.41,134.09,42.32,134.19,42.26Zm-5.9-7.34.33-.23c.08,0,.06-.11,0-.17a1.2,1.2,0,0,0-.21-.17l-.09.1C128.48,34.61,128.23,34.73,128.29,34.92Zm1,5.51c-.42.23-.42.23-.51.47C129.05,40.82,129.29,40.79,129.33,40.43ZM131.51,39c0-.07-.09-.19-.21-.12a.17.17,0,0,0,0,.27c.07.07.18.21.3.12S131.55,39.08,131.51,39Z" transform="translate(-7.35 -4.96)"/><path d="M85.22,43.69c-.18,0-.42-.3-.5.15a.22.22,0,0,1-.42,0c-.07-.16-.07-.44-.36-.26s.37.23.06.48-.52-.32-1-.15-.87.43-1.34.56-.67.12-.8-.42c-.08-.32-.12-.77-.6-.93-.29-.1-.24-.25,0-.45a4.66,4.66,0,0,1,.84-.5c.56-.23.62.07.66.5a1.81,1.81,0,0,1,1.26-1.18c.83-.2,1.8-.12,2.4-.9.2-.26.52.14.68-.25l-.6-.18c-.12,0-.25.37-.34,0s.2-.22.36-.31c1-.58,1.72.14,2.47.59.21.12.25.28.43-.06s.4,0,.52.22a1.5,1.5,0,0,0,.2.23c.1.08.24.26.36.09s.27-.24.16-.43-.26-.13-.4-.07-.22.13-.33.19c.11-.26-.28-.48-.07-.76s.69-.2.87-.57c0-.11.17,0,.21.13s.21.25.43.26a2,2,0,0,0-.67-1.31c0,.46,0,.87-.53,1a1.79,1.79,0,0,1-1.36-.3c-.24-.15-.21-.6-.22-.78,0-.87-.55-1.64-.35-2.55a1.66,1.66,0,0,0-.25-1.21,3,3,0,0,1-.52-2.29,2.72,2.72,0,0,0-.37-1.41c-.19-.58,0-.81.48-1-.16-.17-.59.09-.51-.36,0-.2-.13-.25-.27-.29a.33.33,0,0,1-.22-.5c.11-.21.2-.31-.11-.34a.12.12,0,0,1-.06-.11c.13-.59-.4-.82-.65-1.2a.5.5,0,0,1-.08-.36c.06-.54.1-1.07-.64-1.21-.11,0-.18-.26-.25-.41-.27-.63-.9-.93-1.33-1.41s-.79-1.18-1.31-1.67c-.21-.2,0-.39.05-.58A1,1,0,0,1,80.35,20c-.36.2-.74.45-.79-.24-.54,0-.48-.9-1.14-.81-.2,0-.17-.23-.1-.35a1.7,1.7,0,0,0,.13-1.21c0-.13,0-.26.11-.33a.22.22,0,0,1,.33.08c.28.53.88.65,1.31,1a9.79,9.79,0,0,1,2.29,2.76c.2.34.24.77.68,1s.07.87.38,1.22.64,1.16,1.24,1.52c.08,0,.18.21.16.25-.26.43.3.48.31.6,0,.73.86.87,1,1.48,0,.17.07.43.32.51.06,0,.16.15.14.19-.27.73.14,1.37.33,2s.58,1,.71,1.55a1.69,1.69,0,0,1,0,.55c0,.17-.54.56.15.58.07,0,0,.16-.06.25s0,.41.07.58c.25.37.21.59-.28.58-.26,0-.23.16-.16.29s.22.31.32.47.12.3.31.25a.28.28,0,0,0,.21-.29c0-.22.14-.27.26-.38s.27-.37.07-.48c-.77-.41-.29-.93-.16-1.42,0-.09.18-.21.16-.25-.37-.61.34-.76.5-1.14s.45-.25.7,0,.47.55.89.49a.13.13,0,0,1,.16.15c-.14.83.65,1.08,1,1.6s1,.75,1,1.47c0,.14.13.14.24.13s.33.16.28.27c-.22.53.28.7.44,1s.15.83.49,1.15a.17.17,0,0,1,0,.15c-.19.08-.39.19-.2.39s.24-.25.48-.17c.07.5-.09,1,.26,1.51.18.25-.06.66.14,1s-.3,0-.43.23l.62.79c.16-.37-.25-.76.29-1s.28.34.54.26a.39.39,0,0,0,0-.09c.08-.21-.39-.49,0-.63s.36.28.45.48a24.71,24.71,0,0,0,2,2.79c.36.61,1,1.1.74,2a.32.32,0,0,0,.29.42c.82,0,.86.74,1.09,1.23a6.49,6.49,0,0,0,.85,1.55,1.23,1.23,0,0,1,.34.59c.05.61.52.85.91,1.19.83.73,1.62,1.52,2.42,2.28.1.1.23.18.15.38s0,.25.19.22.37-.25.51,0c.34.58,1,1,1.17,1.62.12.42-.35-.06-.44.24.34.18.46.57.65.92s.35.4,0,.61a.17.17,0,0,0,.07.32c.26,0,.37.23.59.3.4.13.59.43.27.84-.27-.06-.34-.44-.67-.43-.09.27.18.41.24.7-.46,0-.93.11-1.3-.31a.66.66,0,0,0-.57-.22c-.48,0-.88-.27-1.34-.36-.08,0-.2-.09-.13-.17.49-.57-.31-.31-.34-.54.5-.18.61-.76,1.23-1a2.9,2.9,0,0,0-1.15.45c-.29.14-.32.37-.06.6-.25,0-.46-.24-.76,0s-.51.09-.81-.2a3.87,3.87,0,0,0-2.15-1,17.19,17.19,0,0,1-1.81-.51c-.45-.12-.89-.18-1.21.23-.15.19-.31.13-.36,0C96.79,54,95.94,53.63,95.4,53c0,0-.08,0-.1-.08-.26-.44-.26-.44-.66-.4.13-.46,0-.69-.49-.92s-.82-.84-1.35-1.15c-.22-.13-.87,0-.63-.7,0-.12-.41,0-.58-.3s-.48-.42-.53-.78c0-.12-.12-.23-.21-.2-.6.19-1.24-.17-1.85.24-.3.2-.7.22-.73.7,0,0-.16.11-.2.08a.73.73,0,0,0-.66,0c-1,.6-2,.11-3,0s-1.28-.08-1.5-.76c-.24,0-.31.64-.67.16a.8.8,0,0,1,0-1.16,4.73,4.73,0,0,1,1.42-.58c1-.33,1.91-1.06,2.92-.83.72.16,1.31-.16,2-.06A2.38,2.38,0,0,0,90,45.91c.09,0,.14-.08.12-.18s-.09-.19-.24-.22c-.57-.11-.51-.16-.39-.73a1.3,1.3,0,0,0-.35-1.14.75.75,0,0,1-.12-1.1c-.63.48-1.36-.11-2,.25.26.3.63,0,.84.21-.28.24-.32.14-1.07.44a3.79,3.79,0,0,1-1.25.39c-.09,0-.24.09-.24-.14a.68.68,0,0,1,.89-.42c.23.08.39-.11.56-.22s.06-.16,0-.21-.35,0-.52.08a5.49,5.49,0,0,1-.82.22C84.76,43.33,85.08,43.49,85.22,43.69Zm4.62-1.5c.24.23.08.45-.15.73.35-.15.74,0,.68-.51s-.34-.2-.54-.22c-.07-.51.44-.65.64-1s.37-.52.65-.05c.17.29.75.23.74.19-.18-.64.42-.35.6-.53s.41-.09.25-.38c-.76.36-.85.32-1.25-.36-.08-.13-.25-.35-.45-.31a.38.38,0,0,0-.27.44c.07.5-.23.4-.45.44-.15-.29.15-.4.06-.66-.61.15-.39.65-.3.93.15.44-.17.41-.37.47s-.3-.17-.51-.06c.15.18.37.31.31.62S89.66,42.2,89.84,42.19Zm1.84,3.38c.09-.12.16,0,.26,0,.29.18.29.54.49.78l1.3,1.5c.15.18.14.31-.14.3s-.26,0-.24.23c.28.17.56,0,.84,0s.41-.07.61.23c-.17.18-.51-.17-.66.22.22.08.42.05.62.12a12.8,12.8,0,0,1,3.17,2c.1.07.16.47.4.12s0-.32-.19-.42a.92.92,0,0,1-.58-.89c0-.12,0-.28-.15-.32-.58-.16-.76-.7-1.06-1.12-.16-.22-.45-.42.08-.55.17,0,.1-.19,0-.26a5,5,0,0,1-.5-.29c-.11-.07-.31-.09-.23-.31s.28.16.34-.16c-.39.07-.49-.55-1-.34,0-.53-.49-.47-.74-.7s-.85-.36-.74-1a.55.55,0,0,0-.29-.45c-.14-.06-.23-.14-.13-.34.21-.42-.08-.38-.31-.25s-.4.19-.36,0-.55-.48,0-.61c.16,0,.07-.12.06-.23-.08-.55-.48-.68-.93-.67s-.69,0-.75-.44a.19.19,0,0,0-.29-.15c-.18.1,0,.2,0,.31a16.22,16.22,0,0,0,1.12,3.25.37.37,0,0,1-.06.46c-.62-.57-.82,0-1.17.37C91.16,46.15,91.51,46.32,91.68,45.57Zm6.18,1a.39.39,0,0,0-.29.33c0,.26.05.46-.28.54s0,.15,0,.23c.1.36.42.52.68.71.53.39.87-.09,1.13-.39s-.21-.47-.36-.66-.61-.31-.74-.69C98,46.59,97.9,46.58,97.86,46.56Zm-3.69-4.24c-.24,0-.23.15-.24.28a4.86,4.86,0,0,1,0,1.32.18.18,0,0,0,.16.23.73.73,0,0,1,.66.56.17.17,0,0,0,.3.08c.09-.09.16-.18,0-.33a1.1,1.1,0,0,1-.47-1.41A.6.6,0,0,0,94.17,42.32Zm6.45,9.34c.08-.21-.14-.17-.23-.26s-.72-.22-.55-.75c0-.13-.16-.19-.28-.11s-.35,0-.27.26c.15.42.1.93.58,1.2.14.08.26.27.44.19S100.57,51.89,100.62,51.66ZM103.16,55a1.51,1.51,0,0,0-1.29-1.27,1.12,1.12,0,0,0-.7.15c-.13.07,0,.29,0,.41.13.28.48.15.6.1.56-.28.84,0,1.13.41A1.33,1.33,0,0,0,103.16,55Zm-5.54-9.57c-.21.14-.36.41-.6.23s-.7-.1-1-.23a.56.56,0,0,0-.65.27c-.15.21.18.33.29.57.19-.34.28-.73.7-.57s.94.11,1.23.56c0,.08.12.2.24.11a.19.19,0,0,0,0-.32C97.59,45.83,97.47,45.67,97.62,45.38Zm8.3,9c-.08-.31-.58-.18-.75-.49a.52.52,0,0,0-.38.09c-.09.16-.36.45-.05.55a5.24,5.24,0,0,0,.91.17C105.82,54.75,106,54.7,105.92,54.41ZM95.63,52.05l.81-.55c-.4,0-.47-.55-.84-.3S95.87,51.69,95.63,52.05Zm4.11-2.85c.36-.26.48-.55.31-.9-.06-.13-.23-.08-.33,0C99.33,48.58,99.68,48.85,99.74,49.2Zm7.15,7.2c0-.34-.29-.38-.53-.41a.21.21,0,0,0-.26.26c.05.34.36.29.58.37S106.9,56.55,106.89,56.4ZM98.75,45c-.19,0-.3,0-.31.27s.06.37.26.36.43,0,.41-.29S99.05,44.94,98.75,45Zm-4,5.26c-.28,0-.34.21-.4.41a.22.22,0,0,0,.22.31c.3,0,.34-.28.4-.49S94.91,50.27,94.75,50.26Zm-3.7-12c.59,0,.57,1,1.39.81-.4-.08-.45-.37-.61-.57A.74.74,0,0,0,91.05,38.25Zm.58-.79c-.2-.21-.43-.4-.63-.21s-.17.5.09.8C91.06,37.63,91.44,37.69,91.63,37.46ZM95,41.63c.35.42.64.92,1.21,1.08C95.82,42.36,95.45,42,95,41.63Zm-1.07-2.15c.25-.14,0-.37.23-.48s.37,0,.21-.26-.24-.12-.42,0C93.57,39,93.66,39.21,93.94,39.48Zm.34,1.42-.85-1A2.2,2.2,0,0,0,94.28,40.9Z" transform="translate(-7.35 -4.96)"/><path d="M117.47,64.12a.67.67,0,0,0-.38.66,2.78,2.78,0,0,0-1.52-1.09c-.23-.08-.36-.25-.13-.47s0-.38-.13-.34c-.65.17-.92-.53-1.46-.59a.16.16,0,0,1-.14-.23.43.43,0,0,1,.38-.29c.18,0,.39,0,.31-.26s-.25,0-.39,0c-.43,0-.89.06-.91-.56,0-.17-.11-.17-.2-.14a.47.47,0,0,1-.47-.1c-.12-.1-.27-.21-.18-.36s.27-.1.4,0,.07.12.12.15.25.23.37,0,0-.29-.17-.36a3.92,3.92,0,0,0-1.27-.52c-.36-.07-.14-.27-.14-.43,0-.44.08-.26.22,0s.17,0,.19-.08a.57.57,0,0,0-.08-.49c-.1-.13-.42-.2-.22-.43s.33.06.49.13c.49.2,1,.38,1.08,1a.27.27,0,0,0,.17.16c.86-.12,1.27.67,1.94.93.47.18.57.89,1.21.91.14,0,.16.26.2.43.14.7.24,1.45,1.15,1.59a.18.18,0,0,1,.12.12c0,.14-.11.16-.19.21s-.58,0-.37.46Z" transform="translate(-7.35 -4.96)"/><path d="M89.25,62.53c.35.73.92.11,1.3.43,0,0,.17-.05.15-.15-.06-.34-.33-.11-.5-.17s.16-.18.2-.27.27-.41.07-.61-.4,0-.56.17-.47.58-.77.31c-.14-.12.13-.54.32-.71.59-.53,1-1.28,2-1.36.27,0,.54-.59.71-1a1.91,1.91,0,0,1,.56-.57c.2-.18.5-.07.72,0s.14.33.12.52-.13.3,0,.35c.78.28.17.78.15,1.14s-.47.55-.29,1c0,0,0,.06,0,.06-.55-.07-.36.22-.32.54s-.3.56-.35.92c-.08.57-.4.5-.92.5-.71,0-1.27-.51-2-.43C89.39,63.27,89.29,63.06,89.25,62.53Z" transform="translate(-7.35 -4.96)"/><path d="M84.35,55.15a1.38,1.38,0,0,1,1-1.2,2,2,0,0,0,1.23-.51c.54-.58,1.49-.32,2-1a1.58,1.58,0,0,1,.88.55c.19.35-.21.4-.44.49a1.74,1.74,0,0,0-1,1.31.84.84,0,0,1-1.21.44s-.1-.07-.11-.06c-.42.49-1.15.31-1.58.73-.1.1-.24.22-.29.11A3.52,3.52,0,0,0,84.35,55.15Zm3.51-.75c-.18,0,.14-.47-.26-.33-.17.06-.43,0-.38.31,0,.12.14.35.34.24S88,54.74,87.86,54.4Z" transform="translate(-7.35 -4.96)"/><path d="M66.89,67.84c-.1.13-.42-.1-.44.19s.2.18.32.26a1.17,1.17,0,0,1,.5.9c0,.21,0,.49.07.62.47.6-.11.64-.4.85-.06,0-.12.07-.15,0-.35-.64-1.06-.85-1.56-1.31a.26.26,0,0,1,0-.47,2.44,2.44,0,0,0,.51-.35c-.27.11-.54-.33-.8,0,0,0-.09,0-.1,0a.17.17,0,0,1,0-.23,1.06,1.06,0,0,1,.76-.32c-.18-.32-.57-.15-.73-.41-.23.13.32.4-.12.47s-.35-.19-.32-.38c.09-.62-.36-1.19-.17-1.82,0-.12-.09-.34.14-.34s.28.17.26.36a1.09,1.09,0,0,1-.07.24c-.07.16,0,.24.16.27s.16-.08.17-.2c0-.55.24-.36.49-.13s.81.35.6,1c-.07.22.54.18.63.53C66.74,67.68,66.93,67.66,66.89,67.84Z" transform="translate(-7.35 -4.96)"/><path d="M156.93,113.12c.57-.75,1.15-.15,1.7-.13.17,0,.42.48.53-.09,0-.14.17,0,.22.09a5.42,5.42,0,0,0,2,1.23c.51.21.75.83,1.34,1,.07,0-.08.67.5.77-.47-.16-.84.3-1.22,0s-.51-.64-.8-.9c-.45-.39-1-.16-1.57-.14-.11,0-.26.19-.34.05-.37-.59-1.13-.69-1.52-1.21C157.52,113.53,157.43,113.14,156.93,113.12Z" transform="translate(-7.35 -4.96)"/><path d="M55.35,65.55a3.41,3.41,0,0,0,.54-.26c.12-.09,0-.26,0-.34s-.16,0-.19.12-.07.09-.1.13c-.15-.42-.77-.46-.8-1,0-.14,0-.34.16-.36s.3,0,.38.14c.44.87,1.34.75,2.08,1,.06,0,.15,0,.17.06.29.56,1,.9.93,1.64a.8.8,0,0,0,.05.44c.38.63-.09.59-.45.53a2.93,2.93,0,0,1-2-1.36C55.87,66,55.53,65.9,55.35,65.55Z" transform="translate(-7.35 -4.96)"/><path d="M77.17,105.07c-.15.25-.6.41-.08.68,0,0,0,.16,0,.16-.52.19-.37.88-.84,1.12a2.62,2.62,0,0,0-.53.33c-.3.24-.66.59-1,.32a1.31,1.31,0,0,1-.34-1.06c0-.12.09-.23,0-.36-.34-.47-.38-.68.36-.73A7,7,0,0,0,77.17,105.07Z" transform="translate(-7.35 -4.96)"/><path d="M66.4,100.08s-.09-.07-.11,0c-.47.3-1-.1-1.5.17s-.88.12-.9.75c0,.08-.36,0-.55-.09s-.53-.34-.78,0-.93.33-1.26-.25c.29-.08.38.24.63.28s0-.63.49-.34c.12.07.17-.2.08-.26s-.16-.4-.21-.6a.26.26,0,0,0-.24.23c0,.15-.13.16-.23.08a.24.24,0,0,1-.12-.27c0-.16.9-.35,1-.22a.7.7,0,0,0,.32.19c.79.35.85.33,1-.53l.59.53c.17.16.31.07.44,0a1,1,0,0,1,.44-.32c.71-.23.92-.07.86.75Z" transform="translate(-7.35 -4.96)"/><path d="M86.75,118.15c-.69,0-.88-.25-.91-1,0-.21-.24-.35-.2-.69.08-.66.41-.43.73-.33s.34.41.61.08c.06-.08.2,0,.23.14a2.58,2.58,0,0,1-.13,1.69C87,118.19,86.89,118.19,86.75,118.15Z" transform="translate(-7.35 -4.96)"/><path d="M166.16,117c.31.47,1,.58,1.23,1.12.17.38.31.25.52.1s.38-.16.43.09a1.44,1.44,0,0,0,1.08,1c.4.14.75.38,1.15.52.14,0,.24.11.16.27s-.2.11-.33,0c-.44-.19-1.07,0-1.3-.62,0,0-.19,0-.3,0a2,2,0,0,1-1.63-1.12,1.17,1.17,0,0,0-.68-.7.83.83,0,0,1-.49-.48C165.93,117.13,166,117.05,166.16,117Z" transform="translate(-7.35 -4.96)"/><path d="M74.14,16.41c-.15.24.17.39.17.61-.32.22-.49-.1-.68-.23-.47-.31-.66-.91-1.21-1.14-.1,0-.07-.13,0-.21s.18-.22.3-.13c.61.48,1.39.35,2.06.61.4.16.63.6,1.1.73-.5-.08-.5.59-.95.56S74.56,16.52,74.14,16.41Z" transform="translate(-7.35 -4.96)"/><path d="M108.8,57.93c.39-.86.34-1-.36-1.35.11-.18.27-.12.38,0,.53.34,1.31.22,1.64.93.11.24.22-.06.35-.06a.53.53,0,0,1,.45.18c.11.15,0,.28-.09.39s-.24.15-.15.31c.5.82-.33.36-.5.46s-.17-.14-.12-.29c.19-.55-.3-.67-.53-.52C109.45,58.21,109.18,57.85,108.8,57.93Z" transform="translate(-7.35 -4.96)"/><path d="M22.39,83.86c-.08-.2,0-.32.08-.45s-.13-.49.22-.49a.43.43,0,0,1,.43.46c0,.3.18.35.43.44a1.14,1.14,0,0,1,.72.79.32.32,0,0,1-.12.4c-.24.13-.21-.1-.28-.21a.26.26,0,0,0-.34-.09c-.15.08,0,.16,0,.24.13.38-.16.43-.4.5a.54.54,0,0,1-.58-.18,2.8,2.8,0,0,1-.24-.79s0-.24.14-.07.31.19.44,0,0-.4-.14-.58S22.55,83.92,22.39,83.86Z" transform="translate(-7.35 -4.96)"/><path d="M119.63,66.18c-.53.28-1,.26-1.08-.44,0-.33-.32-.21-.47-.33L117.5,65c.14-.28.37-.15.54-.21s.4,0,.31-.28-.25-.06-.39,0c-.33.14-.61.19-.5-.34h0c.11.3.27.34.39,0s.22-.34.42-.3.28.25.29.49a2.51,2.51,0,0,0,1.08,1.85Z" transform="translate(-7.35 -4.96)"/><path d="M108.89,62.54a1.4,1.4,0,0,1,.26.16c.27.22.31.82.94.38.3-.21.45.48.9.45-.59.49-1.14.47-1.55,0C109.22,63.24,108.41,63.26,108.89,62.54Z" transform="translate(-7.35 -4.96)"/><path d="M60.38,68.5a5.89,5.89,0,0,1-.31-2.58,2.06,2.06,0,0,0-.06-.78c0-.07-.14-.2,0-.26s.22,0,.25.18.13.29.11.43c-.11.89.22,1.75.13,2.64A2.83,2.83,0,0,1,60.38,68.5Z" transform="translate(-7.35 -4.96)"/><path d="M145.51,125.26c.49-.32.88-.05,1.25.13.14.07.28.35.17.49s-.39.29-.52.24-.36,0-.48-.09c-.33-.13.12-.2.08-.32S145.68,125.48,145.51,125.26Z" transform="translate(-7.35 -4.96)"/><path d="M52.2,93.19c.2.19.62.08.63.51a.54.54,0,0,1-.57.55c-.49,0-.44-.51-.54-.78S52,93.38,52.2,93.19Z" transform="translate(-7.35 -4.96)"/><path d="M98.61,105c.2-.08.21-.23.18-.41-.08-.53-.07-.55.53-.77-.41.28-.52.51-.09.87s-.07.62-.28.9c-.22-.17-.1-.49-.33-.6Z" transform="translate(-7.35 -4.96)"/><path d="M151.55,110.64a1,1,0,0,0-.54-.17c-.64,0-.32-.47-.43-.73,0,0,.14-.14.23-.18s.31,0,.32.12C151.17,110.05,151.49,110.28,151.55,110.64Z" transform="translate(-7.35 -4.96)"/><path d="M65.89,87.3c.33-.45,1-.44,1.37-.92a.19.19,0,0,1,.32.05c.07.13,0,.39-.06.39C66.93,86.84,66.54,87.54,65.89,87.3Z" transform="translate(-7.35 -4.96)"/><path d="M59.59,88.11c.46-.66,1.11-.35,1.89-.4a2.2,2.2,0,0,1-1.88.38Z" transform="translate(-7.35 -4.96)"/><path d="M171.44,115.31c0,.51.68.46.77.9,0,.07.08.13.14.21a1,1,0,0,1-1.15-.92c0-.15.1-.23.26-.19Z" transform="translate(-7.35 -4.96)"/><path d="M53.11,72.13a.48.48,0,0,0,.3-.53s0-.07,0-.07.3-.13.41,0,.38.42.2.72c-.08.14-.2.26-.35.14A1.89,1.89,0,0,0,53.11,72.13Z" transform="translate(-7.35 -4.96)"/><path d="M99.63,104c.44.2.41.66.57,1,.09.19-.1.24-.26.24s-.45-.07-.35-.23C99.82,104.63,99.42,104.3,99.63,104Z" transform="translate(-7.35 -4.96)"/><path d="M25.28,96.21c.35-.54.64-1,1.3-.93C26.1,95.5,26,96.25,25.28,96.21Z" transform="translate(-7.35 -4.96)"/><path d="M102.81,112.9l-.12-.11c.22-.18-.19-.31,0-.48s.14,0,.2,0c.25,0,.81.42.45-.35a.24.24,0,0,1,0-.23c.1-.07.21,0,.27.09s.25.1.08.28-.16.68-.66.51C102.88,112.58,103,112.85,102.81,112.9Z" transform="translate(-7.35 -4.96)"/><path d="M73.38,71.8c.32-.12.5,0,.54.23a.22.22,0,0,1-.32.24c-.21-.1-.62.15-.63-.3S73.3,71.88,73.38,71.8Z" transform="translate(-7.35 -4.96)"/><path d="M171.46,115.32c-.17-.16-.27-.42-.6-.28s-.38-.07-.28-.29-.17-.43.1-.48.2.2.24.37.39.14.49.32.47.19,0,.34C171.44,115.31,171.46,115.32,171.46,115.32Z" transform="translate(-7.35 -4.96)"/><path d="M123,117.1c-.26-.11-.48-.15-.58-.4s-.18-.18-.24-.28-.44.29-.45-.15c0-.08.07-.2.15-.15.23.14.6,0,.72.29S123,116.73,123,117.1Z" transform="translate(-7.35 -4.96)"/><path d="M85.11,111.68c-.55.14-.64-.24-.8-.47,0-.06,0-.23-.12-.3s-.41-.11-.2-.31.28.09.41.19C84.69,111,84.63,111.48,85.11,111.68Z" transform="translate(-7.35 -4.96)"/><path d="M95,128.18c-.53.71-1,.1-1.48,0C94,127.91,94.46,128.37,95,128.18Z" transform="translate(-7.35 -4.96)"/><path d="M47.53,69c-.18-.26-.08-.5-.06-.74s-.07-.3.12-.38.22,0,.21,0,.21.34.09.54S47.67,68.79,47.53,69Z" transform="translate(-7.35 -4.96)"/><path d="M107.12,61.16c-.06.27-.32.29-.49.33s-.3-.22-.34-.36.22-.28.36-.3S107,61,107.12,61.16Z" transform="translate(-7.35 -4.96)"/><path d="M131.79,121.75c.14-.13.29.06.47,0-.08-.35-.41-.06-.49-.28.22-.46.48,0,.72,0l0,.54C132.26,122,131.86,122.28,131.79,121.75Z" transform="translate(-7.35 -4.96)"/><path d="M98.53,114.63c-.11.05-.25,0-.21-.1a1.58,1.58,0,0,1,.32-.5c0-.06.2,0,.26.09s0,.17.09.27.43-.4.43,0c0,.27-.39,0-.59.13A1.67,1.67,0,0,1,98.53,114.63Z" transform="translate(-7.35 -4.96)"/><path d="M133.41,122.31c-.35-.08-.41-.39-.65-.49-.07,0-.09-.2,0-.19.52.17,0-.45.33-.42s.21.21.23.38S133.36,122,133.41,122.31Z" transform="translate(-7.35 -4.96)"/><path d="M87.77,125.52c-.36,0,0,.52-.4.59-.22,0-.4.08-.45-.15s.09-.24.31-.19.07-.2.14-.28.14-.18.26-.13S87.71,125.44,87.77,125.52Z" transform="translate(-7.35 -4.96)"/><path d="M96.56,109.52c-.07.3.11.46.18.67.15.46-.44.14-.5.45,0,.07-.13-.14-.17-.24a.53.53,0,0,1,0-.18C96.67,110.33,96.23,109.76,96.56,109.52Z" transform="translate(-7.35 -4.96)"/><path d="M54,114.58c-.19.21-.38.28-.46.47s-.17,0-.22,0-.17-.3.08-.4c0,0,.1-.11.09-.15s-.25-.38,0-.4S53.52,114.6,54,114.58Z" transform="translate(-7.35 -4.96)"/><path d="M131.3,122.55c.22.35.73.29.83.8C131.64,123.31,131.18,123.32,131.3,122.55Z" transform="translate(-7.35 -4.96)"/><path d="M96.45,123.54c.06.27.5.44.27.72s-.33-.26-.57-.15C96,123.82,96.4,123.77,96.45,123.54Z" transform="translate(-7.35 -4.96)"/><path d="M98.85,127.37c-.47.17-.81-.19-1.19-.11-.13,0-.12-.09-.12-.16a.37.37,0,0,1,.07-.16C97.94,127.26,98.52,126.85,98.85,127.37Z" transform="translate(-7.35 -4.96)"/><path d="M104.58,115.87c-.69.13-.86,0-.86-.4a.3.3,0,0,1,.1-.22.11.11,0,0,1,.18.08C104,115.77,104.44,115.64,104.58,115.87Z" transform="translate(-7.35 -4.96)"/><path d="M90.14,119.56c.38.62-.68.49-.47,1C89.28,120,90,119.91,90.14,119.56Z" transform="translate(-7.35 -4.96)"/><path d="M110.72,120a1.25,1.25,0,0,0-.77.19c-.37.22-.64,0-.48-.51C109.75,120.31,110.36,119.38,110.72,120Z" transform="translate(-7.35 -4.96)"/><path d="M169.76,113.26a.73.73,0,0,1-.76-.19c-.08-.07-.21-.11-.1-.22a.91.91,0,0,1,.33-.15C169.33,113,169.71,113,169.76,113.26Z" transform="translate(-7.35 -4.96)"/><path d="M104.87,120c-.27.13.35.52-.05.69-.13.06-.34-.1-.4-.25C104.25,120,104.88,120.14,104.87,120Z" transform="translate(-7.35 -4.96)"/><path d="M53.91,72.89c.26.06.6-.07.66.32,0,.2-.1.23-.21.24C54,73.47,54,73.12,53.91,72.89Z" transform="translate(-7.35 -4.96)"/><path d="M104.08,121.63c-.92.36-.92.36-1.31-.38C103.19,121.65,103.59,121.49,104.08,121.63Z" transform="translate(-7.35 -4.96)"/><path d="M77.22,16.29c.15.46.12.81.54.94C77,17.44,77,17.44,77.22,16.29Z" transform="translate(-7.35 -4.96)"/><path d="M114.81,112.81c-.25.46-.59.28-.9.25-.07,0-.1-.14,0-.2A.74.74,0,0,1,114.81,112.81Z" transform="translate(-7.35 -4.96)"/><path d="M82.25,123.3c.62.63.7.8.52,1.25-.16-.21,0-.53-.34-.64S82.38,123.48,82.25,123.3Z" transform="translate(-7.35 -4.96)"/><path d="M117.49,126.32l-.62-.57a2,2,0,0,0,.94-.08C117.9,126,117.22,125.91,117.49,126.32Z" transform="translate(-7.35 -4.96)"/><path d="M96.63,82.93c.44-.16.84-.25.87.43a1.26,1.26,0,0,0,.19.52c.09.15.12.47-.16.51s-.31-.25-.3-.38C97.24,83.51,96.88,83.28,96.63,82.93Z" transform="translate(-7.35 -4.96)"/><path d="M103.52,82.57c.33,0,.6,0,.87,0a.28.28,0,0,1,.3.19.29.29,0,0,1,0,.23c-.17.15-.18-.11-.27-.12A2.65,2.65,0,0,1,103.52,82.57Z" transform="translate(-7.35 -4.96)"/><path d="M162.42,45.14a.09.09,0,1,1,.11,0A.08.08,0,0,1,162.42,45.14Z" transform="translate(-7.35 -4.96)"/></svg>