<svg id="Calque_1" data-name="Calque 1" xmlns="http://www.w3.org/2000/svg" viewBox="0 0 109.23 460.84"><defs><style>.cls-1{fill:#fff;}</style></defs><path d="M68.05,221.41l.4-.1c0-.05-.07-.14-.1-.14a29.11,29.11,0,0,1-9.56-2.81,21,21,0,0,0-2.27-.58c-1.71-.54-2-2.26-2.78-3.53-.25-.4-.47-.82-.71-1.23-1.54-2.63-3.11-5.25-4.63-7.89-.82-1.44-1.34-3.09-3.06-3.8a1.13,1.13,0,0,1-.52-.47c-.84-1.46-2.3-2-3.73-2.66-1.19-.52-2.37-1.07-3.55-1.61l-.4.4c.17.36.25.9.53,1,1.26.65,2.57,1.19,3.86,1.77a2.57,2.57,0,0,1,.74.37c1,1,2.07,2,3,3,.69.73.06,3.32-.86,3.75-.08,0-.17.08-.23.06-1-.45-2.11-.9-3.12-1.44a3.2,3.2,0,0,1,.54-1.33c.48-.59,1.73-1,.12-1.71a.18.18,0,0,1-.07-.1l-.39-1c-.46.5-.94,1-1.36,1.51a13,13,0,0,0-.77,1.16L38,203.12c-.26-.23-.51-.48-.79-.7a2.13,2.13,0,0,1-.9-2.6c.4-1-.32-1.29-1-1.56-.8-.33-.91.24-1.22.84s-1,.7-1.52,1l0-.49a12.18,12.18,0,0,1-1.6-1.43c-.32-.41-.7-1.13-.55-1.49.42-1,0-1.63-.77-1.81-1.35-.33-1.94-1.44-2.72-2.32a20.16,20.16,0,0,1-4.33-9.31c-.56-2.6-1-5.23-1.42-7.84l.45-.17a2.37,2.37,0,0,1,.43.65,22.28,22.28,0,0,0,.52,2.32,2.3,2.3,0,0,0,1,1.28c.25.11.82-.42,1.13-.6A7.78,7.78,0,0,1,24,177.3a56.34,56.34,0,0,1-.87-6.16c-.05-.84.62-1.7.82-2.58a2.76,2.76,0,0,0-.12-1.53,2.72,2.72,0,0,1,.16-2.56c.18-1.47.28-2.56.46-3.64.16-.89.51-1.74.61-2.63s0-2.08,1.07-2.74c.16-.09.11-.51.16-.78a51.26,51.26,0,0,1,1.08-6,11.51,11.51,0,0,1,2-3.49,67.93,67.93,0,0,1,4.37-5.35,10.4,10.4,0,0,1,2.44-1.63c1.57-.91,3.13-1.84,4.76-2.64,2.61-1.29,5.23-2.68,8.27-1.31a11.89,11.89,0,0,0,1.19.39c-.2,1.13-1.24,1.23-2,1.35a9.05,9.05,0,0,1-2.62-.36l.17,1.08-1.32-1.07-.3.24c.26.37.44.9.8,1.08,1,.49.73,1.13.36,1.79a3.73,3.73,0,0,1-1,1.31c-2.68,1.78-4,4.76-6.1,7-.44.46-.92.89-1.36,1.32-.14.73-.32,1.55-.45,2.37-.26,1.58-.5,3.16-.73,4.74a32.17,32.17,0,0,0,1.37,13.59c.63,2.2,2.56,4,3.69,6.08,1,1.92,3.08,2.41,4.57,3.66A63.42,63.42,0,0,0,51.38,183c2.09,1.38,4.27,2.64,6.3,4.09,1.81,1.3,3.5,2.77,5.19,4.23a15.75,15.75,0,0,1,1.3,1.69c1,1.21,1.82,2.52,3.65,3,2.39.65,4.64,1.72,7.13,2.2a31.45,31.45,0,0,1,6.77,2.42,9.21,9.21,0,0,1,2.66,2.26c.67.72,1,1.7,1.69,2.44,1.46,1.68,1.47,3.84,1.92,5.81a8.39,8.39,0,0,0,4.05,6,30.57,30.57,0,0,0,3.79,1.52c.26.1.6.07.79.23,1.58,1.34,3.34.48,5,.48,1.19,0,2.37.09,3.55.09.5,0,1-.22,1.48-.21.3,0,.82.21.85.4a47.55,47.55,0,0,1,.71,5.05c.12,1.59,0,3.2,0,4.89l-1,.72.21.34,1.22-.24c-.07,3.7.84,7.32.19,11l.79,1.52-1.59.1,1.4,1.78a3,3,0,0,1-.2.42,6.34,6.34,0,0,1-.51.68,5.63,5.63,0,0,1-.58-.5,16,16,0,0,0-1.13-1.42c-.21-.19-.64-.15-1-.23v1.36c2.28.49,2.42,2.58,3.33,4l-.26.27a6.21,6.21,0,0,1-.94-1.06,6.29,6.29,0,0,0-.54-1.27,2.49,2.49,0,0,0,.41,2.36,4.36,4.36,0,0,0,.69,1c1.22,1.12.23,2.41.32,3.62a2.82,2.82,0,0,0,.37,1.09c-.18,1-1.6,1.93-.16,3-.2,1.43-.39,2.78-.59,4.14,1.82.31,2,.55,1.74,2.91l-.85-.18c.07.37,0,.84.19.93a5.08,5.08,0,0,0,1.46.32c.64,1.1.26,2.55.12,3.94-.08.78-.5,1.52.25,2.21.16.15.16.53.17.8.14,2.91.28,5.81.4,8.72.07,1.83.13,3.66.13,5.49a6.35,6.35,0,0,1-.34,1.45c-.06.23-.28.54-.2.65,1.17,1.66.35,3.56.61,5.33.32,2.31.14,4.68.3,7,.25,3.54.64,7.07.89,10.6.11,1.55,0,3.12.06,4.67,0,2.58,0,5.17,0,7.75,0,1.46,0,2.92,0,4.38a1.5,1.5,0,0,0,0,.47c1.09,3,.6,6.25,1,9.36.27,2.14.37,4.3.75,6.41a69.14,69.14,0,0,1,.73,14.08,34.13,34.13,0,0,1-.07,4.64,4.78,4.78,0,0,0,.07,3.35c.66,1.46.35,3.37.42,5.08a14.32,14.32,0,0,1,0,2.7,23.49,23.49,0,0,1-.68,2.75,1,1,0,0,0-.06.31c.53.46,1.24.78,1.25,1.14,0,1.09,1.19,2.3-.25,3.31-.65.45-.72,2.45-.38,3.24a12.25,12.25,0,0,1,.59,2.44c.07.3,0,.69.12.92.86,1.23.85,2.64,1,4,.34,2.92.75,5.83,1.11,8.74.07.51,0,1,.09,1.55.24,1.6.56,3.18.77,4.78a13.73,13.73,0,0,1,0,2.22,6.91,6.91,0,0,0-.1,1.19c.36,2.43,0,4.88.57,7.34a46.21,46.21,0,0,1,.66,6.9c.27,3.27.55,6.53.8,9.79.09,1.26.07,2.53.16,3.79.07.91.27,1.8.34,2.71s0,1.59,0,2.63c.06.11.45.52.44.92s-.51.66-1,1.2l-.16-1.58c-1.08.11-1.3.49-.84,1.35.55,1,1.2,2,1.65,3.12a17.06,17.06,0,0,1,.78,2.95c.33,1.64.69,3.28.87,4.93.58,5.1,1.14,10.21,1.57,15.32.23,2.82.23,5.65.26,8.48,0,1-.86,1.35-1.7,1.55-.42.09-.88.05-1.29.18-1.2.36-1.49.18-1.66-1-.48-3.26-1-6.53-1.48-9.78-.63-3.81-1.31-7.61-2-11.4-.41-2.31-.93-4.6-1.25-6.93s-.37-4.44-.58-6.66-.48-4.38-.67-6.57c0-.28.25-.58.33-.88s.39-.94.28-1.32a35.56,35.56,0,0,1-1.19-3.37,43.72,43.72,0,0,1-.52-8.94,41.87,41.87,0,0,0-.86-6.81c-.09-.67-.22-1.34-.28-2-.39-4.27-.74-8.55-1.16-12.83-.22-2.22-.63-4.42-.85-6.64-.24-2.41-.31-4.83-.56-7.24-.22-2.14-.63-4.25-.88-6.39a10.74,10.74,0,0,1,.12-2l.52-.13c.39.76.77,1.52,1.12,2.22l2.15-.75c.14-1.27-1.37-1.64-1.84-2.71-.42.17-.79.33-1.16.46-.77.25-1.27,0-1.38-.84a17.69,17.69,0,0,1-.22-2.71c0-.4.38-.79.59-1.18.28.22.54.46.84.66s.63.35.94.52c0-.33-.12-.65-.14-1s0-.61,0-.92,0-.77-.07-1.38l-2.11,1.83c-.29-1.82-.54-3.28-.75-4.76-.39-2.8-.76-5.61-1.12-8.41-.38-3.05-.66-6.11-1.12-9.14s-1.13-6.17-1.67-9.26c-.38-2.18-.71-4.37-1.06-6.56-.37-2.36-.73-4.73-1.12-7.09-.93-5.7-1.9-11.4-2.82-17.11-.3-1.85-.44-3.72-.75-5.57-.17-1-.58-2-.76-3.08-.13-.74-.29-1.46.81-1.92s1-2.37-.31-3.19c-.25,1,.88,2.31-.88,3-.14-.5-.3-1-.4-1.5-.48-2.17-.94-4.34-1.4-6.51-.19-.93-.32-1.87-.53-2.79-1-4.31-2-8.61-2.93-12.92-.19-.85-.17-1.75-.34-2.61-.5-2.44-1.1-4.86-1.56-7.31-.36-1.95-.54-3.94-.89-5.9-.29-1.6-.7-3.18-1.08-4.76-.61-2.5-1.22-5-1.87-7.5-1.25-4.81-2.53-9.62-3.79-14.43a71.69,71.69,0,0,0-2-7.58,23.09,23.09,0,0,0-3.13-5.23c-.42-.58-1.44-.77-2.22-1-1.27-.41-2.58-.74-3.87-1.1Zm-1.94-21.17-.07.26c-.6.05-1.2.08-1.79.16a5,5,0,0,0-3.57,2.16c-1.56,2.35-1.45,4.92-.42,7.52.91,2.27,2.92,2.83,4.93,3.47a5.47,5.47,0,0,0,4.5,0c.86-.47,1.5-1.35,2.38-1.78a5.2,5.2,0,0,0,2.77-3.55,3.85,3.85,0,0,0-.18-2.87c-1.32-1.8-2.59-3.79-5-4.39C68.45,200.91,67.28,200.56,66.11,200.24ZM25.68,161.16l.54.43a6.36,6.36,0,0,0,1.32-1c.58-.74,1-1.57,1.67-2.55.08.17.05,0-.05-.11a3.63,3.63,0,0,0-1.27-.82c-.78-.14-.64.58-.77,1a8.92,8.92,0,0,1-.59,1.15C26.23,159.92,26,160.54,25.68,161.16Zm75.24,130.21c-2,2.05-2.07,2.55-.8,3.61l.5-.94,1.28.76.34-.24ZM25.09,169.43c1.2-.13,2.12-.05,2.28-1.27.22-1.65-.13-2.38-1.29-2.64a5.32,5.32,0,0,1,0,1.44A25.3,25.3,0,0,1,25.09,169.43Zm81.67,134c-.81,1.71-.22,3.12.4,4.57C108.74,306,108.7,305.46,106.76,303.43ZM102.89,310c1.65-2.52,1.65-2.52,1.41-2.93-.67,0-1.18,0-1.69,0a1.27,1.27,0,0,0-1.25,1.77l1-.85Zm2.21,4.11c1.41-2.55,1.41-2.55.07-3.62l-.47,1.4-.88-1.54-.37.15a4.72,4.72,0,0,0,.24,1.21C104.12,312.54,104.64,313.33,105.1,314.11Zm2.23-15.22-.34.17-.44,3.89a2.69,2.69,0,0,0,2-2.19C108.62,300.18,107.77,299.52,107.33,298.89ZM32.14,160.05l-1.42-1.43c-.45.53-1.18,1-1.29,1.59-.21,1.12.9.75,1.45.8C31.19,161,31.55,160.52,32.14,160.05Zm76.26,78.07-.23-.35c-.43.26-1.23.58-1.2.78a17.94,17.94,0,0,0,.84,2.8l1.44-1.5-1.21-.57Zm4.11,152.43.21,0,.6-3.74c-1.2-.57-1.65-.37-1.57,1.08A12.42,12.42,0,0,0,112.51,390.55Zm-2.25-22.63-.56.14c.14.89.23,1.78.45,2.64.06.21.61.45.87.4a.93.93,0,0,0,.4-.82A25.79,25.79,0,0,0,110.26,367.92Zm-7.1-63.6h.37a7.87,7.87,0,0,0,.48-2c0-.32-.57-.64-.88-.95-.18.34-.54.71-.51,1A10.72,10.72,0,0,0,103.16,304.32Zm11.57,116.27a2.25,2.25,0,0,0-.16-3.37C113.81,418.43,115.28,419.47,114.73,420.59ZM105.9,252.12c1.21-.5.46-1.39.65-2.09C104.93,250.24,104.9,250.35,105.9,252.12Zm1,46.35c.66-.33,1.41-.61,1.38-.71a10.71,10.71,0,0,0-.73-1.81l-.37.08ZM106,316.68c1.2-.64,1.32-1.46.29-2.49Zm-4.38-17.76a5.67,5.67,0,0,0-.25,1.43c0,.25.31.52.55.68s.51-.13.54-.25C102.63,300.06,102.75,299.29,101.66,298.92Zm-3.34-4.48-1-1.67c-.16.22-.49.47-.45.65C97,294,97,294.89,98.32,294.44Zm14.84,99.61.64.22.62-1.53-.84-.26ZM86.73,246.36l.34-.07c.21-1.91.17-2-.85-2.64Zm18.44-19.1.67.94a7.6,7.6,0,0,0,.68-1.12c0-.08-.38-.51-.46-.48A5.16,5.16,0,0,0,105.17,227.26ZM84.62,212.84l.62-.11c-.71-.51,1-1.48-.62-2Zm31.52,217.67c-.82,1-.3,1.42.64,1.68ZM105.2,248.88l.35.05c.1-.56.23-1.11.28-1.68,0-.07-.4-.18-.63-.28Zm-28-44-.48.21c-.06.82.71,1.17,1.07,1.76l.34-.19Zm41.12,230.19c.1-.55.19-1.11.34-1.95C117.62,433.75,117.46,434.29,118.36,435.05Z" transform="translate(-16.96 -24.96)"/><path d="M20.84,404.63l-.53-2.94-.36,0,.83-.94-.91-1c.34-.46.62-.88.95-1.25a2.41,2.41,0,0,1,.63-.36c.12.23.35.47.33.69-.08.86-.24,1.72-.37,2.49a8.75,8.75,0,0,0,1.54,0,1,1,0,0,0,.62-.6,12,12,0,0,0,.17-2.07q0-1.47-.06-2.94c0-.59.1-1,.79-.81h0c0,.63-.08,1.26-.11,1.88-.11,2.38-.23,4.76-.34,7.14,0,.88-.05,1.75,0,2.63s.15,1.59-1.19,1.58c1.22.59.95,1.46.87,2.38-.18,2-.14,3.94-.31,5.89s-.56,4.18-.77,6.27c-.2,1.93-.28,3.87-.43,5.81a6.59,6.59,0,0,1-.26,1,5.39,5.39,0,0,0-.38-1.85c-.74-1.2-1.64-2.3-2.59-3.59a12.86,12.86,0,0,0-.09,5.45c.07.26,1,.37,1.52.36a6.39,6.39,0,0,0,1.57-.41l-1.41,1,.35.39.76-.4c.27,1.74.94,3.34.39,5.1a8.87,8.87,0,0,0-.25,2.13c-.28,6.14-.47,12.28-.86,18.41-.27,4.05-.93,8.08-1.21,12.13-.19,2.77,0,5.56-.07,8.34,0,1.44-.15,2.87-.15,4.31a3.55,3.55,0,0,0,.48,1.2c.28-.32.78-.63.81-1,.18-2,.24-4,.34-5.94,0-.55.05-1.11.11-1.65,0-.36.16-.71.17-1.07.07-2.29.11-4.59.17-6.89a5.69,5.69,0,0,1,.14-1.3,7.87,7.87,0,0,0,.48-3.85,4.61,4.61,0,0,1,.17-1.54c.17-1.3.38-2.59.51-3.89.19-1.93.32-3.86.47-5.79.12-1.5.22-3,.32-4.51l.78-12q.39-6,.79-11.94c.06-.83.16-1.66.25-2.5.36-3.48.84-7,1-10.46.19-3.1,0-6.21.1-9.3.14-4,.44-8.05.61-12.07.08-2,0-4,.07-6.06a4.86,4.86,0,0,1,.44-1.85c1,1.59.13,3.59,1.17,5.09,1.33-.32-.38-2.71,2.26-2A9.67,9.67,0,0,0,29.76,379c-.75-.68-.52-1.16-.12-2l.56,1.5.39,0c.11-.43.44-1,.28-1.27-.51-.85-.38-2.23-1.67-2.42-.5-.07-1.06.34-1.71.57-.64-1.8.35-3.76.13-5.8a5,5,0,0,0,1,0c.15,0,.36-.23.37-.37s-.2-.4-.32-.4c-1.24,0-1.13-.67-.95-1.6a15,15,0,0,0,0-2.5c.09-5.85.17-11.7.3-17.54.14-6.3.36-12.6.5-18.9.09-4.15.09-8.31.18-12.46s.32-8.12.38-12.19c0-2.9,0-5.8-.16-8.7-.19-4.46-.52-8.92-.72-13.38-.08-1.91,0-3.82.06-5.73a5.74,5.74,0,0,1,.18-.9l.35-.2,1.44,1.74.84-2.61H29.66l0-.31,1.08-.62c-.35-.9-.7-1.79-1.09-2.81l-1.16,1,.13-1.95a4.74,4.74,0,0,0,1.44.54c.2,0,.43-.64.65-1a2.41,2.41,0,0,0-.43-.24c-2-.43-2-.43-1.22-2.26a2.92,2.92,0,0,0,.08-.94c0-.32,0-.64,0-.76.43-.55.75-1,1.1-1.41a8.36,8.36,0,0,1,.61-.58c.61,1.07,1.87.31,2.78,1l.59-2.33c1.39-.18,2.54.65,3.08,2.57.56-1.22.67-2.7,2.09-2.86,1.79-.21,1.66,1.4,2,2.56l.46-.11-.34-3.79-1.24.69c-1-1.32-1.39-1.28-2.37,0a1.37,1.37,0,0,1-1.27.3,2.5,2.5,0,0,0-3.13.79c-.43.55-.94,1-1.41,1.56l-.05-.41-2.33-.82-.78,1.34-.41-.11c.06-1,.14-1.91.16-2.87a10.81,10.81,0,0,0-.12-1.49c0-.16-.13-.36-.07-.45,1-1.56.28-3.19.19-4.79-.13-2.3-.4-4.6-.49-6.91-.05-1.13.24-2.27.22-3.41,0-1.58-.26-3.15-.29-4.72a2.85,2.85,0,0,1,.48-1.78,1.94,1.94,0,0,0,.06-2.42,5.84,5.84,0,0,1-.78-3.89,21.08,21.08,0,0,0-.11-2.85c0-1.19.25-2.38.29-3.57a4.59,4.59,0,0,0-.32-1.71c-.37-1,.13-2.38,1.15-2.46,1.79-.12,3.49-.67,5.37-.53,2.46.18,5-.16,6.53-2.72a11.77,11.77,0,0,1,2.83-2.8c.63-.5,1.06.16,1.4.68.66,1,1.32,2,2,3l1.56,2.21A2.44,2.44,0,0,1,50.8,223a6.13,6.13,0,0,0,.38,5.42c.26.51-.18,1.4-.35,2.1s.07,1.14.89,1.2a24,24,0,0,1,0-3.8,19.59,19.59,0,0,1,1.33-4.44c.14-.34,1.25-.34,1.91-.3a1.9,1.9,0,0,1,.27,1.41c-1.53,3-1.55,6.3-2.4,9.43-.23.83-.52,1.65-.72,2.49-.52,2.3-1.09,4.6-1.5,6.92-.47,2.63-.82,5.28-1.18,7.93-.6,4.5-1.25,9-1.75,13.52q-.78,7-1.3,14.08c-.43,5.89-.56,11.8-1.08,17.68-.81,9.07-1.85,18.11-2.75,27.17-.32,3.22-.43,6.46-.76,9.67-.46,4.48-1,8.94-1.54,13.42-.45,4-.89,7.93-1.29,11.91-.34,3.32-.62,6.65-.91,10-.16,1.78-.27,3.57-.43,5.36-.51,5.44-1,10.87-1.55,16.31-.31,3.44-.5,6.9-.87,10.34s-.92,6.63-1.3,9.95-.71,6.82-1,10.23c-.47,5-.87,10-1.38,14.94-.69,6.83-1.5,13.65-2.19,20.48-.48,4.77-.82,9.55-1.25,14.32a20.13,20.13,0,0,1-.53,3.9,26.33,26.33,0,0,0-.88,7.23,10.91,10.91,0,0,1-1.06,3.45,1,1,0,0,1-.84.49c-1.12-.36-2.22-.81-3.31-1.25a11.53,11.53,0,0,0-3-1.18c-1.09-.08-1.5-.63-1.49-1.43.06-2.42.28-4.84.4-7.26s.24-4.77.32-7.16.13-4.93.16-7.39c0-3,0-6.07.05-9.11,0-3.93,0-7.87.05-11.81,0-1.67.15-3.35.16-5,0-3.71,0-7.43,0-11.14a1.56,1.56,0,0,1,.08-.43l1.45,1a8.4,8.4,0,0,0,1.47-1.19c.31-.41.67-1.07.54-1.47a16.47,16.47,0,0,0-1.47-2.73l-2,3.1c0-.69,0-1.38,0-2.06.14-4.23.33-8.45.43-12.68.08-3.07,0-6.14,0-9.22,0-2.38,0-4.76.16-7.14.15-3.07.42-6.12.59-9.19.1-1.73.12-3.47.17-5.2s.08-3.33.11-5c0-2.55.07-5.09.09-7.64q.07-7.19.14-14.38c0-3.71.05-7.42.15-11.14.07-2.75.27-5.49.39-8.24.1-2.42.17-4.84.24-7.26,0-.8.07-1.6.06-2.39-.06-2.53-.65-5.17-.11-7.56.75-3.28-.27-6.55.67-9.81,1.27-.16,1.33-1.45,1.36-2.32s-.65-1.79-.82-2.78l.55.87c0-.49.18-.81.07-.95-1.92-2.48-1.54-5.47-1.63-8.25-.17-5.26.1-10.53.05-15.79,0-3.53-.3-7-.41-10.56-.08-2.57,0-5.14-.11-7.71-.12-2.18-.54-4.34-.66-6.51-.1-1.79-.56-3.52-.15-5.4.35-1.62-.12-3.4-.15-5.12,0-1.31.06-2.62.07-3.93,0-1.58,0-3.17,0-4.75a20.83,20.83,0,0,1,.08-2.85,3.46,3.46,0,0,1,.71-1.5q1.45-2,3-3.89c.37-.45.86-1,1.36-1.09A1.21,1.21,0,0,1,26,221.11a47.83,47.83,0,0,1,.42,5.71c-.14,3.94-.56,7.87-.72,11.81-.16,4.13-.13,8.27-.26,12.4-.05,1.86-.39,3.72-.43,5.59,0,1.63.25,3.26.27,4.89,0,3.19,0,6.39,0,9.58s.27,6.29.35,9.43c.08,3.55.08,7.1.14,10.65.06,2.83.17,5.66.24,8.49,0,.93,0,1.86,0,2.79l-.41,0c0-.4-.07-.8-.12-1.2a6.17,6.17,0,0,0-.22-1.63c-.17-.38-.63-.64-1-.95a11.42,11.42,0,0,0,0,1.17,23.76,23.76,0,0,0,.44,2.91,2.82,2.82,0,0,0,.95,1.3c.54,2.06-.92,3.6-1.84,5.39,1.47.39,1.09-.9,1.72-1.43a3.87,3.87,0,0,1,.27.85c.11,2.87.21,5.73.3,8.6.08,2.54.18,5.09.18,7.64,0,2-.16,4.06-.2,6.1,0,1.83,0,3.67,0,5.5s-.21,3.4-.27,5.1c-.1,2.85-.16,5.71-.24,8.57-.08,3.07-.15,6.15-.24,9.22q-.11,3.51-.23,7c0,1.13-.06,2.27-.17,3.4a4.32,4.32,0,0,1-.5,1.18c-.11-.4-.23-.8-.34-1.2,0-.22-.07-.44-.18-1.11l-2.7,2.7.24.29,1.55-1.11c.62.59,1.19,1.1,1.73,1.65A.74.74,0,0,1,25,373c-.13,1.71-.25,3.41-.46,5.11a.94.94,0,0,1-.68.61c-.84.08-1.7,0-2.54,0-.21,0-.55.18-.57.32a.92.92,0,0,0,.22.71c.57.53,1.18,1,1.88,1.61l-.72.89-.94-1.37L21,381l.44,3.11,1.15.16a5.65,5.65,0,0,0,.05,5.45c-.14-.09-.29-.17-.42-.27s-.29-.24-.44-.36l-.38.07.21,2.38,1-.15-.31,1.07a1.91,1.91,0,0,0-2.6,1.35c-.14,1.08-.22,2.17-.33,3.25,0,0-.05.1,0,.11,1.11,1.08-.26,2-.16,3s.33,1.88.52,2.82a2.57,2.57,0,0,0,.31,1,3.6,3.6,0,0,0,.86.67c-.78.87-.54,1.84-.5,2.78l.48,0ZM42.13,273.08c1-1.23.59-1.76-.61-2.32l.64,2.35A5.35,5.35,0,0,0,41,273c-1.24.16-1.67.89-1,2.05l.21-1.41.92,1.23C41.46,274.21,41.8,273.65,42.13,273.08Zm1-35.75a10.54,10.54,0,0,1-.11,1.13c-.19.94-.5,1.86-.6,2.8a7.35,7.35,0,0,0,.24,1.85c.17-.18.52-.39.61-.67.46-1.49.87-3,1.26-4.5,0-.2-.12-.44-.2-.72l-1.21.12c.74-.82.51-1.53-.31-2.09-.18-.13-.53,0-.8,0a2.9,2.9,0,0,0,.21.78C42.46,236.47,42.8,236.89,43.1,237.33ZM23.13,321l1-2.1.6,1.17L25,320l-.55-5.2c-2.31.34-2.64.68-1.95,1.94l.28-.21c.31-.26.62-.53.95-.76,0,0,.36.33.33.41a3.08,3.08,0,0,1-.6,1,4.85,4.85,0,0,0-.65,3.59c0,.09.21.11.31.16L21.83,323l1.24,1.11c.17-.89.35-1.58.41-2.27C23.5,321.55,23.25,321.25,23.13,321Zm20.93-70.77c-.05-.22,0-.5-.15-.65-1.19-1.35-2.39-2.68-3.63-4-.12-.12-.61,0-.79.11-.66.54-1.09.62-1.36-.35s-.94-.82-1.61-.5a4.61,4.61,0,0,0-.73.51c-.41-1.05-.21-1.64,1-1.61l0-.32-1.9-1.1c-.08.9-.15,1.5-.17,2.1s0,1.27,0,1.93c.19.11.71.24.76.48s-.23.7-.38,1.06l-1.6-.93.25,2.73c.4-.06.76-.15,1.13-.17.71-.06,1.37-.1,1.31-1.11a2.06,2.06,0,0,1,.36-1c.12-.2.38-.5.52-.47a.8.8,0,0,1,.54.52,8.93,8.93,0,0,1,.14,1.47l.3.13a3.61,3.61,0,0,1,.66-.9c.63-.48,1.32-.88,2-1.32a13,13,0,0,1,.8,1.74,11.86,11.86,0,0,1,.26,1.79Zm-12-.1c.26-.34.56-.59.52-.67-.72-1.4.74-2.8,0-4.2a.53.53,0,0,1,.14-.51c.94-.5.78-1.32.81-2.17a4.9,4.9,0,0,1,.72-1.66l1.35.74c.15-1.36-2.07-2.81-.09-4a17.05,17.05,0,0,0-1-1.89,1.16,1.16,0,0,0-1.85-.23l.93,2.32L33,238l-.47-1.53c-.83.13-1.21.52-1,1.45a5.93,5.93,0,0,1-.09,1.38c0,.53,0,1.07,0,1.6l.34,0,.56-2.2.36,0a9.22,9.22,0,0,1,.81,2c0,.23-.6.61-1,.88s-.66.33-.93.56-.58.53-.57.79c.07,1.26.19,2.52.37,3.77C31.56,247.69,31.81,248.76,32.07,250.09ZM48.32,220c-1.85,1.36-2.78,3.06-2.3,4.73a5.38,5.38,0,0,1-.59,4.45c-.23.44.11,1.2.19,1.8a8,8,0,0,0,1.21-1c.19-.25.15-.69.22-1,.12-.62.27-1.24.36-1.87C47.71,224.76,48,222.52,48.32,220Zm-9.47,32.78c-.36,0-.83-.23-1-.07a1.39,1.39,0,0,0-.5,1.07,3.06,3.06,0,0,1-.86,3.12,1.28,1.28,0,0,0-.07,1.18c.2.41.68.68,1,1,.3-2.16.5-2.4,2-2.28l.45-1.62c.39.8.55,1.76,1.1,2.1s1.53.17,2.32.22c-.35-.72-1-1.06-1.2-1.57A2.27,2.27,0,0,0,40,254.27c-.58,0-1.14,1-1.69,1.47C37.51,254.58,37.32,253.46,38.85,252.73ZM35.49,269.9c-.22.59-.46,1.22-.69,1.86a8.68,8.68,0,0,0-.42,1.31,9.43,9.43,0,0,0,0,1.45c.89-.73,1.31-1.6,2.28-.58-.39-1.45-.51-2.57.8-3.08-.24-.54-.43-1-.63-1.47-.11-.23-.22-.65-.36-.66-1.18-.1-1-1-1-1.68s.17-1.5.2-2.25a1.18,1.18,0,0,0-.29-.7.62.62,0,0,0-.5.11c-.19.47-.58,1.25-.42,1.41.93.89.27,1.88.38,2.8C35,269,34.71,269.84,35.49,269.9ZM41.34,237l-.46-.37c-.24.32-.51.63-.74,1s-.19.57-.36.63-.49-.14-.66-.3a1,1,0,0,0-1.71.37,9.2,9.2,0,0,0-.88,2.55,2.55,2.55,0,0,0,.77,2,5.61,5.61,0,0,0,2.44.53c.2,0,.43-.25.64-.39l-.08-.34-2.54-.44-.15-3.33c1.11.17,2.12.64,2.66.32S41,237.76,41.34,237Zm-8.71,18.85c-1.55-.58-1.49,1.07-2.56,1.85,2.27-.32,1.38,1.51,2,2.25,2.06-.17,0-2.17,1.21-2.7a5.81,5.81,0,0,0,.92.54.7.7,0,0,0,.62-.11.72.72,0,0,0,0-.64c-.4-.77-.85-1.52-1.38-2.46Zm7.26-26.69c1.87-.48,3.65-3.36,3.23-5.46a7.36,7.36,0,0,0-1,.84c-.28.31-.39.83-.71,1C40.08,226.46,39.27,227.49,39.89,229.16Zm-4-4.14c-1.18,2-2.16,3.87-.65,4.89,1.41-.46,1.57-1.81,1.84-2.95A1.6,1.6,0,0,0,35.94,225ZM28.29,389.68c1.33.08,1.92-.47,2.09-2.15a4.57,4.57,0,0,0-.69-2.44c-.25-.42-1-.58-1.48-.86-.66,1.24-.59,2,.31,2.32,1.17.39.79,1.07.46,1.78C28.8,388.74,28.58,389.13,28.29,389.68Zm-4.9-131.39c1.75-1.44.12-3.41.61-5.1,0-.09-.22-.26-.37-.42-.67.7-1.17,1.27-.57,2.29a5.53,5.53,0,0,1,.33,2l-.59.16-1-2c-1,.9-.82,1.66.36,2.15A6.21,6.21,0,0,1,23.39,258.29Zm9.49-38.11a7,7,0,0,0-.61,1.17c-.09.28.09.65,0,.9-.39.85-.9,1.64-1.27,2.49-.12.28,0,.67.07,1,.34-.13.87-.16,1-.39.35-.78.53-1.63.82-2.44a4.8,4.8,0,0,1,.57-1c.2-.3.45-.58.68-.87Zm14.34,40.91c-.7-.56-1.43-1.16-2.19-1.71-.13-.1-.43,0-.62.05a11,11,0,0,0-1.24.48c-.31.14-.82.34-.83.53a17.55,17.55,0,0,0,.2,2.28l.36.2c0-2,1.37-2,2.54-2.28C46,262,46,262,47.22,261.09ZM21.93,407.53c-.36.32-.72.89-1,.86-1.08-.11-.86.52-.8,1.12,0,.36,0,.73.06,1.1L19,410.36l.1,1.61,3.1-1.77-.16-.37-1-.25,1.42-.55ZM34.77,233c.94-2.39-1.74-3-2.17-4.68a4.31,4.31,0,0,0-.57,1.31c0,.41.22,1.2.39,1.21C33.81,231,34.3,232,34.77,233Zm2,3,.43.22c.29-.26.75-.48.83-.8a6.47,6.47,0,0,0-.75-4.89,1.13,1.13,0,0,0-.13.86,2.68,2.68,0,0,1-.19,2.7C36.64,234.64,36.8,235.42,36.75,236.06ZM31.28,340.31c.83-.31,1.72-.39,1.83-.73a3.75,3.75,0,0,0-.21-2c0-.16-.77-.31-1-.17C30.68,338,31.67,339.08,31.28,340.31Zm9.65-47.49L40,291.6c-.31.25-.73.45-.89.78a4.63,4.63,0,0,0-.46,1.71c0,.19.47.41.73.62ZM19.83,417.41c1-2.07,1-2.07,1.93-.84.69-1-.24-1.44-.64-1.94-.16-.19-1.22,0-1.27.15C19.63,415.56,18.88,416.41,19.83,417.41Zm17.08-139.5c.14-.87.28-1.52.33-2.17a4.11,4.11,0,0,0-.2-1.07c-.35.23-.95.4-1,.69a18.94,18.94,0,0,0-.26,2.79ZM22.56,402.05c-.23,1.46-.47,2.79-.63,4.13,0,.16.38.37.58.56.21-.33.65-.87.58-.95-.6-.64-.22-1.17.1-1.72C23.65,403.27,23.46,402.66,22.56,402.05ZM36.43,251.71c-1.11.54-2.17,1.6-3-.09,0-.07-.48-.06-.51,0a1.07,1.07,0,0,0-.1.72,14.47,14.47,0,0,0,.59,1.53l1.23-1C35.94,253.61,36.22,253.46,36.43,251.71Zm-2.11,16.56L33,266.49l-.25.21.36,1.08c-1.06-.16-1.73.08-1.55,1.32l1-.91.57,1.77Zm5.5,1.6.54.06c.08-.54.12-1.08.25-1.6.19-.8.45-1.58.65-2.38.08-.33.09-.68.14-1-.36.18-1,.31-1,.54C40.1,266.93,40,268.4,39.82,269.87Zm-10.14,42.7a3.2,3.2,0,0,0,.55,3.43C31.07,314.22,31,314,29.68,312.57Zm-7.52,110.9a11.28,11.28,0,0,0-1.5.88c-.13.1-.05.46-.07.71.9-.16.51.47.56.87a2.75,2.75,0,0,0,.35.71l.33-.07Zm.32-47.85-.19,1.06c.92,0,1.94.4,2.13-.84.06-.38-.43-.84-.68-1.27l-.37.2.25,1.28Zm-1.27,9.55c-.95.32-1.2,1.24-.73,3.15.34-.46.66-.71.7-1A19.07,19.07,0,0,0,21.21,385.17Zm9.56-66.66c-.84.36-1,1.48,0,3.51Zm.6,49.05a1.51,1.51,0,0,0,.13,2.17c.19.19.78,0,1.55-.12Zm5-100.6c1.11-.74,1.24-1.27.66-2.64A2.08,2.08,0,0,0,36.39,267ZM28.14,374.25l.36.12a8.06,8.06,0,0,0,.84-1.91c0-.25-.59-.62-1-1Zm-6.6-46.82.4.08v-3.59h-.4Zm8.57-17.23.39.32c.37-.31,1.08-.68,1.05-.93-.08-.49-.57-.92-.89-1.38Zm5.71-30.45c-.26.75-.5,1.37-.66,2,0,.1.45.46.6.42C36.35,282,36.54,280.45,35.82,279.75Zm9-16.78a11.22,11.22,0,0,0,1.83.39c.13,0,.48-.62.4-.8C46.88,262.09,45.44,262.24,44.87,263ZM22.76,272.8c.86.66,1.29.1,1.62-.51.12-.23,0-.59,0-.89-.33.05-.78,0-.95.17A5,5,0,0,0,22.76,272.8Zm19.18,4.32-.55.13a16,16,0,0,0,.47,1.84c0,.16.44.2.68.29.06-.24.23-.53.16-.73A15.54,15.54,0,0,0,41.94,277.12Zm2.44-5.46h.36c-.19-.85.9-1.75-.36-2.84Zm5.17-38.21-.57-.21a11.57,11.57,0,0,0-.73,1.45c-.08.21.1.52.16.78.27-.1.7-.14.77-.31A13.66,13.66,0,0,0,49.55,233.45ZM38.2,273.39c1.46-1.06,1.51-1.66.13-2.28Zm1.6-52.94.27-.77-2-.59-.19.56Zm5.84,31.49-.32.24.69,1.13,1.11-1-.23-.3ZM39,282.68c-.83.58-1.11,2.15-.67,2.44.11.07.62-.16.64-.29A20.67,20.67,0,0,0,39,282.68Zm-5.1,105.68.55-1.93C32.85,386.69,32.77,386.93,33.91,388.36Zm-1.56-12.71-1.65-1.86C30.49,375.19,30.49,375.19,32.35,375.65ZM42,252.05c-.39.45-.81.76-.77.91a1.63,1.63,0,0,0,.73.74c.07,0,.54-.32.53-.49A4.2,4.2,0,0,0,42,252.05ZM31.48,255a8.74,8.74,0,0,1,.4-1.22,4.43,4.43,0,0,1,.59-.72l-.24-.21C30.91,253.58,30.76,254,31.48,255Zm15.2-18.39c-.57.53-1.1.8-1.16,1.16s.42.71.84,1.33Zm-8-6.27.26-.25-1.66-1.7C37,229.91,38.09,229.87,38.72,230.31Zm11.87,6.36-1.55,2C50.66,238.76,50.28,237.43,50.59,236.67Zm-3,11.76.28.07,1-1.69-.75-.23Zm-.31-30-1.34-.85-.26.22.56,1.48ZM30.11,400.27l-.6.12c.1.51.19,1,.31,1.52l.51-.09C30.28,401.3,30.2,400.79,30.11,400.27Z" transform="translate(-16.96 -24.96)"/><path d="M53.71,25c1.21,1.46,2.44,2.92,3.65,4.39,1.46,1.79,3,3.55,4.35,5.4,1.54,2.08,2.95,4.25,4.43,6.36.52.74,1,1.7,1.7,2.07a2.5,2.5,0,0,0,2.24-.4,19.94,19.94,0,0,0,4.47-5.23c.58-1.12,2-1.8,2.57-2.93.71-1.49,2.06-2.21,3.06-3.34,1.68-1.91,3.52-3.68,5.34-5.46.28-.27.83-.27,1.25-.4.1.44.37.92.26,1.3-1.48,5.2-3,10.39-4.52,15.59-.6,2.06-1.16,4.13-1.75,6.19a5.7,5.7,0,0,1-3,3.94c.5.4.77.78,1.12.88a8,8,0,0,0,2.36.34c4.7-.23,9.4-.49,14.1-.82,2.73-.2,5.44-.56,8.16-.82a2.25,2.25,0,0,1,1.15.2c.7.36.64,1.09,0,1.53a12.34,12.34,0,0,0-1.31,1.2,11.45,11.45,0,0,1-1.65,1.55c-2.23,1.37-4.56,2.59-6.78,4-3.22,2-6.38,4.19-9.57,6.29a6.56,6.56,0,0,1-.93.53c-.4.17-1.16.26-1.18.44a2.66,2.66,0,0,0,.28,1.83c.94,1.17,2.06,2.19,3.12,3.27a9,9,0,0,0,.79.72c.4.32.83.62,1.28.94,1.8,2,3.59,4.23,5.53,6.26,1.54,1.6,3.32,3,4.87,4.56a9.48,9.48,0,0,1,1.4,2.47c.06.1-.18.52-.31.53-.33,0-.8,0-1-.16-1.25-1.41-2.93-1.68-4.66-2a49.68,49.68,0,0,1-5.73-1.6c-3.23-1.07-6.43-2.26-9.66-3.34a7.62,7.62,0,0,0-3-.54A2.57,2.57,0,0,0,74.44,82c-1,2.39-1.89,4.86-2.86,7.29-.12.29-.51.48-.54.79-.29.77-.57,1.54-.87,2.31-.58,1.51-1.11,3-1.79,4.5S66.9,99.59,66.19,101a16.75,16.75,0,0,0-.65,1.7c-1,0-1.52-.33-1.6-1.45s-.49-2.5-.61-3.76c-.25-2.65-.43-5.31-.59-8a9.12,9.12,0,0,1,.14-2.15,9.34,9.34,0,0,0-1.45-6.57c-.2-.34-.38-.69-.71-1.27a7,7,0,0,0-1.6,1,10.88,10.88,0,0,1-5.28,2.94,3.56,3.56,0,0,0-.94.46c-2,1.21-3.9,2.5-5.91,3.64S42.65,89.77,40.51,91a11.2,11.2,0,0,0-1.3,1.2,4.39,4.39,0,0,1-.88.4c0-.39-.23-.85-.09-1.16.33-.76.83-1.45,1.24-2.19,1.18-2.15,2.33-4.33,3.54-6.47s2.67-4.52,3.95-6.81c.89-1.59,1.68-3.24,2.53-4.86.57-1.09,1.09-2.21,1.75-3.23a1.42,1.42,0,0,0-.19-2,13.36,13.36,0,0,0-2.16-1.45c-1.39-.85-2.8-1.68-4.21-2.5C43.12,61,41.57,60.07,40,59.26a46.32,46.32,0,0,1-8.5-5.68c-.39-.32-.51-1-.76-1.49a5.16,5.16,0,0,1,1.23-.55,36.1,36.1,0,0,1,5.45-.69c2.54,0,5.09.33,7.64.43,2.35.09,4.69,1,7.07,0,.46-.19,1.1.05,1.66.08a1.94,1.94,0,0,0,2.33-2,34.8,34.8,0,0,0,0-5.5c-.48-3.94-1.16-7.86-1.76-11.78-.3-2-.62-4-.92-6a8.37,8.37,0,0,1,0-1.12Zm1.08,51.39-.31.25c.22.31.44.88.66.88A2,2,0,0,0,56.62,77c.28-.33.16-1,.22-1.52l-.53-.16-.85,1.47Zm8.75-17.29.49.18c.17-.67,1.58-.2,1.13-1.34-.09-.23-1.08-.42-1.19-.27A3.8,3.8,0,0,0,63.54,59.06Z" transform="translate(-16.96 -24.96)"/><path d="M91.69,199.42a15.39,15.39,0,0,1-.8,1.66,1,1,0,0,1-.61.29c-.81.16-1.63.3-2.64.48l.93,1.55-.4.23-1.32-2.16a6.22,6.22,0,0,0,1-1.35,1,1,0,0,0-.32-1c-.29-.18-.94-.28-1.12-.09-1,1-1.84.7-2.9.13a23.41,23.41,0,0,0-4-1.67c-1.26-.39-2.58-.54-3.54-1.59-.14-.14-.56-.11-.81,0-1.71.57-3.17-.15-4.66-.82a.87.87,0,0,1-.42-1.45,3.9,3.9,0,0,1,1.53-1.47,27,27,0,0,1,4.12-.91,21.76,21.76,0,0,1,2.8-.27c1.07-.05,2.16.07,3.21-.07a5.7,5.7,0,0,0,1.69-.81,19.07,19.07,0,0,1,1.87-1c1.5-.61,3-1.16,4.56-1.7.73-.27,1.49-.47,2.26-.71.08-.21.1-.68.33-.83.77-.54,1.62-1,2.43-1.44a.61.61,0,0,0,.28-.35c.54-2,2.08-3.16,3.66-4.3a5.11,5.11,0,0,0,1-1.26c.09-.12,0-.38.15-.44,1.26-.78,1.17-2.05,1.4-3.29a28.77,28.77,0,0,1,1.38-3.9c.3-.9.48-1.84.77-2.75.18-.55.51-1,.69-1.59a4.17,4.17,0,0,0,.37-1.7c-.14-1.31-.44-2.6-.67-3.9,0-.08,0-.18-.07-.22-1.25-1.15-.56-2.7-.83-4-.06-.28,0-.6-.1-.83-1.39-2.61-2.09-5.6-4.18-7.82-.87-.93-1.89-1.73-2.76-2.67-.38-.41-.86-1.06-.78-1.51.27-1.38-.74-1.79-1.55-2a52,52,0,0,0-5.27-1,1.55,1.55,0,0,0-.54.12l-.15.37a28.56,28.56,0,0,0,3.68,1.91,5.87,5.87,0,0,1,3.17,2.3,21.5,21.5,0,0,0,3.18,3.06,10.5,10.5,0,0,1,3.12,6.36c.41,2.92,1,5.82,1.23,8.74a25.61,25.61,0,0,1-.28,4.32l-.86-.06.52,2.53H99.9l-.16.33,1,.61-.2.44-1.48-.46v2.26c-1.16.75-2.17,1.56-1.84,3.3a2.49,2.49,0,0,1-.94,2.31c-1.64,1.4-3,3.07-4.75,4.39A40.86,40.86,0,0,1,86.2,187a6.94,6.94,0,0,1-2.18.33c.2-1.65,1.52-2,2.49-2.44s2-.82,2.57-2c.21-.44.93-.64,1.2-1.05.6-1,1.2-2,1.81-3,.94-1.52,2.22-2.93,2.76-4.58.9-2.7,2.19-5.42,1.25-8.45a10.06,10.06,0,0,1-.18-2,11,11,0,0,0-.26-2.07,46.8,46.8,0,0,0-1.78-5.24,12.68,12.68,0,0,0-4.44-5.22,60.15,60.15,0,0,0-5.5-3.83,27.85,27.85,0,0,0-5.63-2.19c-1.62-.48-2.25-1.19-2-2.85.16-1.25.22-2.5.38-3.74a7.46,7.46,0,0,1,.49-1.38,1.25,1.25,0,0,1-1-1.85,1.77,1.77,0,0,1,2.48-1.14,9.06,9.06,0,0,0,4.71,0,43.72,43.72,0,0,1,5-.78c.49-.06,1.22-.05,1.48.25,1.2,1.33,2.95,1.05,4.38,1.67a7.47,7.47,0,0,1,1.08.64,4.11,4.11,0,0,0,.89.58c1.31.4,2.67.65,4,1.13a44.52,44.52,0,0,1,4.16,1.89,26,26,0,0,1,2.79,1.54,6.91,6.91,0,0,1,1.23,1.19c.58.63,1.14,1.27,1.69,1.93a25,25,0,0,1,2.19,2.76,57.75,57.75,0,0,1,3.26,5.78,18.22,18.22,0,0,1,1.31,4.31c.52,2.53.85,5.1,1.3,7.64a15.72,15.72,0,0,1-.49,8.24c-.48,1.33-.5,2.83-.89,4.2s-1.3,2.71-1.47,4.11c-.25,2.08-2.12,3-2.82,4.66a17.23,17.23,0,0,1-.71,2.24,10.88,10.88,0,0,1-2.4,3.14c-3.16,2.39-6.46,4.59-9.73,6.83a19.63,19.63,0,0,1-2.29,1.27.82.82,0,0,1-.75,0,1.49,1.49,0,0,0-2.25.11C93.36,200.47,92.67,200.4,91.69,199.42Zm-13.3-62.48-.15.34c.42.19.84.37,1.26.58,1.84.92,3.74,1.74,5.48,2.82a1.67,1.67,0,0,0,2.26-.09C84.09,139.44,81.79,136.91,78.39,136.94Zm21.88,25.84c.35-1.23.06-2.25-.69-2.3-.22,0-.58.45-.69.75C98.44,162.56,99.47,162.55,100.27,162.78ZM85.41,195.73l-.55-.37-.75,1,.64.45Z" transform="translate(-16.96 -24.96)"/><path d="M113,470.26c-.18-.14-.74-.35-.77-.64-.2-1.54-.16-3.11-.41-4.63a32.66,32.66,0,0,0-1-3.56,10.74,10.74,0,0,1-.38-1.84c-.07-.86,0-1.72,0-2.58,0-.24-.15-.5-.08-.7.74-2.06-.36-4-.39-6,0-1-.67-2-.85-3-.23-1.32,0-2.76-.46-4a9.86,9.86,0,0,1-.65-5c.15-1-.62-2.07-.83-3.13a10.18,10.18,0,0,1-.18-3,6.37,6.37,0,0,1,.92-1.82c.2-.39.52-.84.44-1.19s-.65-.45-1-.55a6.58,6.58,0,0,0-1.28-.1c-.23-1.91-.47-3.67-.64-5.43-.31-3.23-.55-6.46-.86-9.69-.2-2.19-.51-4.37-.68-6.56-.25-3.23-.42-6.47-.63-9.7a1.62,1.62,0,0,0-.07-.59c-.95-2.25-.91-4.7-1.38-7-.84-4.18-1.66-8.36-2.41-12.55-.27-1.5-.29-3.05-.49-4.56-.17-1.29-.51-2.56-.65-3.85-.41-3.93-.61-7.88-1.22-11.77-.27-1.72-.89-3.38-.66-5.15a20.63,20.63,0,0,0-.59-7.21c-.23-1.11.08-2.32-.07-3.46-.52-4-1.14-8-1.7-12.05-.37-2.62-.66-5.25-1.09-7.86-.34-2.07-.9-4.1-1.28-6.17-.3-1.56-.42-3.16-.72-4.73-.66-3.44-1.41-6.86-2.08-10.3-.36-1.83-.54-3.71-1-5.53-.62-2.64-1.4-5.24-2.08-7.86-.16-.65-.16-1.34-.3-2-.7-3.23-1.53-6.43-2.12-9.68-.72-4-1.17-8-1.86-12-.73-4.17-1.56-8.34-2.44-12.49-.57-2.67-1.3-5.31-2-8-.5-2-.89-4-1.53-6-.58-1.77-1.41-3.46-2.1-5.1,1.47.8,3.08,2.73,5.44.94a8.75,8.75,0,0,1,1.57,5.29c0,.27-.44.57-.74.76-.61.39-1.27.72-1.91,1.07l.14.64a9.93,9.93,0,0,0,2,0c.72-.14,1.21-.15,1.5.66.48,1.34,1,2.66,1.54,4a16.28,16.28,0,0,1,.75,1.85,10.16,10.16,0,0,1,.17,1.84,17.77,17.77,0,0,0,.23,2.74c.24,1,.75,1.92,1.07,2.9a1,1,0,0,1-.94,1.47,7.88,7.88,0,0,1-1.66.22c-.77,0-1.27.42-1.14,1s.42,1.35,1.33,1.22a6,6,0,0,1,1.53-.22c.45.06,1.1.31,1.24.65a11.32,11.32,0,0,1,.78,3c0,.28-.54.92-.85.93a2.82,2.82,0,0,0-2.91,2.45c1.09.79,2.2.36,3.32-.1.94-.39,1.37-.1,1.52.94.2,1.42.55,2.82.89,4.21.4,1.64.06,2.29-1.52,2.88a7.19,7.19,0,0,0-1.6.78.92.92,0,0,0-.32.81.93.93,0,0,0,.72.48,4.73,4.73,0,0,0,1.63-.22c1.39-.46,1.68-.32,2,1.05.15.66.43,1.29.57,1.95.24,1.19-.15,1.78-1.34,2.1-.75.2-1.5.37-2.39.59a2.47,2.47,0,0,0,2.56,1.52c1.61-.17,2,.06,2.47,1.55a42.76,42.76,0,0,1,1.17,5.1c.26,1.59-.31,2.16-1.91,2.28-.24,0-.48.07-.71.1-.54.05-1.35-.07-1.16.75a1.4,1.4,0,0,0,1.5,1.24c2.55-.18,2.64-.18,3.33,2.23a35.68,35.68,0,0,1,.92,4.93c.14,1.07.08,2.06-1.44,2.25a7.21,7.21,0,0,0-2.08,1c.13.92.49,1.35,1.57,1.19,2-.29,2.31,0,2.88,2,.24.84.56,1.66.76,2.51.41,1.72,0,2.38-1.64,3a2.9,2.9,0,0,0-.78.28c-.27.22-.7.63-.64.83a1.39,1.39,0,0,0,.83.86,5.09,5.09,0,0,0,1.78,0,.9.9,0,0,1,1.17.85c.61,3.53,1.26,7.06,1.83,10.6a1.37,1.37,0,0,1-.55,1.1c-1,.72-2.17,1.32-3.27,2l.09.4a3.44,3.44,0,0,0,.77.33,7.69,7.69,0,0,0,.83,0c3.22.23,2.61-.78,3.39,2.57a16.06,16.06,0,0,1,.59,4.93c-.09,1.17.55,2.38.86,3.57a7.45,7.45,0,0,1,.17.82c.24,1.71.16,1.82-1.48,2.13a4.23,4.23,0,0,1-.71.13A2.34,2.34,0,0,0,96.72,345a12.49,12.49,0,0,0,2.18.62c.78.08,1.6-.14,2.39-.06a1.24,1.24,0,0,1,.89.77c.62,3.25,1.16,6.51,1.72,9.76a7.83,7.83,0,0,1,.07,1.08c.08,2-.49,2.32-2.5,2.15-1.11-.09-2.29.65-3.43,1,0,0,0,.07-.06.1.44,1.69,1.34,2.19,3,1.85a29.7,29.7,0,0,1,3.2-.31c.34,2,.65,3.95,1,5.86.27,1.53.59,3.05.86,4.59.35,2-.31,2.78-2.22,2.17-1.34-.43-2.25.27-3.26.69a.82.82,0,0,0,0,1.6,5.83,5.83,0,0,0,2.4.22c.58,0,1.14-.38,1.72-.44,1.29-.14,2,.33,2.16,1.52.53,4.23,1,8.47,1.47,12.71.24,2.22-.33,2.14-2.9,2.57a4.08,4.08,0,0,0-1.38.23c-.3.17-.41.67-.6,1a3.57,3.57,0,0,0,1.06.35,29.48,29.48,0,0,1,3-.05,1.69,1.69,0,0,1,1.2,1c.58,3.25,1.12,6.52,1.47,9.8a30.72,30.72,0,0,1-.16,4.59c0,.4.05.8.07,1.19.11,2.14.19,4.28.35,6.42a26.23,26.23,0,0,0,.52,3.75,18.91,18.91,0,0,1,.3,7.49,1.3,1.3,0,0,0,.09.7c1.23,2.88,1.12,5.95,1.36,9,.19,2.3.59,4.58.94,6.87.55,3.69,1.16,7.38,1.69,11.08.17,1.24,0,2.34-1.53,2.8a2.16,2.16,0,0,0-1,1.7c0,.77.8,1,1.56.89a1.45,1.45,0,0,1,1.79,1.06,17.08,17.08,0,0,1,.27,4.1c0,.33-.88.68-1.39.92s-1.27,0-1,.8c.16.41.86.67,1.37.87.23.1.59-.12,1-.22.21.45.45.86.61,1.3a25.75,25.75,0,0,1,1.78,9.09,1,1,0,0,1-.3.71c-.14.08-.5-.08-.69-.22-.88-.61-1.75-1.25-2.61-1.9-1.78-1.35-2.91-3-2.56-5.37C112.83,472.43,112.89,471.37,113,470.26Zm-7.48-60.11c-.17.29-.35.55-.48.83s-.23.6-.35.91c.32.05.71.25.95.14,1-.44,1.86-1,2.79-1.48l-.15-.25Z" transform="translate(-16.96 -24.96)"/><path d="M55.83,148a18.06,18.06,0,0,0-2.7.68,7.06,7.06,0,0,0-1.71,1.2,31.11,31.11,0,0,0-2.57,2.29,16.73,16.73,0,0,0-2.63,3.16A40.9,40.9,0,0,0,43.05,162a14,14,0,0,0-.68,6.78,11.18,11.18,0,0,0,1.91,4.64,2.67,2.67,0,0,1,.33,1.74c-.84.42-1.17-.37-1.43-1s-.56-1.54-.86-2.4c-1,.53-1.51,0-2.07-.81-2-2.74-2.66-5.92-3.29-9.15s.23-6.08,1-9.05a10.64,10.64,0,0,1,1-2.41,77.22,77.22,0,0,1,3.92-6.79c.57-.83,1.85-1.16,2.78-1.76a5.77,5.77,0,0,0,1.44-1.13,15.5,15.5,0,0,1,5.49-4.49c1.45-.7,2.07-.22,2.07,1.39a2.07,2.07,0,0,0,.19,1c1.63,2.66,1.37,5.55,1.13,8.45C55.94,147.3,55.89,147.57,55.83,148Z" transform="translate(-16.96 -24.96)"/><path d="M67.57,224a5.51,5.51,0,0,1,4.52.3,4.41,4.41,0,0,0-.75,1.13c-.12.53-1,1.11-.07,1.65s1.58.86,2.44.19a6.19,6.19,0,0,1,1.3-1,1.42,1.42,0,0,1,1.28.24,9,9,0,0,1,1.26,2.28c.18.45.27,1.33.06,1.46-.77.48-1.31,1.7-2.55,1a10.17,10.17,0,0,0-1.59-.78,9.34,9.34,0,0,1-1.73-.53,20.68,20.68,0,0,0-2-1.82c-1.23-.85-2.54-1.59-3.84-2.35a8.5,8.5,0,0,0-1.32-.54,1.92,1.92,0,0,1-1.33-2.13,1.57,1.57,0,0,1,2-1.06,14,14,0,0,1,2.39.64C68.28,222.93,68.54,223.36,67.57,224Z" transform="translate(-16.96 -24.96)"/><path d="M106.92,195.87c-.73,1.06-1.42,2.17-2.21,3.19a33.56,33.56,0,0,1-2.86,3.32,14.36,14.36,0,0,1-2.49,1.77c-2.35,1.5-4.7,3-7.09,4.42-.53.32-1.58.7-1.76.49a3.2,3.2,0,0,1-.67-2c0-.37.64-.83,1.08-1.08,1.71-1,3.45-1.87,5.17-2.81a1.68,1.68,0,0,0,.53-.46,7.53,7.53,0,0,1,4.53-2.73,4.94,4.94,0,0,0,1.76-1.11c1.25-1.05,2.44-2.15,3.66-3.24Z" transform="translate(-16.96 -24.96)"/><path d="M55.38,234.22c0-.62,0-1.15.09-1.65.17-1.22.46-2.42.57-3.64.21-2.15,1.71-3.19,3.67-2.4a17.34,17.34,0,0,1,2.76,1.38,1.26,1.26,0,0,1,.08,1.08c-2.45,1.35-4.86,2.75-6.59,5C55.9,234.1,55.74,234.1,55.38,234.22Z" transform="translate(-16.96 -24.96)"/><path d="M59.3,221.81a4.29,4.29,0,0,1-1.25-.12c-.95-.37-1.86-.87-2.81-1.26-1.71-.7-3.3-1.47-4.15-3.33-.36-.79-1.22-1.34-1.84-2a11.13,11.13,0,0,1-.68-.93l.21-.27a12.68,12.68,0,0,1,2.41,1.46c.89.83,1.53,1.93,2.39,2.79a7.61,7.61,0,0,0,2.05,1.33c1,.5,2.09.88,3.14,1.31.33.14.67.26,1,.39Z" transform="translate(-16.96 -24.96)"/><path d="M48.78,212.13l-1.75.24c-.41-.42-.92-.91-1.38-1.46a2.42,2.42,0,0,1,.63-3.57,1.22,1.22,0,0,1,1.73,1c0,.29,0,.68.14.86A2.35,2.35,0,0,1,48.78,212.13Z" transform="translate(-16.96 -24.96)"/><path d="M24.47,394.86c-.71-1.11-1.22-2.15-.55-3.58.32-.66-.14-1.67-.19-2.53,0-.21.17-.43.26-.65.17.15.43.27.47.45a6,6,0,0,1,.19,1.52c0,1.6-.13,3.19-.19,4.78Z" transform="translate(-16.96 -24.96)"/><path d="M20.32,396.23l.14-2.53,2,.33Z" transform="translate(-16.96 -24.96)"/><path d="M22.58,395.83l-.12,2-.19.14a6.75,6.75,0,0,1-.64-1.56C21.6,396.28,22.27,396,22.58,395.83Z" transform="translate(-16.96 -24.96)"/><path class="cls-1" d="M66.11,200.24c1.17.32,2.34.67,3.52.95,2.44.6,3.71,2.59,5,4.39a3.85,3.85,0,0,1,.18,2.87A5.2,5.2,0,0,1,72.07,212c-.88.43-1.52,1.31-2.38,1.78a5.47,5.47,0,0,1-4.5,0c-2-.64-4-1.2-4.93-3.47-1-2.6-1.14-5.17.42-7.52a5,5,0,0,1,3.57-2.16c.59-.08,1.19-.11,1.79-.16Zm.82,10.81c.59-.13,1.76-.36,2.91-.67a2.66,2.66,0,0,0,1.63-4.27,7.52,7.52,0,0,0-2-1.74,20,20,0,0,0-2.91-1c-2.5-.89-3.27.24-3.84,2.47a6.11,6.11,0,0,0-.06,1C62.33,209.6,63.54,211,66.93,211.05Z" transform="translate(-16.96 -24.96)"/><path class="cls-1" d="M25.68,161.16c.28-.62.55-1.24.85-1.85a8.92,8.92,0,0,0,.59-1.15c.13-.47,0-1.19.77-1a3.63,3.63,0,0,1,1.27.82c.1.08.13.28.05.11-.63,1-1.09,1.81-1.67,2.55a6.36,6.36,0,0,1-1.32,1Z" transform="translate(-16.96 -24.96)"/><path class="cls-1" d="M100.92,291.37l1.32,3.19-.34.24-1.28-.76-.5.94C98.85,293.92,98.94,293.42,100.92,291.37Z" transform="translate(-16.96 -24.96)"/><path class="cls-1" d="M25.09,169.43a25.3,25.3,0,0,0,1-2.47,5.32,5.32,0,0,0,0-1.44c1.16.26,1.51,1,1.29,2.64C27.21,169.38,26.29,169.3,25.09,169.43Z" transform="translate(-16.96 -24.96)"/><path class="cls-1" d="M106.76,303.43c1.94,2,2,2.54.4,4.57C106.54,306.55,106,305.14,106.76,303.43Z" transform="translate(-16.96 -24.96)"/><path class="cls-1" d="M102.89,310l-.53-2-1,.85a1.27,1.27,0,0,1,1.25-1.77c.51,0,1,0,1.69,0C104.54,307.48,104.54,307.48,102.89,310Z" transform="translate(-16.96 -24.96)"/><path class="cls-1" d="M105.1,314.11c-.46-.78-1-1.57-1.41-2.4a4.72,4.72,0,0,1-.24-1.21l.37-.15.88,1.54.47-1.4C106.51,311.56,106.51,311.56,105.1,314.11Z" transform="translate(-16.96 -24.96)"/><path class="cls-1" d="M107.33,298.89c.44.63,1.29,1.29,1.24,1.87a2.69,2.69,0,0,1-2,2.19l.44-3.89Z" transform="translate(-16.96 -24.96)"/><path class="cls-1" d="M32.14,160.05c-.59.47-.95,1-1.26,1-.55,0-1.66.32-1.45-.8.11-.59.84-1.06,1.29-1.59Z" transform="translate(-16.96 -24.96)"/><path class="cls-1" d="M108.4,238.12l-.36,1.16,1.21.57-1.44,1.5a17.94,17.94,0,0,1-.84-2.8c0-.2.77-.52,1.2-.78Z" transform="translate(-16.96 -24.96)"/><path class="cls-1" d="M112.51,390.55a12.42,12.42,0,0,1-.76-2.63c-.08-1.45.37-1.65,1.57-1.08l-.6,3.74Z" transform="translate(-16.96 -24.96)"/><path class="cls-1" d="M110.26,367.92a25.79,25.79,0,0,1,1.16,2.36.93.93,0,0,1-.4.82c-.26,0-.81-.19-.87-.4-.22-.86-.31-1.75-.45-2.64Z" transform="translate(-16.96 -24.96)"/><path class="cls-1" d="M103.16,304.32a10.72,10.72,0,0,1-.54-1.87c0-.33.33-.7.51-1,.31.31.88.63.88.95a7.87,7.87,0,0,1-.48,2Z" transform="translate(-16.96 -24.96)"/><path class="cls-1" d="M114.73,420.59c.55-1.12-.92-2.16-.16-3.37A2.25,2.25,0,0,1,114.73,420.59Z" transform="translate(-16.96 -24.96)"/><path class="cls-1" d="M105.9,252.12c-1-1.77-1-1.88.65-2.09C106.36,250.73,107.11,251.62,105.9,252.12Z" transform="translate(-16.96 -24.96)"/><path class="cls-1" d="M106.9,298.47l.28-2.44.37-.08a10.71,10.71,0,0,1,.73,1.81C108.31,297.86,107.56,298.14,106.9,298.47Z" transform="translate(-16.96 -24.96)"/><path class="cls-1" d="M106,316.68l.29-2.49C107.36,315.22,107.24,316,106,316.68Z" transform="translate(-16.96 -24.96)"/><path class="cls-1" d="M101.66,298.92c1.09.37,1,1.14.84,1.86,0,.12-.45.31-.54.25s-.54-.43-.55-.68A5.67,5.67,0,0,1,101.66,298.92Z" transform="translate(-16.96 -24.96)"/><path class="cls-1" d="M98.32,294.44c-1.35.45-1.31-.44-1.44-1,0-.18.29-.43.45-.65Z" transform="translate(-16.96 -24.96)"/><path class="cls-1" d="M113.16,394.05l.42-1.57.84.26-.62,1.53Z" transform="translate(-16.96 -24.96)"/><path class="cls-1" d="M86.73,246.36l-.51-2.71c1,.59,1.06.73.85,2.64Z" transform="translate(-16.96 -24.96)"/><path class="cls-1" d="M105.17,227.26a5.16,5.16,0,0,1,.89-.66c.08,0,.5.4.46.48a7.6,7.6,0,0,1-.68,1.12Z" transform="translate(-16.96 -24.96)"/><path class="cls-1" d="M84.62,212.84v-2.1c1.59.51-.09,1.48.62,2Z" transform="translate(-16.96 -24.96)"/><path class="cls-1" d="M116.14,430.51l.64,1.68C115.84,431.93,115.32,431.5,116.14,430.51Z" transform="translate(-16.96 -24.96)"/><path class="cls-1" d="M105.2,248.88V247c.23.1.64.21.63.28,0,.57-.18,1.12-.28,1.68Z" transform="translate(-16.96 -24.96)"/><path class="cls-1" d="M77.24,204.86l.93,1.78-.34.19c-.36-.59-1.13-.94-1.07-1.76Z" transform="translate(-16.96 -24.96)"/><path class="cls-1" d="M118.36,435.05c-.9-.76-.74-1.3.34-1.95C118.55,433.94,118.46,434.5,118.36,435.05Z" transform="translate(-16.96 -24.96)"/><path class="cls-1" d="M44.06,250.19l-2.32.17a11.86,11.86,0,0,0-.26-1.79,13,13,0,0,0-.8-1.74c-.67.44-1.36.84-2,1.32a3.61,3.61,0,0,0-.66.9l-.3-.13a8.93,8.93,0,0,0-.14-1.47.8.8,0,0,0-.54-.52c-.14,0-.4.27-.52.47a2.06,2.06,0,0,0-.36,1c.06,1-.6,1.05-1.31,1.11-.37,0-.73.11-1.13.17l-.25-2.73,1.6.93c.15-.36.45-.75.38-1.06s-.57-.37-.76-.48c0-.66,0-1.3,0-1.93s.09-1.2.17-2.1l1.9,1.1,0,.32c-1.25,0-1.45.56-1,1.61a4.61,4.61,0,0,1,.73-.51c.67-.32,1.35-.44,1.61.5s.7.89,1.36.35c.18-.15.67-.23.79-.11,1.24,1.3,2.44,2.63,3.63,4C44,249.69,44,250,44.06,250.19Z" transform="translate(-16.96 -24.96)"/><path class="cls-1" d="M32.07,250.09c-.26-1.33-.51-2.4-.66-3.48-.18-1.25-.3-2.51-.37-3.77,0-.26.32-.58.57-.79s.64-.34.93-.56,1-.65,1-.88a9.22,9.22,0,0,0-.81-2l-.36,0-.56,2.2-.34,0c0-.53,0-1.07,0-1.6a5.93,5.93,0,0,0,.09-1.38c-.2-.93.18-1.32,1-1.45L33,238l.56-.19-.93-2.32a1.16,1.16,0,0,1,1.85.23,17.05,17.05,0,0,1,1,1.89c-2,1.22.24,2.67.09,4l-1.35-.74a4.9,4.9,0,0,0-.72,1.66c0,.85.13,1.67-.81,2.17a.53.53,0,0,0-.14.51c.76,1.4-.7,2.8,0,4.2C32.63,249.5,32.33,249.75,32.07,250.09Z" transform="translate(-16.96 -24.96)"/><path class="cls-1" d="M48.32,220c-.33,2.57-.61,4.81-.91,7-.09.63-.24,1.25-.36,1.87-.07.35,0,.79-.22,1a8,8,0,0,1-1.21,1c-.08-.6-.42-1.36-.19-1.8a5.38,5.38,0,0,0,.59-4.45C45.54,223,46.47,221.31,48.32,220Z" transform="translate(-16.96 -24.96)"/><path class="cls-1" d="M38.85,252.73c-1.53.73-1.34,1.85-.58,3,.55-.51,1.11-1.46,1.69-1.47a2.27,2.27,0,0,1,2.11,1.62c.19.51.85.85,1.2,1.57-.79,0-1.74.15-2.32-.22s-.71-1.3-1.1-2.1l-.45,1.62c-1.47-.12-1.67.12-2,2.28-.36-.33-.84-.6-1-1a1.28,1.28,0,0,1,.07-1.18,3.06,3.06,0,0,0,.86-3.12,1.39,1.39,0,0,1,.5-1.07C38,252.5,38.49,252.7,38.85,252.73Z" transform="translate(-16.96 -24.96)"/><path class="cls-1" d="M35.49,269.9c-.78-.06-.54-.87-.61-1.48-.11-.92.55-1.91-.38-2.8-.16-.16.23-.94.42-1.41a.62.62,0,0,1,.5-.11,1.18,1.18,0,0,1,.29.7c0,.75-.17,1.5-.2,2.25s-.23,1.58,1,1.68c.14,0,.25.43.36.66.2.46.39.93.63,1.47-1.31.51-1.19,1.63-.8,3.08-1-1-1.39-.15-2.28.58a9.43,9.43,0,0,1,0-1.45,8.68,8.68,0,0,1,.42-1.31C35,271.12,35.27,270.49,35.49,269.9Z" transform="translate(-16.96 -24.96)"/><path class="cls-1" d="M21.91,429.44a6.39,6.39,0,0,1-1.57.41c-.53,0-1.45-.1-1.52-.36a12.86,12.86,0,0,1,.09-5.45c.95,1.29,1.85,2.39,2.59,3.59a5.39,5.39,0,0,1,.38,1.85Z" transform="translate(-16.96 -24.96)"/><path class="cls-1" d="M41.34,237c-.34.76-.49,1.84-1.07,2.19s-1.55-.15-2.66-.32l.15,3.33,2.54.44.08.34c-.21.14-.44.41-.64.39a5.61,5.61,0,0,1-2.44-.53,2.55,2.55,0,0,1-.77-2,9.2,9.2,0,0,1,.88-2.55,1,1,0,0,1,1.71-.37c.17.16.49.36.66.3s.22-.43.36-.63.5-.64.74-1Z" transform="translate(-16.96 -24.96)"/><path class="cls-1" d="M32.63,255.85l.89-1.27c.53.94,1,1.69,1.38,2.46a.72.72,0,0,1,0,.64.7.7,0,0,1-.62.11,5.81,5.81,0,0,1-.92-.54c-1.19.53.85,2.53-1.21,2.7-.65-.74.24-2.57-2-2.25C31.14,256.92,31.08,255.27,32.63,255.85Z" transform="translate(-16.96 -24.96)"/><path class="cls-1" d="M23.16,320.93c-.1-.05-.26-.07-.31-.16a4.85,4.85,0,0,1,.65-3.59,3.08,3.08,0,0,0,.6-1c0-.08-.32-.42-.33-.41-.33.23-.64.5-.95.76l-.28.21c-.69-1.26-.36-1.6,1.95-1.94L25,320l-.33.07-.6-1.17-1,2.1Z" transform="translate(-16.96 -24.96)"/><path class="cls-1" d="M39.89,229.16c-.62-1.67.19-2.7,1.52-3.58.32-.21.43-.73.71-1a7.36,7.36,0,0,1,1-.84C43.54,225.8,41.76,228.68,39.89,229.16Z" transform="translate(-16.96 -24.96)"/><path class="cls-1" d="M35.94,225A1.6,1.6,0,0,1,37.13,227c-.27,1.14-.43,2.49-1.84,2.95C33.78,228.89,34.76,227,35.94,225Z" transform="translate(-16.96 -24.96)"/><path class="cls-1" d="M28.29,389.68c.29-.55.51-.94.69-1.35.33-.71.71-1.39-.46-1.78-.9-.3-1-1.08-.31-2.32.51.28,1.23.44,1.48.86a4.57,4.57,0,0,1,.69,2.44C30.21,389.21,29.62,389.76,28.29,389.68Z" transform="translate(-16.96 -24.96)"/><path class="cls-1" d="M23.39,258.29a6.21,6.21,0,0,0-1.22-.91c-1.18-.49-1.32-1.25-.36-2.15l1,2,.59-.16a5.53,5.53,0,0,0-.33-2c-.6-1-.1-1.59.57-2.29.15.16.39.33.37.42C23.51,254.88,25.14,256.85,23.39,258.29Z" transform="translate(-16.96 -24.96)"/><path class="cls-1" d="M32.88,220.18l1.21.84c-.23.29-.48.57-.68.87a4.8,4.8,0,0,0-.57,1c-.29.81-.47,1.66-.82,2.44-.1.23-.63.26-1,.39,0-.35-.19-.74-.07-1,.37-.85.88-1.64,1.27-2.49.11-.25-.07-.62,0-.9A7,7,0,0,1,32.88,220.18Z" transform="translate(-16.96 -24.96)"/><path class="cls-1" d="M47.22,261.09c-1.23.9-1.23.9-1.78-.45-1.17.32-2.57.31-2.54,2.28l-.36-.2a17.55,17.55,0,0,1-.2-2.28c0-.19.52-.39.83-.53a11,11,0,0,1,1.24-.48c.19-.06.49-.15.62-.05C45.79,259.93,46.52,260.53,47.22,261.09Z" transform="translate(-16.96 -24.96)"/><path class="cls-1" d="M21.93,407.53l.55,1.5-1.42.55,1,.25.16.37L19.12,412l-.1-1.61,1.15.25c0-.37,0-.74-.06-1.1-.06-.6-.28-1.23.8-1.12C21.21,408.42,21.57,407.85,21.93,407.53Z" transform="translate(-16.96 -24.96)"/><path class="cls-1" d="M43.08,237.34l1.22-.12c.08.28.25.52.2.72-.39,1.5-.8,3-1.26,4.5-.09.28-.44.49-.61.67a7.35,7.35,0,0,1-.24-1.85c.1-.94.41-1.86.6-2.8a10.54,10.54,0,0,0,.11-1.13Z" transform="translate(-16.96 -24.96)"/><path class="cls-1" d="M34.77,233c-.47-1-1-2.06-2.35-2.16-.17,0-.42-.8-.39-1.21a4.31,4.31,0,0,1,.57-1.31C33,230,35.71,230.63,34.77,233Z" transform="translate(-16.96 -24.96)"/><path class="cls-1" d="M36.75,236.06c0-.64-.11-1.42.19-1.91a2.68,2.68,0,0,0,.19-2.7,1.13,1.13,0,0,1,.13-.86,6.47,6.47,0,0,1,.75,4.89c-.08.32-.54.54-.83.8Z" transform="translate(-16.96 -24.96)"/><path class="cls-1" d="M31.28,340.31c.39-1.23-.6-2.27.59-2.92.26-.14,1,0,1,.17a3.75,3.75,0,0,1,.21,2C33,339.92,32.11,340,31.28,340.31Z" transform="translate(-16.96 -24.96)"/><path class="cls-1" d="M40.93,292.82l-1.52,1.89c-.26-.21-.75-.43-.73-.62a4.63,4.63,0,0,1,.46-1.71c.16-.33.58-.53.89-.78Z" transform="translate(-16.96 -24.96)"/><path class="cls-1" d="M19.83,417.41c-.95-1-.2-1.85,0-2.63,0-.17,1.11-.34,1.27-.15.4.5,1.33,1,.64,1.94C20.85,415.34,20.85,415.34,19.83,417.41Z" transform="translate(-16.96 -24.96)"/><path class="cls-1" d="M36.91,277.91l-1.15.24a18.94,18.94,0,0,1,.26-2.79c.07-.29.67-.46,1-.69a4.11,4.11,0,0,1,.2,1.07C37.19,276.39,37.05,277,36.91,277.91Z" transform="translate(-16.96 -24.96)"/><path class="cls-1" d="M22.56,402.05c.9.61,1.09,1.22.63,2-.32.55-.7,1.08-.1,1.72.07.08-.37.62-.58.95-.2-.19-.6-.4-.58-.56C22.09,404.84,22.33,403.51,22.56,402.05Z" transform="translate(-16.96 -24.96)"/><path class="cls-1" d="M36.43,251.71c-.21,1.75-.49,1.9-1.76,1.19l-1.23,1a14.47,14.47,0,0,1-.59-1.53,1.07,1.07,0,0,1,.1-.72c0-.08.48-.09.51,0C34.26,253.31,35.32,252.25,36.43,251.71Z" transform="translate(-16.96 -24.96)"/><path class="cls-1" d="M34.32,268.27,33.19,270l-.57-1.77-1,.91c-.18-1.24.49-1.48,1.55-1.32l-.36-1.08.25-.21Z" transform="translate(-16.96 -24.96)"/><path class="cls-1" d="M39.82,269.87c.17-1.47.28-2.94.54-4.4,0-.23.68-.36,1-.54,0,.34-.06.69-.14,1-.2.8-.46,1.58-.65,2.38-.13.52-.17,1.06-.25,1.6Z" transform="translate(-16.96 -24.96)"/><path class="cls-1" d="M29.68,312.57c1.35,1.4,1.39,1.65.55,3.43A3.2,3.2,0,0,1,29.68,312.57Z" transform="translate(-16.96 -24.96)"/><path class="cls-1" d="M42.14,273.09c-.34.56-.68,1.12-1.08,1.8l-.92-1.23-.21,1.41c-.63-1.16-.2-1.89,1-2.05a5.35,5.35,0,0,1,1.19.09Z" transform="translate(-16.96 -24.96)"/><path class="cls-1" d="M22.16,423.47l-.33,3.1-.33.07a2.75,2.75,0,0,1-.35-.71c0-.4.34-1-.56-.87,0-.25-.06-.61.07-.71A11.28,11.28,0,0,1,22.16,423.47Z" transform="translate(-16.96 -24.96)"/><path class="cls-1" d="M23.13,321c.12.29.37.59.35.88-.06.69-.24,1.38-.41,2.27L21.83,323c.48-.76.91-1.41,1.33-2.07Z" transform="translate(-16.96 -24.96)"/><path class="cls-1" d="M22.48,375.62l1.14.43-.25-1.28.37-.2c.25.43.74.89.68,1.27-.19,1.24-1.21.87-2.13.84Z" transform="translate(-16.96 -24.96)"/><path class="cls-1" d="M21.21,385.17a19.07,19.07,0,0,1,0,2.16c0,.28-.36.53-.7,1C20,386.41,20.26,385.49,21.21,385.17Z" transform="translate(-16.96 -24.96)"/><path class="cls-1" d="M30.77,318.51V322C29.79,320,29.93,318.87,30.77,318.51Z" transform="translate(-16.96 -24.96)"/><path class="cls-1" d="M31.37,367.56l1.68,2.05c-.77.08-1.36.31-1.55.12A1.51,1.51,0,0,1,31.37,367.56Z" transform="translate(-16.96 -24.96)"/><path class="cls-1" d="M36.39,267a2.08,2.08,0,0,1,.66-2.64C37.63,265.69,37.5,266.22,36.39,267Z" transform="translate(-16.96 -24.96)"/><path class="cls-1" d="M28.14,374.25l.21-2.79c.4.38,1,.75,1,1a8.06,8.06,0,0,1-.84,1.91Z" transform="translate(-16.96 -24.96)"/><path class="cls-1" d="M21.54,327.43v-3.51h.4v3.59Z" transform="translate(-16.96 -24.96)"/><path class="cls-1" d="M30.11,310.2l.55-2c.32.46.81.89.89,1.38,0,.25-.68.62-1.05.93Z" transform="translate(-16.96 -24.96)"/><path class="cls-1" d="M35.82,279.75c.72.7.53,2.23-.06,2.42-.15,0-.62-.32-.6-.42C35.32,281.12,35.56,280.5,35.82,279.75Z" transform="translate(-16.96 -24.96)"/><path class="cls-1" d="M44.87,263c.57-.73,2-.88,2.23-.41.08.18-.27.81-.4.8A11.22,11.22,0,0,1,44.87,263Z" transform="translate(-16.96 -24.96)"/><path class="cls-1" d="M22.76,272.8a5,5,0,0,1,.65-1.23c.17-.19.62-.12.95-.17,0,.3.14.66,0,.89C24.05,272.9,23.62,273.46,22.76,272.8Z" transform="translate(-16.96 -24.96)"/><path class="cls-1" d="M41.94,277.12a15.54,15.54,0,0,1,.76,1.53c.07.2-.1.49-.16.73-.24-.09-.63-.13-.68-.29a16,16,0,0,1-.47-1.84Z" transform="translate(-16.96 -24.96)"/><path class="cls-1" d="M44.38,271.66v-2.85c1.26,1.09.17,2,.36,2.84Z" transform="translate(-16.96 -24.96)"/><path class="cls-1" d="M49.55,233.45a13.66,13.66,0,0,1-.37,1.71c-.07.17-.5.21-.77.31-.06-.26-.24-.57-.16-.78a11.57,11.57,0,0,1,.73-1.45Z" transform="translate(-16.96 -24.96)"/><path class="cls-1" d="M38.2,273.39l.13-2.28C39.71,271.73,39.66,272.33,38.2,273.39Z" transform="translate(-16.96 -24.96)"/><path class="cls-1" d="M39.8,220.45l-1.87-.8.19-.56,2,.59Z" transform="translate(-16.96 -24.96)"/><path class="cls-1" d="M43.1,237.33c-.3-.44-.64-.86-.91-1.32a2.9,2.9,0,0,1-.21-.78c.27,0,.62-.11.8,0,.82.56,1,1.27.31,2.09Z" transform="translate(-16.96 -24.96)"/><path class="cls-1" d="M45.64,251.94l1.25.11.23.3-1.11,1-.69-1.13Z" transform="translate(-16.96 -24.96)"/><path class="cls-1" d="M39,282.68a20.67,20.67,0,0,1,0,2.15c0,.13-.53.36-.64.29C37.9,284.83,38.18,283.26,39,282.68Z" transform="translate(-16.96 -24.96)"/><path class="cls-1" d="M33.91,388.36c-1.14-1.43-1.06-1.67.55-1.93Z" transform="translate(-16.96 -24.96)"/><path class="cls-1" d="M32.35,375.65c-1.86-.46-1.86-.46-1.65-1.86Z" transform="translate(-16.96 -24.96)"/><path class="cls-1" d="M42,252.05a4.2,4.2,0,0,1,.49,1.16c0,.17-.46.53-.53.49a1.63,1.63,0,0,1-.73-.74C41.17,252.81,41.59,252.5,42,252.05Z" transform="translate(-16.96 -24.96)"/><path class="cls-1" d="M31.48,255c-.72-1-.57-1.39.75-2.15l.24.21a4.43,4.43,0,0,0-.59.72A8.74,8.74,0,0,0,31.48,255Z" transform="translate(-16.96 -24.96)"/><path class="cls-1" d="M46.68,236.58l-.32,2.49c-.42-.62-.9-1-.84-1.33S46.11,237.11,46.68,236.58Z" transform="translate(-16.96 -24.96)"/><path class="cls-1" d="M38.72,230.31c-.63-.44-1.77-.4-1.4-1.95l1.66,1.7Z" transform="translate(-16.96 -24.96)"/><path class="cls-1" d="M50.59,236.67c-.31.76.07,2.09-1.55,2Z" transform="translate(-16.96 -24.96)"/><path class="cls-1" d="M20.84,404.63v2.81l-.48,0c0-.94-.28-1.91.5-2.78Z" transform="translate(-16.96 -24.96)"/><path class="cls-1" d="M42.16,273.11l-.64-2.35c1.2.56,1.59,1.09.61,2.32Z" transform="translate(-16.96 -24.96)"/><path class="cls-1" d="M47.57,248.43l.55-1.85.75.23-1,1.69Z" transform="translate(-16.96 -24.96)"/><path class="cls-1" d="M47.26,218.48l-1,.85-.56-1.48.26-.22Z" transform="translate(-16.96 -24.96)"/><path class="cls-1" d="M30.11,400.27c.09.52.17,1,.22,1.55l-.51.09c-.12-.5-.21-1-.31-1.52Z" transform="translate(-16.96 -24.96)"/><path class="cls-1" d="M54.79,76.35l.67.44.85-1.47.53.16c-.06.52.06,1.19-.22,1.52a2,2,0,0,1-1.48.48c-.22,0-.44-.57-.66-.88Z" transform="translate(-16.96 -24.96)"/><path class="cls-1" d="M63.54,59.06A3.8,3.8,0,0,1,64,57.63c.11-.15,1.1,0,1.19.27.45,1.14-1,.67-1.13,1.34Z" transform="translate(-16.96 -24.96)"/><path class="cls-1" d="M78.39,136.94c3.4,0,5.7,2.5,8.85,3.65a1.67,1.67,0,0,1-2.26.09c-1.74-1.08-3.64-1.9-5.48-2.82-.42-.21-.84-.39-1.26-.58Z" transform="translate(-16.96 -24.96)"/><path class="cls-1" d="M100.27,162.78c-.8-.23-1.83-.22-1.38-1.55.11-.3.47-.76.69-.75C100.33,160.53,100.62,161.55,100.27,162.78Z" transform="translate(-16.96 -24.96)"/><path class="cls-1" d="M85.41,195.73l-.66,1.12-.64-.45.75-1Z" transform="translate(-16.96 -24.96)"/><path class="cls-1" d="M105.51,410.15l2.76.15.15.25c-.93.5-1.84,1-2.79,1.48-.24.11-.63-.09-.95-.14.12-.31.21-.62.35-.91S105.34,410.44,105.51,410.15Z" transform="translate(-16.96 -24.96)"/><path d="M66.93,211.05c-3.39-.06-4.6-1.45-4.31-4.25a6.11,6.11,0,0,1,.06-1c.57-2.23,1.34-3.36,3.84-2.47a20,20,0,0,1,2.91,1,7.52,7.52,0,0,1,2,1.74,2.66,2.66,0,0,1-1.63,4.27C68.69,210.69,67.52,210.92,66.93,211.05Z" transform="translate(-16.96 -24.96)"/></svg>