<svg id="Calque_1" data-name="Calque 1" xmlns="http://www.w3.org/2000/svg" viewBox="0 0 109.23 352.3"><defs><style>.cls-1{fill:#fff;}</style></defs><path d="M68.05,108.7l.4-.09s-.07-.14-.1-.14a28.88,28.88,0,0,1-9.56-2.82c-.7-.31-1.53-.33-2.27-.57-1.71-.55-2-2.26-2.78-3.53-.25-.4-.47-.82-.71-1.23-1.54-2.63-3.11-5.25-4.63-7.9-.82-1.43-1.34-3.09-3.06-3.79a1.13,1.13,0,0,1-.52-.47c-.84-1.46-2.3-2-3.73-2.66-1.19-.53-2.37-1.08-3.55-1.62l-.4.41c.17.36.25.89.53,1,1.26.65,2.57,1.19,3.86,1.78a2.34,2.34,0,0,1,.74.37c1,1,2.07,2,3,3,.69.73.06,3.31-.86,3.75-.08,0-.17.08-.23.06-1-.46-2.11-.9-3.12-1.44a3.15,3.15,0,0,1,.54-1.33c.48-.59,1.73-1,.12-1.72a.16.16,0,0,1-.07-.09l-.39-1c-.46.51-.94,1-1.36,1.52a13,13,0,0,0-.77,1.16L38,90.41c-.26-.22-.51-.47-.79-.69a2.15,2.15,0,0,1-.9-2.61c.4-1-.32-1.29-1-1.56-.8-.32-.91.24-1.22.85s-1,.7-1.52,1l0-.48A12.18,12.18,0,0,1,31,85.52c-.32-.41-.7-1.13-.55-1.5a1.18,1.18,0,0,0-.77-1.8c-1.35-.34-1.94-1.44-2.72-2.32a20.15,20.15,0,0,1-4.33-9.32c-.56-2.59-1-5.22-1.42-7.84l.45-.16a2.32,2.32,0,0,1,.43.64,23.06,23.06,0,0,0,.52,2.33,2.28,2.28,0,0,0,1,1.27c.25.12.82-.42,1.13-.6A7.78,7.78,0,0,1,24,64.59a55.67,55.67,0,0,1-.87-6.16c-.05-.83.62-1.69.82-2.58a2.77,2.77,0,0,0-.12-1.53A2.7,2.7,0,0,1,24,51.77c.18-1.47.28-2.57.46-3.65.16-.88.51-1.74.61-2.62s0-2.08,1.07-2.74c.16-.1.11-.51.16-.78a51.43,51.43,0,0,1,1.08-6,11.75,11.75,0,0,1,2-3.49c1.37-1.84,2.82-3.64,4.37-5.34a10.1,10.1,0,0,1,2.44-1.63c1.57-.91,3.13-1.85,4.76-2.65,2.61-1.28,5.23-2.67,8.27-1.31.36.16.75.25,1.19.4-.2,1.13-1.24,1.23-2,1.35A9.05,9.05,0,0,1,45.83,23L46,24.06,44.68,23l-.3.24c.26.37.44.91.8,1.09,1,.48.73,1.13.36,1.79a3.82,3.82,0,0,1-1,1.31c-2.68,1.78-4,4.75-6.1,7-.44.47-.92.9-1.36,1.33-.14.73-.32,1.54-.45,2.37-.26,1.57-.5,3.15-.73,4.73a32.2,32.2,0,0,0,1.37,13.6c.63,2.19,2.56,4,3.69,6.08,1,1.92,3.08,2.41,4.57,3.66a65.41,65.41,0,0,0,5.88,4.08c2.09,1.38,4.27,2.63,6.3,4.09,1.81,1.3,3.5,2.77,5.19,4.23a15.75,15.75,0,0,1,1.3,1.69c1,1.21,1.82,2.51,3.65,3,2.39.65,4.64,1.73,7.13,2.21a30.42,30.42,0,0,1,6.77,2.42,8.91,8.91,0,0,1,2.66,2.26c.67.72,1,1.7,1.69,2.44,1.46,1.68,1.47,3.83,1.92,5.81a8.37,8.37,0,0,0,4.05,6,30.57,30.57,0,0,0,3.79,1.52c.26.1.6.08.79.24,1.58,1.34,3.34.48,5,.48,1.19,0,2.37.09,3.55.08.5,0,1-.21,1.48-.2.3,0,.82.21.85.39a48.29,48.29,0,0,1,.71,5c.12,1.6,0,3.21,0,4.9l-1,.72.21.34,1.22-.24c-.07,3.7.84,7.32.19,11l.79,1.53-1.59.1,1.4,1.77a2,2,0,0,1-.2.42,5.58,5.58,0,0,1-.51.69,4.7,4.7,0,0,1-.58-.51,17.59,17.59,0,0,0-1.13-1.42c-.21-.19-.64-.14-1-.22v1.35c2.28.49,2.42,2.59,3.33,4l-.26.26a6.16,6.16,0,0,1-.94-1.05,6.29,6.29,0,0,0-.54-1.27,2.47,2.47,0,0,0,.41,2.35,4.13,4.13,0,0,0,.69.95c1.22,1.13.23,2.42.32,3.62a2.81,2.81,0,0,0,.37,1.1c-.18,1-1.6,1.92-.16,3-.2,1.42-.39,2.78-.59,4.13,1.82.32,2,.56,1.74,2.91l-.85-.18c.07.38,0,.84.19.94a5.15,5.15,0,0,0,1.46.31c.64,1.1.26,2.55.12,3.95-.08.78-.5,1.51.25,2.2.16.16.16.53.17.81.14,2.9.28,5.81.4,8.71.07,1.83.13,3.66.13,5.49a6.43,6.43,0,0,1-.34,1.46c-.06.22-.28.54-.2.65,1.17,1.66.35,3.56.61,5.32.32,2.31.14,4.69.3,7,.25,3.53.64,7.06.89,10.6.11,1.55,0,3.11.06,4.67q0,3.87,0,7.75c0,1.45,0,2.91,0,4.37a1.45,1.45,0,0,0,0,.47c1.09,3.05.6,6.25,1,9.37.27,2.13.37,4.3.75,6.41a69.11,69.11,0,0,1,.73,14.08,34,34,0,0,1-.07,4.63c-.21,1.18-.53,2,.07,3.36s.35,3.36.42,5.08a14.32,14.32,0,0,1,0,2.7,24.52,24.52,0,0,1-.68,2.75,1,1,0,0,0-.06.3c.53.46,1.24.79,1.25,1.14,0,1.1,1.19,2.31-.25,3.31-.65.45-.72,2.46-.38,3.24a12.42,12.42,0,0,1,.59,2.44c.07.31,0,.7.12.92.86,1.23.85,2.65,1,4.05.34,2.91.75,5.82,1.11,8.74.07.51,0,1,.09,1.55.24,1.59.56,3.18.77,4.78a13.61,13.61,0,0,1,0,2.21,7,7,0,0,0-.1,1.19c.36,2.43,0,4.89.57,7.34a46.47,46.47,0,0,1,.66,6.91c.27,3.26.55,6.52.8,9.79.09,1.26.07,2.53.16,3.78.07.91.27,1.81.34,2.72s0,1.59,0,2.62c.06.11.45.53.44.92s-.51.67-1,1.21l-.16-1.58c-1.08.11-1.3.48-.84,1.34.55,1,1.2,2,1.65,3.12a17.42,17.42,0,0,1,.78,3c.33,1.63.69,3.27.87,4.93.58,5.1,1.14,10.2,1.57,15.32.23,2.81.23,5.65.26,8.48,0,1-.86,1.35-1.7,1.54-.42.1-.88.06-1.29.18-1.2.37-1.49.19-1.66-1-.48-3.26-1-6.53-1.48-9.79-.63-3.8-1.31-7.6-2-11.4-.41-2.31-.93-4.6-1.25-6.92s-.37-4.45-.58-6.67-.48-4.37-.67-6.56c0-.28.25-.58.33-.88s.39-.94.28-1.32c-.33-1.15-1-2.22-1.19-3.37a43.76,43.76,0,0,1-.52-8.94,42,42,0,0,0-.86-6.82c-.09-.67-.22-1.33-.28-2-.39-4.28-.74-8.56-1.16-12.83-.22-2.22-.63-4.43-.85-6.65-.24-2.4-.31-4.83-.56-7.23-.22-2.14-.63-4.26-.88-6.39a10.8,10.8,0,0,1,.12-2l.52-.13c.39.76.77,1.53,1.12,2.22l2.15-.74c.14-1.27-1.37-1.65-1.84-2.71-.42.16-.79.33-1.16.45-.77.25-1.27,0-1.38-.83a17.69,17.69,0,0,1-.22-2.71c0-.4.38-.79.59-1.18a10.46,10.46,0,0,0,.84.65c.3.2.63.36.94.53,0-.33-.12-.66-.14-1s0-.61,0-.92,0-.78-.07-1.38L109.27,264c-.29-1.82-.54-3.29-.75-4.76-.39-2.81-.76-5.61-1.12-8.42-.38-3-.66-6.1-1.12-9.13s-1.13-6.17-1.67-9.26c-.38-2.18-.71-4.38-1.06-6.57-.37-2.36-.73-4.72-1.12-7.08-.93-5.71-1.9-11.41-2.82-17.12-.3-1.84-.44-3.72-.75-5.57-.17-1-.58-2-.76-3.07-.13-.75-.29-1.47.81-1.93s1-2.36-.31-3.18c-.25,1,.88,2.3-.88,3-.14-.51-.3-1-.4-1.5-.48-2.17-.94-4.34-1.4-6.52-.19-.92-.32-1.86-.53-2.78-1-4.31-2-8.61-2.93-12.92-.19-.86-.17-1.76-.34-2.61-.5-2.44-1.1-4.87-1.56-7.31-.36-2-.54-3.95-.89-5.9-.29-1.6-.7-3.18-1.08-4.76-.61-2.51-1.22-5-1.87-7.5-1.25-4.81-2.53-9.62-3.79-14.43a71.69,71.69,0,0,0-2-7.58,22.94,22.94,0,0,0-3.13-5.24c-.42-.57-1.44-.76-2.22-1-1.27-.42-2.58-.74-3.87-1.11ZM66.11,87.54l-.07.25c-.6,0-1.2.09-1.79.16a5,5,0,0,0-3.57,2.17c-1.56,2.35-1.45,4.91-.42,7.51.91,2.28,2.92,2.84,4.93,3.48a5.51,5.51,0,0,0,4.5,0c.86-.48,1.5-1.36,2.38-1.78a5.23,5.23,0,0,0,2.77-3.56,3.82,3.82,0,0,0-.18-2.86c-1.32-1.8-2.59-3.8-5-4.39C68.45,88.2,67.28,87.86,66.11,87.54ZM25.68,48.46l.54.43a6.4,6.4,0,0,0,1.32-1c.58-.73,1-1.57,1.67-2.55.08.18.05,0-.05-.1a3.49,3.49,0,0,0-1.27-.82c-.78-.15-.64.57-.77,1.05a8.92,8.92,0,0,1-.59,1.15C26.23,47.22,26,47.84,25.68,48.46Zm75.24,130.21c-2,2.05-2.07,2.54-.8,3.61l.5-.94,1.28.76.34-.24ZM25.09,56.73c1.2-.13,2.12-.06,2.28-1.27.22-1.66-.13-2.38-1.29-2.64a5.32,5.32,0,0,1,0,1.44A26.33,26.33,0,0,1,25.09,56.73Zm81.67,134c-.81,1.71-.22,3.11.4,4.57C108.74,193.26,108.7,192.76,106.76,190.73Zm-3.87,6.57c1.65-2.52,1.65-2.52,1.41-2.93-.67,0-1.18,0-1.69,0a1.26,1.26,0,0,0-1.25,1.77l1-.85Zm2.21,4.1c1.41-2.55,1.41-2.55.07-3.61l-.47,1.39-.88-1.54-.37.15a4.64,4.64,0,0,0,.24,1.21C104.12,199.84,104.64,200.62,105.1,201.4Zm2.23-15.21-.34.17-.44,3.89a2.69,2.69,0,0,0,2-2.19C108.62,187.47,107.77,186.82,107.33,186.19ZM32.14,47.35l-1.42-1.43c-.45.52-1.18,1-1.29,1.58-.21,1.12.9.75,1.45.8C31.19,48.33,31.55,47.81,32.14,47.35Zm76.26,78.07-.23-.35c-.43.26-1.23.58-1.2.77a18.35,18.35,0,0,0,.84,2.81l1.44-1.51-1.21-.56Zm4.11,152.42.21,0,.6-3.73c-1.2-.57-1.65-.37-1.57,1.07A12.09,12.09,0,0,0,112.51,277.84Zm-2.25-22.63-.56.15c.14.88.23,1.78.45,2.64a1,1,0,0,0,.87.39c.19,0,.48-.61.4-.81C111.1,256.76,110.66,256,110.26,255.21Zm-7.1-63.59h.37a7.94,7.94,0,0,0,.48-2c0-.31-.57-.63-.88-1-.18.35-.54.72-.51,1A10.82,10.82,0,0,0,103.16,191.62Zm11.57,116.26a2.24,2.24,0,0,0-.16-3.36C113.81,305.73,115.28,306.76,114.73,307.88ZM105.9,139.42c1.21-.5.46-1.4.65-2.09C104.93,137.53,104.9,137.64,105.9,139.42Zm1,46.34a7.16,7.16,0,0,0,1.38-.7,10.48,10.48,0,0,0-.73-1.82l-.37.08ZM106,204c1.2-.64,1.32-1.46.29-2.49Zm-4.38-17.76a5.59,5.59,0,0,0-.25,1.43c0,.24.31.52.55.68s.51-.13.54-.25C102.63,187.35,102.75,186.59,101.66,186.22Zm-3.34-4.48-1-1.68c-.16.22-.49.48-.45.65C97,181.3,97,182.19,98.32,181.74Zm14.84,99.6.64.23.62-1.53-.84-.26ZM86.73,133.66l.34-.08c.21-1.91.17-2-.85-2.64Zm18.44-19.11.67.94a8.07,8.07,0,0,0,.68-1.11c0-.09-.38-.51-.46-.48A4.57,4.57,0,0,0,105.17,114.55ZM84.62,100.14l.62-.11c-.71-.51,1-1.48-.62-2ZM116.14,317.8c-.82,1-.3,1.42.64,1.69ZM105.2,136.18l.35,0c.1-.56.23-1.12.28-1.68,0-.07-.4-.18-.63-.28Zm-28-44-.48.2c-.06.83.71,1.18,1.07,1.76l.34-.18Zm41.12,230.19c.1-.56.19-1.11.34-2C117.62,321.05,117.46,321.59,118.36,322.35Z" transform="translate(-16.96 -20.79)"/><path d="M20.84,291.92,20.31,289,20,289l.83-.94-.91-1c.34-.46.62-.88.95-1.25a2.16,2.16,0,0,1,.63-.36c.12.23.35.47.33.69-.08.86-.24,1.71-.37,2.49a8.75,8.75,0,0,0,1.54,0,1,1,0,0,0,.62-.6,12,12,0,0,0,.17-2.07q0-1.47-.06-2.94c0-.59.1-1,.79-.81h0c0,.63-.08,1.26-.11,1.89-.11,2.38-.23,4.76-.34,7.14,0,.87-.05,1.75,0,2.63s.15,1.59-1.19,1.58c1.22.59.95,1.45.87,2.38-.18,2-.14,3.93-.31,5.89s-.56,4.17-.77,6.27c-.2,1.93-.28,3.87-.43,5.8a6.33,6.33,0,0,1-.26,1,5.38,5.38,0,0,0-.38-1.84c-.74-1.2-1.64-2.3-2.59-3.59a12.85,12.85,0,0,0-.09,5.45c.07.25,1,.37,1.52.36a6.39,6.39,0,0,0,1.57-.41l-1.41,1,.35.38.76-.4c.27,1.75.94,3.35.39,5.1a8.89,8.89,0,0,0-.25,2.14c-.28,6.14-.47,12.28-.86,18.41-.27,4.05-.93,8.08-1.21,12.13-.19,2.77,0,5.56-.07,8.34,0,1.44-.15,2.87-.15,4.31a3.43,3.43,0,0,0,.48,1.19c.28-.32.78-.62.81-1,.18-2,.24-4,.34-5.95,0-.55.05-1.1.11-1.65,0-.36.16-.71.17-1.06.07-2.3.11-4.6.17-6.89a5.57,5.57,0,0,1,.14-1.3,7.91,7.91,0,0,0,.48-3.86,4.56,4.56,0,0,1,.17-1.53c.17-1.3.38-2.59.51-3.9.19-1.92.32-3.85.47-5.78.12-1.51.22-3,.32-4.52l.78-12q.39-6,.79-12c.06-.83.16-1.66.25-2.49.36-3.49.84-7,1-10.47.19-3.09,0-6.2.1-9.3.14-4,.44-8,.61-12.06.08-2,0-4.05.07-6.07a5,5,0,0,1,.44-1.85c1,1.6.13,3.59,1.17,5.1,1.33-.33-.38-2.72,2.26-2a9.51,9.51,0,0,0-1.38-2.53c-.75-.68-.52-1.16-.12-2l.56,1.51.39,0c.11-.43.44-1,.28-1.28-.51-.84-.38-2.22-1.67-2.41-.5-.08-1.06.33-1.71.56-.64-1.8.35-3.76.13-5.79a4.87,4.87,0,0,0,1,0c.15,0,.36-.23.37-.36s-.2-.4-.32-.4c-1.24,0-1.13-.67-.95-1.61a15,15,0,0,0,0-2.5c.09-5.84.17-11.69.3-17.54.14-6.3.36-12.6.5-18.9.09-4.15.09-8.3.18-12.45S29,195,29,190.92c0-2.9,0-5.81-.16-8.7-.19-4.47-.52-8.92-.72-13.39-.08-1.9,0-3.81.06-5.72a6.1,6.1,0,0,1,.18-.91l.35-.19,1.44,1.74.84-2.62H29.66l0-.3,1.08-.63c-.35-.89-.7-1.78-1.09-2.8l-1.16,1,.13-1.94A4.47,4.47,0,0,0,30,157c.2,0,.43-.64.65-1-.3-.16-.36-.22-.43-.24-2-.43-2-.42-1.22-2.25a3,3,0,0,0,.08-1c0-.32,0-.63,0-.75.43-.55.75-1,1.1-1.41.18-.22.41-.39.61-.59.61,1.08,1.87.31,2.78,1l.59-2.34c1.39-.18,2.54.66,3.08,2.58.56-1.22.67-2.7,2.09-2.87,1.79-.21,1.66,1.41,2,2.57l.46-.12-.34-3.79-1.24.7c-1-1.33-1.39-1.28-2.37,0a1.43,1.43,0,0,1-1.27.3,2.5,2.5,0,0,0-3.13.78c-.43.55-.94,1-1.41,1.56l-.05-.4L29.64,149l-.78,1.34-.41-.1c.06-1,.14-1.91.16-2.87a10.83,10.83,0,0,0-.12-1.5c0-.15-.13-.35-.07-.45,1-1.56.28-3.19.19-4.78-.13-2.31-.4-4.61-.49-6.91-.05-1.13.24-2.28.22-3.42,0-1.57-.26-3.14-.29-4.71a2.88,2.88,0,0,1,.48-1.79,1.93,1.93,0,0,0,.06-2.41,5.86,5.86,0,0,1-.78-3.89,21.08,21.08,0,0,0-.11-2.85c0-1.19.25-2.38.29-3.57a4.55,4.55,0,0,0-.32-1.71c-.37-1,.13-2.39,1.15-2.46,1.79-.13,3.49-.67,5.37-.53,2.46.17,5-.16,6.53-2.72a11.41,11.41,0,0,1,2.83-2.8c.63-.5,1.06.16,1.4.67.66,1,1.32,2,2,3l1.56,2.21a2.44,2.44,0,0,1,2.3,3.55,6.12,6.12,0,0,0,.38,5.41c.26.52-.18,1.4-.35,2.11s.07,1.14.89,1.2a24.14,24.14,0,0,1,0-3.81,19.66,19.66,0,0,1,1.33-4.43c.14-.34,1.25-.35,1.91-.3a1.87,1.87,0,0,1,.27,1.4c-1.53,3-1.55,6.31-2.4,9.43-.23.84-.52,1.65-.72,2.49-.52,2.3-1.09,4.6-1.5,6.92-.47,2.63-.82,5.29-1.18,7.94-.6,4.5-1.25,9-1.75,13.52q-.78,7-1.3,14.08c-.43,5.89-.56,11.8-1.08,17.68-.81,9.06-1.85,18.11-2.75,27.17-.32,3.21-.43,6.45-.76,9.67-.46,4.48-1,8.94-1.54,13.41-.45,4-.89,7.94-1.29,11.91-.34,3.33-.62,6.65-.91,10-.16,1.79-.27,3.58-.43,5.36-.51,5.44-1,10.88-1.55,16.31-.31,3.45-.5,6.91-.87,10.34s-.92,6.63-1.3,10-.71,6.83-1,10.24c-.47,5-.87,10-1.38,14.94-.69,6.83-1.5,13.65-2.19,20.48-.48,4.76-.82,9.54-1.25,14.31a20.34,20.34,0,0,1-.53,3.91,26.26,26.26,0,0,0-.88,7.22,11,11,0,0,1-1.06,3.46,1,1,0,0,1-.84.48c-1.12-.35-2.22-.81-3.31-1.25a11.49,11.49,0,0,0-3-1.17c-1.09-.09-1.5-.64-1.49-1.43.06-2.43.28-4.84.4-7.27s.24-4.77.32-7.16.13-4.92.16-7.38c0-3,0-6.07.05-9.11,0-3.94,0-7.88.05-11.81,0-1.68.15-3.35.16-5,0-3.72,0-7.43,0-11.14a1.57,1.57,0,0,1,.08-.44l1.45,1a8.88,8.88,0,0,0,1.47-1.19c.31-.42.67-1.07.54-1.47a16.08,16.08,0,0,0-1.47-2.73l-2,3.1c0-.69,0-1.38,0-2.07.14-4.22.33-8.45.43-12.67.08-3.07,0-6.15,0-9.22,0-2.38,0-4.77.16-7.15.15-3.06.42-6.12.59-9.18.1-1.73.12-3.47.17-5.21s.08-3.33.11-5q.06-3.82.09-7.65.07-7.18.14-14.37c0-3.71.05-7.43.15-11.14.07-2.75.27-5.5.39-8.25.1-2.42.17-4.84.24-7.26,0-.79.07-1.59.06-2.39-.06-2.53-.65-5.17-.11-7.56.75-3.27-.27-6.54.67-9.8,1.27-.16,1.33-1.46,1.36-2.32s-.65-1.8-.82-2.79l.55.88c0-.5.18-.82.07-.95-1.92-2.48-1.54-5.47-1.63-8.25-.17-5.26.1-10.53.05-15.8,0-3.52-.3-7-.41-10.56-.08-2.56,0-5.14-.11-7.7-.12-2.18-.54-4.34-.66-6.52-.1-1.78-.56-3.51-.15-5.39.35-1.62-.12-3.41-.15-5.12,0-1.31.06-2.62.07-3.93,0-1.59,0-3.17,0-4.76a20.64,20.64,0,0,1,.08-2.84,3.5,3.5,0,0,1,.71-1.51q1.45-2,3-3.89c.37-.44.86-1,1.36-1.09A1.22,1.22,0,0,1,26,108.41a47.68,47.68,0,0,1,.42,5.71c-.14,3.94-.56,7.87-.72,11.81-.16,4.13-.13,8.26-.26,12.39-.05,1.87-.39,3.73-.43,5.6,0,1.62.25,3.25.27,4.88,0,3.2,0,6.39,0,9.59s.27,6.28.35,9.43c.08,3.55.08,7.1.14,10.65.06,2.83.17,5.66.24,8.49,0,.93,0,1.86,0,2.79h-.41c0-.4-.07-.79-.12-1.19a6.11,6.11,0,0,0-.22-1.63c-.17-.39-.63-.64-1-.95a11.2,11.2,0,0,0,0,1.16,23.63,23.63,0,0,0,.44,2.92,2.84,2.84,0,0,0,.95,1.29c.54,2.07-.92,3.61-1.84,5.39,1.47.39,1.09-.89,1.72-1.43a3.93,3.93,0,0,1,.27.86c.11,2.86.21,5.73.3,8.59.08,2.55.18,5.1.18,7.64,0,2-.16,4.07-.2,6.1,0,1.84,0,3.67,0,5.51s-.21,3.39-.27,5.09c-.1,2.86-.16,5.72-.24,8.58-.08,3.07-.15,6.14-.24,9.21q-.11,3.53-.23,7c0,1.13-.06,2.27-.17,3.4a4.45,4.45,0,0,1-.5,1.18c-.11-.4-.23-.8-.34-1.21,0-.21-.07-.43-.18-1.1l-2.7,2.69.24.29,1.55-1.1c.62.59,1.19,1.1,1.73,1.64a.76.76,0,0,1,.19.54c-.13,1.7-.25,3.41-.46,5.11a.93.93,0,0,1-.68.6c-.84.08-1.7,0-2.54,0-.21,0-.55.17-.57.31A.91.91,0,0,0,21,267c.57.54,1.18,1,1.88,1.62l-.72.88-.94-1.37-.21.08.44,3.1,1.15.17A5.65,5.65,0,0,0,22.6,277c-.14-.09-.29-.18-.42-.28l-.44-.35-.38.07.21,2.37,1-.14-.31,1.07a1.91,1.91,0,0,0-2.6,1.35c-.14,1.08-.22,2.16-.33,3.24,0,0-.05.1,0,.11,1.11,1.08-.26,2-.16,3s.33,1.88.52,2.81a2.57,2.57,0,0,0,.31,1,3.88,3.88,0,0,0,.86.67c-.78.87-.54,1.83-.5,2.77l.48,0ZM42.13,160.37c1-1.23.59-1.76-.61-2.31l.64,2.34a6,6,0,0,0-1.19-.09c-1.24.16-1.67.9-1,2.06l.21-1.42.92,1.23C41.46,161.51,41.8,161,42.13,160.37Zm1-35.74a10.8,10.8,0,0,1-.11,1.13c-.19.93-.5,1.86-.6,2.8a7.4,7.4,0,0,0,.24,1.85c.17-.19.52-.39.61-.67.46-1.49.87-3,1.26-4.51,0-.19-.12-.44-.2-.71l-1.21.11c.74-.82.51-1.52-.31-2.08-.18-.13-.53,0-.8,0a2.73,2.73,0,0,0,.21.77C42.46,123.76,42.8,124.19,43.1,124.63Zm-20,83.62,1-2.1.6,1.18.33-.08-.55-5.19c-2.31.34-2.64.68-1.95,1.93a2.92,2.92,0,0,0,.28-.21c.31-.25.62-.52.95-.76,0,0,.36.33.33.41a3.12,3.12,0,0,1-.6,1,4.84,4.84,0,0,0-.65,3.59c0,.08.21.1.31.16l-1.33,2.06,1.24,1.12c.17-.89.35-1.58.41-2.28C23.5,208.85,23.25,208.55,23.13,208.25Zm20.93-70.76c-.05-.23,0-.51-.15-.65-1.19-1.35-2.39-2.69-3.63-4-.12-.11-.61,0-.79.12-.66.53-1.09.61-1.36-.36s-.94-.82-1.61-.5a4.7,4.7,0,0,0-.73.52c-.41-1.06-.21-1.64,1-1.62l0-.31-1.9-1.1c-.08.9-.15,1.49-.17,2.09s0,1.28,0,1.94c.19.1.71.24.76.48s-.23.7-.38,1.06l-1.6-.93.25,2.73c.4-.07.76-.15,1.13-.18.71,0,1.37-.09,1.31-1.11a2,2,0,0,1,.36-1c.12-.21.38-.5.52-.48a.82.82,0,0,1,.54.52,9,9,0,0,1,.14,1.47l.3.13a4,4,0,0,1,.66-.9c.63-.48,1.32-.88,2-1.31a13.46,13.46,0,0,1,.8,1.73,12.15,12.15,0,0,1,.26,1.8Zm-12-.11c.26-.33.56-.58.52-.66-.72-1.4.74-2.81,0-4.2a.55.55,0,0,1,.14-.52c.94-.49.78-1.31.81-2.17a4.86,4.86,0,0,1,.72-1.65l1.35.74c.15-1.36-2.07-2.81-.09-4a18.23,18.23,0,0,0-1-1.9,1.17,1.17,0,0,0-1.85-.22l.93,2.31-.56.2-.47-1.54c-.83.14-1.21.52-1,1.45a6,6,0,0,1-.09,1.39c0,.53,0,1.06,0,1.6l.34,0,.56-2.21.36,0a9.3,9.3,0,0,1,.81,2c0,.23-.6.61-1,.88s-.66.33-.93.56-.58.53-.57.78c.07,1.26.19,2.53.37,3.78C31.56,135,31.81,136.06,32.07,137.38Zm16.25-30.13c-1.85,1.36-2.78,3.06-2.3,4.73a5.38,5.38,0,0,1-.59,4.45c-.23.44.11,1.19.19,1.8a8.08,8.08,0,0,0,1.21-1c.19-.25.15-.68.22-1,.12-.62.27-1.24.36-1.87C47.71,112.05,48,109.81,48.32,107.25ZM38.85,140c-.36,0-.83-.23-1-.08a1.41,1.41,0,0,0-.5,1.08,3,3,0,0,1-.86,3.11,1.28,1.28,0,0,0-.07,1.18c.2.41.68.69,1,1,.3-2.17.5-2.41,2-2.29l.45-1.61c.39.8.55,1.75,1.1,2.1s1.53.17,2.32.21c-.35-.72-1-1.06-1.2-1.57A2.29,2.29,0,0,0,40,141.56c-.58,0-1.14,1-1.69,1.47C37.51,141.87,37.32,140.75,38.85,140Zm-3.36,17.16c-.22.6-.46,1.23-.69,1.86a9.18,9.18,0,0,0-.42,1.32,9.4,9.4,0,0,0,0,1.45c.89-.74,1.31-1.6,2.28-.59-.39-1.44-.51-2.56.8-3.07-.24-.55-.43-1-.63-1.47-.11-.24-.22-.65-.36-.66-1.18-.1-1-.95-1-1.68s.17-1.5.2-2.25a1.23,1.23,0,0,0-.29-.71.59.59,0,0,0-.5.12c-.19.47-.58,1.25-.42,1.41.93.88.27,1.88.38,2.8C35,156.32,34.71,157.14,35.49,157.19Zm5.85-32.89-.46-.37c-.24.31-.51.62-.74.95s-.19.58-.36.64-.49-.14-.66-.31a1,1,0,0,0-1.71.38,9.25,9.25,0,0,0-.88,2.54,2.56,2.56,0,0,0,.77,2,5.61,5.61,0,0,0,2.44.52c.2,0,.43-.25.64-.38l-.08-.35-2.54-.43-.15-3.33c1.11.17,2.12.63,2.66.31S41,125.06,41.34,124.3Zm-8.71,18.85c-1.55-.58-1.49,1.07-2.56,1.85,2.27-.33,1.38,1.51,2,2.25,2.06-.17,0-2.17,1.21-2.71a4.6,4.6,0,0,0,.92.54.67.67,0,0,0,.62-.1.72.72,0,0,0,0-.64c-.4-.78-.85-1.53-1.38-2.46Zm7.26-26.69c1.87-.48,3.65-3.36,3.23-5.47a8.16,8.16,0,0,0-1,.84c-.28.32-.39.84-.71,1C40.08,113.75,39.27,114.79,39.89,116.46Zm-4-4.14c-1.18,2-2.16,3.87-.65,4.89,1.41-.47,1.57-1.81,1.84-3A1.58,1.58,0,0,0,35.94,112.32ZM28.29,277c1.33.07,1.92-.48,2.09-2.15a4.52,4.52,0,0,0-.69-2.44c-.25-.43-1-.58-1.48-.86-.66,1.23-.59,2,.31,2.32,1.17.39.79,1.07.46,1.78C28.8,276,28.58,276.43,28.29,277Zm-4.9-131.4c1.75-1.43.12-3.4.61-5.1,0-.09-.22-.26-.37-.42-.67.71-1.17,1.28-.57,2.3a5.51,5.51,0,0,1,.33,2l-.59.17-1-2c-1,.9-.82,1.65.36,2.15A6.56,6.56,0,0,1,23.39,145.58Zm9.49-38.1a6.66,6.66,0,0,0-.61,1.17c-.09.28.09.65,0,.9-.39.84-.9,1.63-1.27,2.49-.12.27,0,.67.07,1,.34-.12.87-.16,1-.38.35-.78.53-1.64.82-2.45a5,5,0,0,1,.57-1c.2-.31.45-.58.68-.87Zm14.34,40.91c-.7-.56-1.43-1.17-2.19-1.72-.13-.09-.43,0-.62.06a11,11,0,0,0-1.24.48c-.31.14-.82.34-.83.52a17.7,17.7,0,0,0,.2,2.29l.36.19c0-2,1.37-2,2.54-2.28C46,149.28,46,149.28,47.22,148.39ZM21.93,294.83c-.36.31-.72.89-1,.86-1.08-.11-.86.51-.8,1.11,0,.37,0,.74.06,1.1L19,297.65l.1,1.61,3.1-1.77-.16-.36-1-.25,1.42-.56ZM34.77,120.32c.94-2.4-1.74-3-2.17-4.68A4.11,4.11,0,0,0,32,117c0,.41.22,1.2.39,1.21C33.81,118.25,34.3,119.27,34.77,120.32Zm2,3,.43.22c.29-.27.75-.48.83-.8a6.49,6.49,0,0,0-.75-4.9,1.14,1.14,0,0,0-.13.86,2.68,2.68,0,0,1-.19,2.7C36.64,121.94,36.8,122.71,36.75,123.36ZM31.28,227.61c.83-.31,1.72-.4,1.83-.73a3.75,3.75,0,0,0-.21-2c0-.16-.77-.31-1-.18C30.68,225.33,31.67,226.37,31.28,227.61Zm9.65-47.49-.9-1.23c-.31.26-.73.46-.89.78a4.68,4.68,0,0,0-.46,1.71c0,.19.47.42.73.63ZM19.83,304.7c1-2.06,1-2.06,1.93-.83.69-1-.24-1.44-.64-1.95a1.54,1.54,0,0,0-1.27.16C19.63,302.86,18.88,303.71,19.83,304.7ZM36.91,165.2c.14-.86.28-1.51.33-2.16A4.11,4.11,0,0,0,37,162c-.35.23-.95.41-1,.7a18.81,18.81,0,0,0-.26,2.79ZM22.56,289.34c-.23,1.47-.47,2.79-.63,4.13,0,.16.38.37.58.56.21-.32.65-.87.58-.94-.6-.65-.22-1.18.1-1.73C23.65,290.57,23.46,290,22.56,289.34ZM36.43,139c-1.11.53-2.17,1.6-3-.1,0-.06-.48,0-.51,0a1.08,1.08,0,0,0-.1.72,13.68,13.68,0,0,0,.59,1.53l1.23-1C35.94,140.9,36.22,140.75,36.43,139Zm-2.11,16.55L33,153.79l-.25.21.36,1.07c-1.06-.16-1.73.08-1.55,1.33l1-.92.57,1.78Zm5.5,1.6.54.06c.08-.53.12-1.07.25-1.6.19-.79.45-1.57.65-2.37.08-.33.09-.68.14-1-.36.18-1,.32-1,.55C40.1,154.22,40,155.7,39.82,157.16ZM29.68,199.87a3.2,3.2,0,0,0,.55,3.43C31.07,201.51,31,201.27,29.68,199.87Zm-7.52,110.9a11.28,11.28,0,0,0-1.5.88c-.13.1-.05.46-.07.7.9-.15.51.48.56.88a2.7,2.7,0,0,0,.35.7l.33-.07Zm.32-47.86L22.29,264c.92,0,1.94.41,2.13-.83.06-.38-.43-.85-.68-1.28l-.37.21.25,1.28Zm-1.27,9.55c-.95.33-1.2,1.24-.73,3.16.34-.46.66-.71.7-1A19,19,0,0,0,21.21,272.46Zm9.56-66.66c-.84.36-1,1.49,0,3.51Zm.6,49.06A1.51,1.51,0,0,0,31.5,257c.19.18.78,0,1.55-.12Zm5-100.6c1.11-.74,1.24-1.28.66-2.65A2.09,2.09,0,0,0,36.39,154.26ZM28.14,261.55l.36.12a8.43,8.43,0,0,0,.84-1.91c0-.25-.59-.62-1-1Zm-6.6-46.83.4.09v-3.59h-.4Zm8.57-17.23.39.33c.37-.32,1.08-.68,1.05-.93-.08-.5-.57-.93-.89-1.39Zm5.71-30.44c-.26.75-.5,1.36-.66,2,0,.09.45.46.6.41C36.35,169.27,36.54,167.74,35.82,167.05Zm9-16.78a11.22,11.22,0,0,0,1.83.39,1.06,1.06,0,0,0,.4-.8C46.88,149.39,45.44,149.54,44.87,150.27Zm-22.11,9.82c.86.67,1.29.1,1.62-.51.12-.22,0-.58,0-.88-.33,0-.78,0-.95.17A4.92,4.92,0,0,0,22.76,160.09Zm19.18,4.33-.55.13a16,16,0,0,0,.47,1.84c0,.16.44.2.68.29.06-.25.23-.53.16-.73A15.54,15.54,0,0,0,41.94,164.42ZM44.38,159l.36,0c-.19-.85.9-1.74-.36-2.83Zm5.17-38.21-.57-.22a12.43,12.43,0,0,0-.73,1.46c-.08.21.1.51.16.78.27-.1.7-.14.77-.32A13.51,13.51,0,0,0,49.55,120.75ZM38.2,160.69c1.46-1.06,1.51-1.66.13-2.28Zm1.6-52.95.27-.76-2-.59-.19.55Zm5.84,31.5-.32.24.69,1.13,1.11-1-.23-.3ZM39,170c-.83.58-1.11,2.15-.67,2.44.11.07.62-.17.64-.3A20.53,20.53,0,0,0,39,170Zm-5.1,105.67.55-1.92C32.85,274,32.77,274.22,33.91,275.65ZM32.35,263l-1.65-1.87C30.49,262.48,30.49,262.48,32.35,263ZM42,139.35c-.39.45-.81.75-.77.91a1.68,1.68,0,0,0,.73.74c.07,0,.54-.33.53-.49A4.08,4.08,0,0,0,42,139.35Zm-10.5,2.92a8.32,8.32,0,0,1,.4-1.22,4.43,4.43,0,0,1,.59-.72l-.24-.21C30.91,140.88,30.76,141.26,31.48,142.27Zm15.2-18.4c-.57.54-1.1.81-1.16,1.16s.42.71.84,1.33Zm-8-6.27.26-.24-1.66-1.71C37,117.2,38.09,117.17,38.72,117.6ZM50.59,124,49,126C50.66,126.05,50.28,124.72,50.59,124Zm-3,11.76.28.06,1-1.68-.75-.23Zm-.31-29.95-1.34-.85-.26.21.56,1.49ZM30.11,287.56l-.6.13c.1.5.19,1,.31,1.51a3,3,0,0,0,.51-.08C30.28,288.6,30.2,288.08,30.11,287.56Z" transform="translate(-16.96 -20.79)"/><path d="M91.69,86.72a15.14,15.14,0,0,1-.8,1.65.93.93,0,0,1-.61.29c-.81.17-1.63.31-2.64.49l.93,1.54-.4.24-1.32-2.16a6.47,6.47,0,0,0,1-1.35,1,1,0,0,0-.32-1c-.29-.19-.94-.28-1.12-.1-1,1-1.84.71-2.9.14a21.92,21.92,0,0,0-4-1.67c-1.26-.39-2.58-.55-3.54-1.59-.14-.15-.56-.11-.81,0-1.71.56-3.17-.16-4.66-.82A.87.87,0,0,1,70,81a3.83,3.83,0,0,1,1.53-1.47,27,27,0,0,1,4.12-.91,21.76,21.76,0,0,1,2.8-.27c1.07,0,2.16.07,3.21-.07a5.5,5.5,0,0,0,1.69-.82c.63-.33,1.22-.76,1.87-1,1.5-.6,3-1.15,4.56-1.7.73-.26,1.49-.46,2.26-.7.08-.22.1-.68.33-.84.77-.53,1.62-1,2.43-1.43a.64.64,0,0,0,.28-.35c.54-2,2.08-3.16,3.66-4.3a5.36,5.36,0,0,0,1-1.27c.09-.12,0-.38.15-.44,1.26-.77,1.17-2,1.4-3.28a28.89,28.89,0,0,1,1.38-3.91c.3-.9.48-1.84.77-2.74.18-.55.51-1.05.69-1.6a4.17,4.17,0,0,0,.37-1.7c-.14-1.31-.44-2.6-.67-3.9,0-.07,0-.17-.07-.22-1.25-1.14-.56-2.69-.83-4-.06-.27,0-.6-.1-.82-1.39-2.62-2.09-5.6-4.18-7.83-.87-.93-1.89-1.73-2.76-2.66-.38-.41-.86-1.07-.78-1.51.27-1.38-.74-1.79-1.55-2-1.72-.47-3.51-.68-5.27-1a1.53,1.53,0,0,0-.54.11l-.15.38a28.49,28.49,0,0,0,3.68,1.9,6,6,0,0,1,3.17,2.3A21.55,21.55,0,0,0,97.7,35.9a10.47,10.47,0,0,1,3.12,6.36c.41,2.91,1,5.81,1.23,8.74a25.49,25.49,0,0,1-.28,4.31l-.86-.06.52,2.54H99.9l-.16.33,1,.6-.2.45-1.48-.46V61c-1.16.75-2.17,1.55-1.84,3.3a2.47,2.47,0,0,1-.94,2.3c-1.64,1.4-3,3.08-4.75,4.39a38.81,38.81,0,0,1-5.33,3.3,6.67,6.67,0,0,1-2.18.33c.2-1.64,1.52-1.94,2.49-2.43s2-.82,2.57-2c.21-.45.93-.65,1.2-1,.6-1,1.2-2,1.81-3,.94-1.52,2.22-2.93,2.76-4.58.9-2.7,2.19-5.43,1.25-8.45a10.23,10.23,0,0,1-.18-2A10.75,10.75,0,0,0,95.66,49a47.66,47.66,0,0,0-1.78-5.25,12.65,12.65,0,0,0-4.44-5.21,62.31,62.31,0,0,0-5.5-3.84,28.42,28.42,0,0,0-5.63-2.18c-1.62-.48-2.25-1.2-2-2.86.16-1.24.22-2.5.38-3.74a7.14,7.14,0,0,1,.49-1.37,1.25,1.25,0,0,1-1-1.86,1.77,1.77,0,0,1,2.48-1.13,9,9,0,0,0,4.71,0,46.09,46.09,0,0,1,5-.78c.49-.06,1.22-.05,1.48.25,1.2,1.34,2.95,1.06,4.38,1.68a8.43,8.43,0,0,1,1.08.63,4.17,4.17,0,0,0,.89.59c1.31.39,2.67.65,4,1.12A44.52,44.52,0,0,1,104.22,27,27.91,27.91,0,0,1,107,28.52a7.34,7.34,0,0,1,1.23,1.2c.58.63,1.14,1.26,1.69,1.92a26.1,26.1,0,0,1,2.19,2.77,56.66,56.66,0,0,1,3.26,5.78,18.28,18.28,0,0,1,1.31,4.3c.52,2.54.85,5.11,1.3,7.65a15.67,15.67,0,0,1-.49,8.23c-.48,1.34-.5,2.83-.89,4.21s-1.3,2.7-1.47,4.11c-.25,2.07-2.12,3-2.82,4.66a16.61,16.61,0,0,1-.71,2.23,10.79,10.79,0,0,1-2.4,3.15c-3.16,2.38-6.46,4.58-9.73,6.83a18.2,18.2,0,0,1-2.29,1.26.85.85,0,0,1-.75,0,1.49,1.49,0,0,0-2.25.1C93.36,87.77,92.67,87.7,91.69,86.72ZM78.39,24.23l-.15.35,1.26.57c1.84.92,3.74,1.74,5.48,2.82a1.66,1.66,0,0,0,2.26-.08C84.09,26.73,81.79,24.2,78.39,24.23Zm21.88,25.84c.35-1.23.06-2.24-.69-2.29-.22,0-.58.44-.69.75C98.44,49.86,99.47,49.84,100.27,50.07ZM85.41,83l-.55-.37-.75,1,.64.45Z" transform="translate(-16.96 -20.79)"/><path d="M113,357.56c-.18-.14-.74-.36-.77-.64-.2-1.54-.16-3.11-.41-4.64a32.66,32.66,0,0,0-1-3.56,10.55,10.55,0,0,1-.38-1.84c-.07-.85,0-1.71,0-2.57,0-.24-.15-.51-.08-.71.74-2.05-.36-4-.39-6,0-1-.67-2-.85-3-.23-1.33,0-2.77-.46-4a9.9,9.9,0,0,1-.65-5c.15-1-.62-2.06-.83-3.12a10.25,10.25,0,0,1-.18-3c.07-.63.62-1.2.92-1.82.2-.38.52-.84.44-1.19s-.65-.44-1-.54a6.58,6.58,0,0,0-1.28-.1c-.23-1.91-.47-3.67-.64-5.43-.31-3.23-.55-6.47-.86-9.69-.2-2.19-.51-4.37-.68-6.56-.25-3.23-.42-6.47-.63-9.71a1.68,1.68,0,0,0-.07-.59c-.95-2.25-.91-4.69-1.38-7-.84-4.18-1.66-8.36-2.41-12.55-.27-1.51-.29-3-.49-4.56-.17-1.29-.51-2.56-.65-3.86-.41-3.92-.61-7.87-1.22-11.76-.27-1.72-.89-3.38-.66-5.15a20.67,20.67,0,0,0-.59-7.22c-.23-1.1.08-2.31-.07-3.45-.52-4-1.14-8-1.7-12.06-.37-2.61-.66-5.24-1.09-7.85-.34-2.07-.9-4.11-1.28-6.17-.3-1.57-.42-3.17-.72-4.73-.66-3.44-1.41-6.86-2.08-10.3-.36-1.84-.54-3.71-1-5.53-.62-2.64-1.4-5.24-2.08-7.87-.16-.64-.16-1.33-.3-2-.7-3.22-1.53-6.42-2.12-9.67-.72-4-1.17-8-1.86-12-.73-4.18-1.56-8.34-2.44-12.49-.57-2.67-1.3-5.31-2-8-.5-2-.89-4-1.53-6-.58-1.77-1.41-3.46-2.1-5.1,1.47.8,3.08,2.73,5.44.93a8.8,8.8,0,0,1,1.57,5.3c0,.27-.44.57-.74.76-.61.39-1.27.71-1.91,1.06l.14.64a9.28,9.28,0,0,0,2,0c.72-.14,1.21-.15,1.5.66.48,1.34,1,2.65,1.54,4a16.28,16.28,0,0,1,.75,1.85,10.16,10.16,0,0,1,.17,1.84,17.88,17.88,0,0,0,.23,2.74c.24,1,.75,1.92,1.07,2.9a1,1,0,0,1-.94,1.47,8.59,8.59,0,0,1-1.66.22c-.77,0-1.27.41-1.14,1s.42,1.34,1.33,1.22a6,6,0,0,1,1.53-.23c.45.07,1.1.32,1.24.66a11.25,11.25,0,0,1,.78,3c0,.29-.54.93-.85.93A2.83,2.83,0,0,0,82.57,152c1.09.79,2.2.36,3.32-.1.94-.39,1.37-.09,1.52.94.2,1.42.55,2.82.89,4.21.4,1.64.06,2.3-1.52,2.88a8.18,8.18,0,0,0-1.6.78.94.94,0,0,0-.32.82.89.89,0,0,0,.72.47,4.72,4.72,0,0,0,1.63-.21c1.39-.46,1.68-.33,2,1,.15.66.43,1.29.57,2,.24,1.19-.15,1.78-1.34,2.1l-2.39.58a2.46,2.46,0,0,0,2.56,1.52c1.61-.16,2,.06,2.47,1.56a42.6,42.6,0,0,1,1.17,5.09c.26,1.6-.31,2.16-1.91,2.29-.24,0-.48.07-.71.09-.54.05-1.35-.06-1.16.76A1.41,1.41,0,0,0,90,180c2.55-.18,2.64-.18,3.33,2.23a35.4,35.4,0,0,1,.92,4.93c.14,1.07.08,2.06-1.44,2.24a7.53,7.53,0,0,0-2.08,1c.13.92.49,1.34,1.57,1.18,2-.28,2.31,0,2.88,2,.24.84.56,1.66.76,2.51.41,1.73,0,2.38-1.64,3a3.79,3.79,0,0,0-.78.28c-.27.23-.7.63-.64.83a1.41,1.41,0,0,0,.83.87,5.34,5.34,0,0,0,1.78,0,.9.9,0,0,1,1.17.85c.61,3.53,1.26,7.06,1.83,10.6a1.37,1.37,0,0,1-.55,1.1c-1,.71-2.17,1.32-3.27,2l.09.4a4,4,0,0,0,.77.33,7.69,7.69,0,0,0,.83,0c3.22.23,2.61-.78,3.39,2.57a16,16,0,0,1,.59,4.93c-.09,1.16.55,2.38.86,3.57a7.78,7.78,0,0,1,.17.81c.24,1.72.16,1.83-1.48,2.13a3.43,3.43,0,0,1-.71.14,2.33,2.33,0,0,0-2.43,2,13.38,13.38,0,0,0,2.18.61c.78.09,1.6-.14,2.39-.06a1.26,1.26,0,0,1,.89.77c.62,3.25,1.16,6.51,1.72,9.77a7.73,7.73,0,0,1,.07,1.08c.08,2-.49,2.32-2.5,2.15-1.11-.1-2.29.65-3.43,1,0,0,0,.06-.06.1.44,1.68,1.34,2.18,3,1.84a29.81,29.81,0,0,1,3.2-.3c.34,2,.65,3.95,1,5.86.27,1.53.59,3.05.86,4.58.35,2-.31,2.78-2.22,2.17-1.34-.43-2.25.28-3.26.69a.83.83,0,0,0,0,1.61,5.82,5.82,0,0,0,2.4.21c.58,0,1.14-.38,1.72-.44,1.29-.14,2,.34,2.16,1.52.53,4.24,1,8.48,1.47,12.72.24,2.21-.33,2.13-2.9,2.56a4.34,4.34,0,0,0-1.38.23c-.3.18-.41.68-.6,1a3.88,3.88,0,0,0,1.06.35,24.57,24.57,0,0,1,3-.05,1.66,1.66,0,0,1,1.2,1c.58,3.26,1.12,6.52,1.47,9.8a30.9,30.9,0,0,1-.16,4.6c0,.39.05.79.07,1.19.11,2.14.19,4.28.35,6.41a26.36,26.36,0,0,0,.52,3.76,18.85,18.85,0,0,1,.3,7.48,1.3,1.3,0,0,0,.09.7c1.23,2.88,1.12,6,1.36,9,.19,2.3.59,4.59.94,6.88.55,3.69,1.16,7.38,1.69,11.07.17,1.25,0,2.34-1.53,2.81a2.14,2.14,0,0,0-1,1.7c0,.76.8,1,1.56.89a1.45,1.45,0,0,1,1.79,1.05,17.13,17.13,0,0,1,.27,4.11c0,.33-.88.67-1.39.91s-1.27,0-1,.8c.16.42.86.68,1.37.88.23.09.59-.12,1-.22.21.45.45.86.61,1.3a25.7,25.7,0,0,1,1.78,9.09,1,1,0,0,1-.3.7c-.14.09-.5-.07-.69-.21-.88-.62-1.75-1.26-2.61-1.91-1.78-1.34-2.91-3-2.56-5.37C112.83,359.73,112.89,358.67,113,357.56Zm-7.48-60.11c-.17.29-.35.54-.48.82s-.23.61-.35.91c.32.06.71.26.95.15,1-.44,1.86-1,2.79-1.48l-.15-.25Z" transform="translate(-16.96 -20.79)"/><path d="M55.83,35.27a19.36,19.36,0,0,0-2.7.69,6.79,6.79,0,0,0-1.71,1.2,29.27,29.27,0,0,0-2.57,2.28,16.79,16.79,0,0,0-2.63,3.17,40.9,40.9,0,0,0-3.17,6.65A14,14,0,0,0,42.37,56a11.14,11.14,0,0,0,1.91,4.63,2.67,2.67,0,0,1,.33,1.74c-.84.42-1.17-.36-1.43-1s-.56-1.54-.86-2.4c-1,.53-1.51,0-2.07-.82-2-2.73-2.66-5.91-3.29-9.14s.23-6.09,1-9a10.91,10.91,0,0,1,1-2.42c1.26-2.29,2.44-4.64,3.92-6.79.57-.83,1.85-1.16,2.78-1.76a5.55,5.55,0,0,0,1.44-1.13,15.37,15.37,0,0,1,5.49-4.48c1.45-.71,2.07-.23,2.07,1.38a2.1,2.1,0,0,0,.19,1c1.63,2.65,1.37,5.55,1.13,8.45C55.94,34.6,55.89,34.87,55.83,35.27Z" transform="translate(-16.96 -20.79)"/><path d="M67.57,111.3a5.47,5.47,0,0,1,4.52.3c-.29.43-.66.74-.75,1.12-.12.53-1,1.12-.07,1.66s1.58.86,2.44.19a6.19,6.19,0,0,1,1.3-1,1.39,1.39,0,0,1,1.28.24,9.15,9.15,0,0,1,1.26,2.27c.18.45.27,1.34.06,1.47-.77.47-1.31,1.7-2.55,1a10.17,10.17,0,0,0-1.59-.78,9.34,9.34,0,0,1-1.73-.53,20.68,20.68,0,0,0-2-1.82c-1.23-.85-2.54-1.59-3.84-2.35a7.62,7.62,0,0,0-1.32-.54,1.92,1.92,0,0,1-1.33-2.13,1.56,1.56,0,0,1,2-1.06,14,14,0,0,1,2.39.63C68.28,110.22,68.54,110.66,67.57,111.3Z" transform="translate(-16.96 -20.79)"/><path d="M106.92,83.16c-.73,1.07-1.42,2.17-2.21,3.19a32.57,32.57,0,0,1-2.86,3.33,14.91,14.91,0,0,1-2.49,1.77c-2.35,1.49-4.7,3-7.09,4.42-.53.32-1.58.69-1.76.49a3.24,3.24,0,0,1-.67-2c0-.37.64-.83,1.08-1.08,1.71-1,3.45-1.87,5.17-2.81a1.59,1.59,0,0,0,.53-.47,7.58,7.58,0,0,1,4.53-2.73,4.91,4.91,0,0,0,1.76-1.1c1.25-1,2.44-2.16,3.66-3.24Z" transform="translate(-16.96 -20.79)"/><path d="M55.38,121.52c0-.63,0-1.15.09-1.66.17-1.21.46-2.41.57-3.63.21-2.15,1.71-3.19,3.67-2.4a17.34,17.34,0,0,1,2.76,1.38,1.24,1.24,0,0,1,.08,1.07c-2.45,1.36-4.86,2.75-6.59,5C55.9,121.4,55.74,121.4,55.38,121.52Z" transform="translate(-16.96 -20.79)"/><path d="M59.3,109.11a4.29,4.29,0,0,1-1.25-.12c-.95-.37-1.86-.87-2.81-1.26-1.71-.71-3.3-1.47-4.15-3.34a9.35,9.35,0,0,0-1.84-2c-.25-.29-.45-.62-.68-.93l.21-.28a13.8,13.8,0,0,1,2.41,1.46c.89.83,1.53,1.94,2.39,2.8a7.86,7.86,0,0,0,2.05,1.33c1,.49,2.09.88,3.14,1.3l1,.4Z" transform="translate(-16.96 -20.79)"/><path d="M48.78,99.43,47,99.67c-.41-.42-.92-.92-1.38-1.46a2.42,2.42,0,0,1,.63-3.57,1.22,1.22,0,0,1,1.73,1c0,.3,0,.69.14.87A2.34,2.34,0,0,1,48.78,99.43Z" transform="translate(-16.96 -20.79)"/><path d="M24.47,282.16c-.71-1.11-1.22-2.15-.55-3.58.32-.66-.14-1.68-.19-2.54,0-.21.17-.43.26-.65.17.15.43.28.47.45a6.11,6.11,0,0,1,.19,1.53c0,1.59-.13,3.18-.19,4.78Z" transform="translate(-16.96 -20.79)"/><path d="M20.32,283.53l.14-2.54,2,.33Z" transform="translate(-16.96 -20.79)"/><path d="M22.58,283.13l-.12,2-.19.14a6.94,6.94,0,0,1-.64-1.56C21.6,283.57,22.27,283.31,22.58,283.13Z" transform="translate(-16.96 -20.79)"/><path class="cls-1" d="M66.11,87.54c1.17.32,2.34.66,3.52.95,2.44.59,3.71,2.59,5,4.39a3.82,3.82,0,0,1,.18,2.86,5.23,5.23,0,0,1-2.77,3.56c-.88.42-1.52,1.3-2.38,1.78a5.51,5.51,0,0,1-4.5,0c-2-.64-4-1.2-4.93-3.48-1-2.6-1.14-5.16.42-7.51A5,5,0,0,1,64.25,88c.59-.07,1.19-.11,1.79-.16Zm.82,10.81c.59-.14,1.76-.36,2.91-.67a2.66,2.66,0,0,0,1.63-4.27,7.35,7.35,0,0,0-2-1.74,21.25,21.25,0,0,0-2.91-1c-2.5-.89-3.27.25-3.84,2.48a6,6,0,0,0-.06,1C62.33,96.9,63.54,98.29,66.93,98.35Z" transform="translate(-16.96 -20.79)"/><path class="cls-1" d="M25.68,48.46c.28-.62.55-1.24.85-1.85a8.92,8.92,0,0,0,.59-1.15c.13-.48,0-1.2.77-1.05a3.49,3.49,0,0,1,1.27.82c.1.08.13.28.05.1-.63,1-1.09,1.82-1.67,2.55a6.4,6.4,0,0,1-1.32,1Z" transform="translate(-16.96 -20.79)"/><path class="cls-1" d="M100.92,178.67l1.32,3.19-.34.24-1.28-.76-.5.94C98.85,181.21,98.94,180.72,100.92,178.67Z" transform="translate(-16.96 -20.79)"/><path class="cls-1" d="M25.09,56.73a26.33,26.33,0,0,0,1-2.47,5.32,5.32,0,0,0,0-1.44c1.16.26,1.51,1,1.29,2.64C27.21,56.67,26.29,56.6,25.09,56.73Z" transform="translate(-16.96 -20.79)"/><path class="cls-1" d="M106.76,190.73c1.94,2,2,2.53.4,4.57C106.54,193.84,106,192.44,106.76,190.73Z" transform="translate(-16.96 -20.79)"/><path class="cls-1" d="M102.89,197.3l-.53-2-1,.85a1.26,1.26,0,0,1,1.25-1.77c.51,0,1,0,1.69,0C104.54,194.78,104.54,194.78,102.89,197.3Z" transform="translate(-16.96 -20.79)"/><path class="cls-1" d="M105.1,201.4c-.46-.78-1-1.56-1.41-2.4a4.64,4.64,0,0,1-.24-1.21l.37-.15.88,1.54.47-1.39C106.51,198.85,106.51,198.85,105.1,201.4Z" transform="translate(-16.96 -20.79)"/><path class="cls-1" d="M107.33,186.19c.44.63,1.29,1.28,1.24,1.87a2.69,2.69,0,0,1-2,2.19l.44-3.89Z" transform="translate(-16.96 -20.79)"/><path class="cls-1" d="M32.14,47.35c-.59.46-.95,1-1.26.95-.55,0-1.66.32-1.45-.8.11-.59.84-1.06,1.29-1.58Z" transform="translate(-16.96 -20.79)"/><path class="cls-1" d="M108.4,125.42l-.36,1.16,1.21.56-1.44,1.51a18.35,18.35,0,0,1-.84-2.81c0-.19.77-.51,1.2-.77Z" transform="translate(-16.96 -20.79)"/><path class="cls-1" d="M112.51,277.84a12.09,12.09,0,0,1-.76-2.63c-.08-1.44.37-1.64,1.57-1.07l-.6,3.73Z" transform="translate(-16.96 -20.79)"/><path class="cls-1" d="M110.26,255.21c.4.79.84,1.55,1.16,2.37.08.2-.21.78-.4.81a1,1,0,0,1-.87-.39c-.22-.86-.31-1.76-.45-2.64Z" transform="translate(-16.96 -20.79)"/><path class="cls-1" d="M103.16,191.62a10.82,10.82,0,0,1-.54-1.88c0-.32.33-.69.51-1,.31.32.88.64.88,1a7.94,7.94,0,0,1-.48,2Z" transform="translate(-16.96 -20.79)"/><path class="cls-1" d="M114.73,307.88c.55-1.12-.92-2.15-.16-3.36A2.24,2.24,0,0,1,114.73,307.88Z" transform="translate(-16.96 -20.79)"/><path class="cls-1" d="M105.9,139.42c-1-1.78-1-1.89.65-2.09C106.36,138,107.11,138.92,105.9,139.42Z" transform="translate(-16.96 -20.79)"/><path class="cls-1" d="M106.9,185.76l.28-2.44.37-.08a10.48,10.48,0,0,1,.73,1.82A7.16,7.16,0,0,1,106.9,185.76Z" transform="translate(-16.96 -20.79)"/><path class="cls-1" d="M106,204l.29-2.49C107.36,202.52,107.24,203.34,106,204Z" transform="translate(-16.96 -20.79)"/><path class="cls-1" d="M101.66,186.22c1.09.37,1,1.13.84,1.86,0,.12-.45.31-.54.25s-.54-.44-.55-.68A5.59,5.59,0,0,1,101.66,186.22Z" transform="translate(-16.96 -20.79)"/><path class="cls-1" d="M98.32,181.74c-1.35.45-1.31-.44-1.44-1,0-.17.29-.43.45-.65Z" transform="translate(-16.96 -20.79)"/><path class="cls-1" d="M113.16,281.34l.42-1.56.84.26-.62,1.53Z" transform="translate(-16.96 -20.79)"/><path class="cls-1" d="M86.73,133.66l-.51-2.72c1,.6,1.06.73.85,2.64Z" transform="translate(-16.96 -20.79)"/><path class="cls-1" d="M105.17,114.55a4.57,4.57,0,0,1,.89-.65c.08,0,.5.39.46.48a8.07,8.07,0,0,1-.68,1.11Z" transform="translate(-16.96 -20.79)"/><path class="cls-1" d="M84.62,100.14V98c1.59.52-.09,1.49.62,2Z" transform="translate(-16.96 -20.79)"/><path class="cls-1" d="M116.14,317.8l.64,1.69C115.84,319.22,115.32,318.79,116.14,317.8Z" transform="translate(-16.96 -20.79)"/><path class="cls-1" d="M105.2,136.18v-1.91c.23.1.64.21.63.28,0,.56-.18,1.12-.28,1.68Z" transform="translate(-16.96 -20.79)"/><path class="cls-1" d="M77.24,92.16l.93,1.78-.34.18c-.36-.58-1.13-.93-1.07-1.76Z" transform="translate(-16.96 -20.79)"/><path class="cls-1" d="M118.36,322.35c-.9-.76-.74-1.3.34-2C118.55,321.24,118.46,321.79,118.36,322.35Z" transform="translate(-16.96 -20.79)"/><path class="cls-1" d="M44.06,137.49l-2.32.17a12.15,12.15,0,0,0-.26-1.8,13.46,13.46,0,0,0-.8-1.73c-.67.43-1.36.83-2,1.31a4,4,0,0,0-.66.9l-.3-.13a9,9,0,0,0-.14-1.47.82.82,0,0,0-.54-.52c-.14,0-.4.27-.52.48a2,2,0,0,0-.36,1c.06,1-.6,1.06-1.31,1.11-.37,0-.73.11-1.13.18l-.25-2.73,1.6.93c.15-.36.45-.75.38-1.06s-.57-.38-.76-.48c0-.66,0-1.3,0-1.94s.09-1.19.17-2.09l1.9,1.1,0,.31c-1.25,0-1.45.56-1,1.62a4.7,4.7,0,0,1,.73-.52c.67-.32,1.35-.43,1.61.5s.7.89,1.36.36c.18-.15.67-.23.79-.12,1.24,1.3,2.44,2.64,3.63,4C44,137,44,137.26,44.06,137.49Z" transform="translate(-16.96 -20.79)"/><path class="cls-1" d="M32.07,137.38c-.26-1.32-.51-2.39-.66-3.47-.18-1.25-.3-2.52-.37-3.78,0-.25.32-.57.57-.78s.64-.35.93-.56,1-.65,1-.88a9.3,9.3,0,0,0-.81-2l-.36,0-.56,2.21-.34,0c0-.54,0-1.07,0-1.6a6,6,0,0,0,.09-1.39c-.2-.93.18-1.31,1-1.45l.47,1.54.56-.2-.93-2.31a1.17,1.17,0,0,1,1.85.22,18.23,18.23,0,0,1,1,1.9c-2,1.22.24,2.67.09,4l-1.35-.74a4.86,4.86,0,0,0-.72,1.65c0,.86.13,1.68-.81,2.17a.55.55,0,0,0-.14.52c.76,1.39-.7,2.8,0,4.2C32.63,136.8,32.33,137.05,32.07,137.38Z" transform="translate(-16.96 -20.79)"/><path class="cls-1" d="M48.32,107.25c-.33,2.56-.61,4.8-.91,7-.09.63-.24,1.25-.36,1.87-.07.35,0,.78-.22,1a8.08,8.08,0,0,1-1.21,1c-.08-.61-.42-1.36-.19-1.8A5.38,5.38,0,0,0,46,112C45.54,110.31,46.47,108.61,48.32,107.25Z" transform="translate(-16.96 -20.79)"/><path class="cls-1" d="M38.85,140c-1.53.72-1.34,1.84-.58,3,.55-.51,1.11-1.46,1.69-1.47a2.29,2.29,0,0,1,2.11,1.62c.19.51.85.85,1.2,1.57-.79,0-1.74.16-2.32-.21s-.71-1.3-1.1-2.1l-.45,1.61c-1.47-.12-1.67.12-2,2.29-.36-.33-.84-.61-1-1a1.28,1.28,0,0,1,.07-1.18,3,3,0,0,0,.86-3.11,1.41,1.41,0,0,1,.5-1.08C38,139.8,38.49,140,38.85,140Z" transform="translate(-16.96 -20.79)"/><path class="cls-1" d="M35.49,157.19c-.78-.05-.54-.87-.61-1.47-.11-.92.55-1.92-.38-2.8-.16-.16.23-.94.42-1.41a.59.59,0,0,1,.5-.12,1.23,1.23,0,0,1,.29.71c0,.75-.17,1.5-.2,2.25s-.23,1.58,1,1.68c.14,0,.25.42.36.66.2.46.39.92.63,1.47-1.31.51-1.19,1.63-.8,3.07-1-1-1.39-.15-2.28.59a9.4,9.4,0,0,1,0-1.45,9.18,9.18,0,0,1,.42-1.32C35,158.42,35.27,157.79,35.49,157.19Z" transform="translate(-16.96 -20.79)"/><path class="cls-1" d="M21.91,316.74a6.39,6.39,0,0,1-1.57.41c-.53,0-1.45-.11-1.52-.36a12.85,12.85,0,0,1,.09-5.45c.95,1.29,1.85,2.39,2.59,3.59a5.38,5.38,0,0,1,.38,1.84Z" transform="translate(-16.96 -20.79)"/><path class="cls-1" d="M41.34,124.3c-.34.76-.49,1.84-1.07,2.18s-1.55-.14-2.66-.31l.15,3.33,2.54.43.08.35c-.21.13-.44.41-.64.38a5.61,5.61,0,0,1-2.44-.52,2.56,2.56,0,0,1-.77-2,9.25,9.25,0,0,1,.88-2.54,1,1,0,0,1,1.71-.38c.17.17.49.37.66.31s.22-.43.36-.64.5-.64.74-.95Z" transform="translate(-16.96 -20.79)"/><path class="cls-1" d="M32.63,143.15l.89-1.27c.53.93,1,1.68,1.38,2.46a.72.72,0,0,1,0,.64.67.67,0,0,1-.62.1,4.6,4.6,0,0,1-.92-.54c-1.19.54.85,2.54-1.21,2.71-.65-.74.24-2.58-2-2.25C31.14,144.22,31.08,142.57,32.63,143.15Z" transform="translate(-16.96 -20.79)"/><path class="cls-1" d="M23.16,208.22c-.1-.05-.26-.07-.31-.15a4.84,4.84,0,0,1,.65-3.59,3.12,3.12,0,0,0,.6-1c0-.08-.32-.41-.33-.41-.33.24-.64.51-.95.76a2.92,2.92,0,0,1-.28.21c-.69-1.25-.36-1.59,1.95-1.93l.55,5.19-.33.08-.6-1.18-1,2.1Z" transform="translate(-16.96 -20.79)"/><path class="cls-1" d="M39.89,116.46c-.62-1.67.19-2.71,1.52-3.58.32-.21.43-.73.71-1a8.16,8.16,0,0,1,1-.84C43.54,113.1,41.76,116,39.89,116.46Z" transform="translate(-16.96 -20.79)"/><path class="cls-1" d="M35.94,112.32a1.58,1.58,0,0,1,1.19,1.93c-.27,1.15-.43,2.49-1.84,3C33.78,116.19,34.76,114.32,35.94,112.32Z" transform="translate(-16.96 -20.79)"/><path class="cls-1" d="M28.29,277c.29-.55.51-1,.69-1.35.33-.71.71-1.39-.46-1.78-.9-.31-1-1.09-.31-2.32.51.28,1.23.43,1.48.86a4.52,4.52,0,0,1,.69,2.44C30.21,276.5,29.62,277.05,28.29,277Z" transform="translate(-16.96 -20.79)"/><path class="cls-1" d="M23.39,145.58a6.56,6.56,0,0,0-1.22-.9c-1.18-.5-1.32-1.25-.36-2.15l1,2,.59-.17a5.51,5.51,0,0,0-.33-2c-.6-1-.1-1.59.57-2.3.15.16.39.33.37.42C23.51,142.18,25.14,144.15,23.39,145.58Z" transform="translate(-16.96 -20.79)"/><path class="cls-1" d="M32.88,107.48l1.21.84c-.23.29-.48.56-.68.87a5,5,0,0,0-.57,1c-.29.81-.47,1.67-.82,2.45-.1.22-.63.26-1,.38,0-.34-.19-.74-.07-1,.37-.86.88-1.65,1.27-2.49.11-.25-.07-.62,0-.9A6.66,6.66,0,0,1,32.88,107.48Z" transform="translate(-16.96 -20.79)"/><path class="cls-1" d="M47.22,148.39c-1.23.89-1.23.89-1.78-.46-1.17.33-2.57.32-2.54,2.28l-.36-.19a17.7,17.7,0,0,1-.2-2.29c0-.18.52-.38.83-.52a11,11,0,0,1,1.24-.48c.19-.06.49-.15.62-.06C45.79,147.22,46.52,147.83,47.22,148.39Z" transform="translate(-16.96 -20.79)"/><path class="cls-1" d="M21.93,294.83l.55,1.49-1.42.56,1,.25.16.36-3.1,1.77-.1-1.61,1.15.25c0-.36,0-.73-.06-1.1-.06-.6-.28-1.22.8-1.11C21.21,295.72,21.57,295.14,21.93,294.83Z" transform="translate(-16.96 -20.79)"/><path class="cls-1" d="M43.08,124.64l1.22-.12c.08.27.25.52.2.71-.39,1.51-.8,3-1.26,4.51-.09.28-.44.48-.61.67a7.4,7.4,0,0,1-.24-1.85c.1-.94.41-1.87.6-2.8a10.8,10.8,0,0,0,.11-1.13Z" transform="translate(-16.96 -20.79)"/><path class="cls-1" d="M34.77,120.32c-.47-1-1-2.07-2.35-2.16-.17,0-.42-.8-.39-1.21a4.11,4.11,0,0,1,.57-1.31C33,117.33,35.71,117.92,34.77,120.32Z" transform="translate(-16.96 -20.79)"/><path class="cls-1" d="M36.75,123.36c0-.65-.11-1.42.19-1.92a2.68,2.68,0,0,0,.19-2.7,1.14,1.14,0,0,1,.13-.86,6.49,6.49,0,0,1,.75,4.9c-.08.32-.54.53-.83.8Z" transform="translate(-16.96 -20.79)"/><path class="cls-1" d="M31.28,227.61c.39-1.24-.6-2.28.59-2.93.26-.13,1,0,1,.18a3.75,3.75,0,0,1,.21,2C33,227.21,32.11,227.3,31.28,227.61Z" transform="translate(-16.96 -20.79)"/><path class="cls-1" d="M40.93,180.12,39.41,182c-.26-.21-.75-.44-.73-.63a4.68,4.68,0,0,1,.46-1.71c.16-.32.58-.52.89-.78Z" transform="translate(-16.96 -20.79)"/><path class="cls-1" d="M19.83,304.7c-.95-1-.2-1.84,0-2.62a1.54,1.54,0,0,1,1.27-.16c.4.51,1.33,1,.64,1.95C20.85,302.64,20.85,302.64,19.83,304.7Z" transform="translate(-16.96 -20.79)"/><path class="cls-1" d="M36.91,165.2l-1.15.25a18.81,18.81,0,0,1,.26-2.79c.07-.29.67-.47,1-.7a4.11,4.11,0,0,1,.2,1.08C37.19,163.69,37.05,164.34,36.91,165.2Z" transform="translate(-16.96 -20.79)"/><path class="cls-1" d="M22.56,289.34c.9.62,1.09,1.23.63,2-.32.55-.7,1.08-.1,1.73.07.07-.37.62-.58.94-.2-.19-.6-.4-.58-.56C22.09,292.13,22.33,290.81,22.56,289.34Z" transform="translate(-16.96 -20.79)"/><path class="cls-1" d="M36.43,139c-.21,1.74-.49,1.89-1.76,1.19l-1.23,1a13.68,13.68,0,0,1-.59-1.53,1.08,1.08,0,0,1,.1-.72c0-.07.48-.08.51,0C34.26,140.61,35.32,139.54,36.43,139Z" transform="translate(-16.96 -20.79)"/><path class="cls-1" d="M34.32,155.56l-1.13,1.7-.57-1.78-1,.92c-.18-1.25.49-1.49,1.55-1.33L32.78,154l.25-.21Z" transform="translate(-16.96 -20.79)"/><path class="cls-1" d="M39.82,157.16c.17-1.46.28-2.94.54-4.39,0-.23.68-.37,1-.55,0,.35-.06.7-.14,1-.2.8-.46,1.58-.65,2.37-.13.53-.17,1.07-.25,1.6Z" transform="translate(-16.96 -20.79)"/><path class="cls-1" d="M29.68,199.87c1.35,1.4,1.39,1.64.55,3.43A3.2,3.2,0,0,1,29.68,199.87Z" transform="translate(-16.96 -20.79)"/><path class="cls-1" d="M42.14,160.38l-1.08,1.8L40.14,161l-.21,1.42c-.63-1.16-.2-1.9,1-2.06a6,6,0,0,1,1.19.09Z" transform="translate(-16.96 -20.79)"/><path class="cls-1" d="M22.16,310.77l-.33,3.09-.33.07a2.7,2.7,0,0,1-.35-.7c0-.4.34-1-.56-.88,0-.24-.06-.6.07-.7A11.28,11.28,0,0,1,22.16,310.77Z" transform="translate(-16.96 -20.79)"/><path class="cls-1" d="M23.13,208.25c.12.3.37.6.35.88-.06.7-.24,1.39-.41,2.28l-1.24-1.12,1.33-2.06Z" transform="translate(-16.96 -20.79)"/><path class="cls-1" d="M22.48,262.91l1.14.44-.25-1.28.37-.21c.25.43.74.9.68,1.28-.19,1.24-1.21.87-2.13.83Z" transform="translate(-16.96 -20.79)"/><path class="cls-1" d="M21.21,272.46a19,19,0,0,1,0,2.16c0,.29-.36.54-.7,1C20,273.7,20.26,272.79,21.21,272.46Z" transform="translate(-16.96 -20.79)"/><path class="cls-1" d="M30.77,205.8v3.51C29.79,207.29,29.93,206.16,30.77,205.8Z" transform="translate(-16.96 -20.79)"/><path class="cls-1" d="M31.37,254.86l1.68,2.05c-.77.08-1.36.3-1.55.12A1.51,1.51,0,0,1,31.37,254.86Z" transform="translate(-16.96 -20.79)"/><path class="cls-1" d="M36.39,154.26a2.09,2.09,0,0,1,.66-2.65C37.63,153,37.5,153.52,36.39,154.26Z" transform="translate(-16.96 -20.79)"/><path class="cls-1" d="M28.14,261.55l.21-2.79c.4.38,1,.75,1,1a8.43,8.43,0,0,1-.84,1.91Z" transform="translate(-16.96 -20.79)"/><path class="cls-1" d="M21.54,214.72v-3.51h.4v3.59Z" transform="translate(-16.96 -20.79)"/><path class="cls-1" d="M30.11,197.49l.55-2c.32.46.81.89.89,1.39,0,.25-.68.61-1.05.93Z" transform="translate(-16.96 -20.79)"/><path class="cls-1" d="M35.82,167.05c.72.69.53,2.22-.06,2.41-.15,0-.62-.32-.6-.41C35.32,168.41,35.56,167.8,35.82,167.05Z" transform="translate(-16.96 -20.79)"/><path class="cls-1" d="M44.87,150.27c.57-.73,2-.88,2.23-.41a1.06,1.06,0,0,1-.4.8A11.22,11.22,0,0,1,44.87,150.27Z" transform="translate(-16.96 -20.79)"/><path class="cls-1" d="M22.76,160.09a4.92,4.92,0,0,1,.65-1.22c.17-.19.62-.13.95-.17,0,.3.14.66,0,.88C24.05,160.19,23.62,160.76,22.76,160.09Z" transform="translate(-16.96 -20.79)"/><path class="cls-1" d="M41.94,164.42A15.54,15.54,0,0,1,42.7,166c.07.2-.1.48-.16.73-.24-.09-.63-.13-.68-.29a16,16,0,0,1-.47-1.84Z" transform="translate(-16.96 -20.79)"/><path class="cls-1" d="M44.38,159v-2.85c1.26,1.09.17,2,.36,2.83Z" transform="translate(-16.96 -20.79)"/><path class="cls-1" d="M49.55,120.75a13.51,13.51,0,0,1-.37,1.7c-.07.18-.5.22-.77.32-.06-.27-.24-.57-.16-.78a12.43,12.43,0,0,1,.73-1.46Z" transform="translate(-16.96 -20.79)"/><path class="cls-1" d="M38.2,160.69l.13-2.28C39.71,159,39.66,159.63,38.2,160.69Z" transform="translate(-16.96 -20.79)"/><path class="cls-1" d="M39.8,107.74l-1.87-.8.19-.55,2,.59Z" transform="translate(-16.96 -20.79)"/><path class="cls-1" d="M43.1,124.63c-.3-.44-.64-.87-.91-1.33a2.73,2.73,0,0,1-.21-.77c.27,0,.62-.11.8,0,.82.56,1,1.26.31,2.09C43.08,124.64,43.1,124.63,43.1,124.63Z" transform="translate(-16.96 -20.79)"/><path class="cls-1" d="M45.64,139.24l1.25.11.23.3-1.11,1-.69-1.13Z" transform="translate(-16.96 -20.79)"/><path class="cls-1" d="M39,170a20.53,20.53,0,0,1,0,2.14c0,.13-.53.37-.64.3C37.9,172.13,38.18,170.56,39,170Z" transform="translate(-16.96 -20.79)"/><path class="cls-1" d="M33.91,275.65c-1.14-1.43-1.06-1.67.55-1.92Z" transform="translate(-16.96 -20.79)"/><path class="cls-1" d="M32.35,263c-1.86-.47-1.86-.47-1.65-1.87Z" transform="translate(-16.96 -20.79)"/><path class="cls-1" d="M42,139.35a4.08,4.08,0,0,1,.49,1.16c0,.16-.46.53-.53.49a1.68,1.68,0,0,1-.73-.74C41.17,140.1,41.59,139.8,42,139.35Z" transform="translate(-16.96 -20.79)"/><path class="cls-1" d="M31.48,142.27c-.72-1-.57-1.39.75-2.15l.24.21a4.43,4.43,0,0,0-.59.72A8.32,8.32,0,0,0,31.48,142.27Z" transform="translate(-16.96 -20.79)"/><path class="cls-1" d="M46.68,123.87l-.32,2.49c-.42-.62-.9-1-.84-1.33S46.11,124.41,46.68,123.87Z" transform="translate(-16.96 -20.79)"/><path class="cls-1" d="M38.72,117.6c-.63-.43-1.77-.4-1.4-1.95L39,117.36Z" transform="translate(-16.96 -20.79)"/><path class="cls-1" d="M50.59,124c-.31.75.07,2.08-1.55,2Z" transform="translate(-16.96 -20.79)"/><path class="cls-1" d="M20.84,291.92v2.81l-.48,0c0-.94-.28-1.9.5-2.77Z" transform="translate(-16.96 -20.79)"/><path class="cls-1" d="M42.16,160.4l-.64-2.34c1.2.55,1.59,1.08.61,2.32Z" transform="translate(-16.96 -20.79)"/><path class="cls-1" d="M47.57,135.73l.55-1.85.75.23-1,1.68Z" transform="translate(-16.96 -20.79)"/><path class="cls-1" d="M47.26,105.78l-1,.85-.56-1.49.26-.21Z" transform="translate(-16.96 -20.79)"/><path class="cls-1" d="M30.11,287.56c.09.52.17,1,.22,1.56a3,3,0,0,1-.51.08c-.12-.5-.21-1-.31-1.51Z" transform="translate(-16.96 -20.79)"/><path class="cls-1" d="M78.39,24.23c3.4,0,5.7,2.5,8.85,3.66A1.66,1.66,0,0,1,85,28c-1.74-1.08-3.64-1.9-5.48-2.82l-1.26-.57Z" transform="translate(-16.96 -20.79)"/><path class="cls-1" d="M100.27,50.07c-.8-.23-1.83-.21-1.38-1.54.11-.31.47-.76.69-.75C100.33,47.83,100.62,48.84,100.27,50.07Z" transform="translate(-16.96 -20.79)"/><path class="cls-1" d="M85.41,83l-.66,1.12-.64-.45.75-1Z" transform="translate(-16.96 -20.79)"/><path class="cls-1" d="M105.51,297.45l2.76.15.15.25c-.93.5-1.84,1-2.79,1.48-.24.11-.63-.09-.95-.15.12-.3.21-.62.35-.91S105.34,297.74,105.51,297.45Z" transform="translate(-16.96 -20.79)"/><path d="M66.93,98.35c-3.39-.06-4.6-1.45-4.31-4.26a6,6,0,0,1,.06-1c.57-2.23,1.34-3.37,3.84-2.48a21.25,21.25,0,0,1,2.91,1,7.35,7.35,0,0,1,2,1.74,2.66,2.66,0,0,1-1.63,4.27C68.69,98,67.52,98.21,66.93,98.35Z" transform="translate(-16.96 -20.79)"/></svg>